<?xml version="1.0" encoding="utf-8" standalone="no"?>
<!DOCTYPE svg PUBLIC "-//W3C//DTD SVG 1.1//EN"
  "http://www.w3.org/Graphics/SVG/1.1/DTD/svg11.dtd">
<svg xmlns:xlink="http://www.w3.org/1999/xlink" width="576pt" height="360pt" viewBox="0 0 576 360" xmlns="http://www.w3.org/2000/svg" version="1.1">
 <metadata>
  <rdf:RDF xmlns:dc="http://purl.org/dc/elements/1.1/" xmlns:cc="http://creativecommons.org/ns#" xmlns:rdf="http://www.w3.org/1999/02/22-rdf-syntax-ns#">
   <cc:Work>
    <dc:type rdf:resource="http://purl.org/dc/dcmitype/StillImage"/>
    <dc:date>2025-06-23T14:37:38.881889</dc:date>
    <dc:format>image/svg+xml</dc:format>
    <dc:creator>
     <cc:Agent>
      <dc:title>Matplotlib v3.10.3, https://matplotlib.org/</dc:title>
     </cc:Agent>
    </dc:creator>
   </cc:Work>
  </rdf:RDF>
 </metadata>
 <defs>
  <style type="text/css">*{stroke-linejoin: round; stroke-linecap: butt}</style>
 </defs>
 <g id="figure_1">
  <g id="patch_1">
   <path d="M 0 360 
L 576 360 
L 576 0 
L 0 0 
z
" style="fill: #ffffff"/>
  </g>
  <g id="axes_1">
   <g id="patch_2">
    <path d="M 72 320.4 
L 518.4 320.4 
L 518.4 43.2 
L 72 43.2 
z
" style="fill: #ffffff"/>
   </g>
   <g id="matplotlib.axis_1">
    <g id="xtick_1">
     <g id="line2d_1">
      <defs>
       <path id="mbb95675d9b" d="M 0 0 
L 0 3.5 
" style="stroke: #000000; stroke-width: 0.8"/>
      </defs>
      <g>
       <use xlink:href="#mbb95675d9b" x="92.290909" y="320.4" style="stroke: #000000; stroke-width: 0.8"/>
      </g>
     </g>
     <g id="text_1">
      <!-- 0.0 -->
      <g transform="translate(84.339347 334.998438) scale(0.1 -0.1)">
       <defs>
        <path id="DejaVuSans-30" d="M 2034 4250 
Q 1547 4250 1301 3770 
Q 1056 3291 1056 2328 
Q 1056 1369 1301 889 
Q 1547 409 2034 409 
Q 2525 409 2770 889 
Q 3016 1369 3016 2328 
Q 3016 3291 2770 3770 
Q 2525 4250 2034 4250 
z
M 2034 4750 
Q 2819 4750 3233 4129 
Q 3647 3509 3647 2328 
Q 3647 1150 3233 529 
Q 2819 -91 2034 -91 
Q 1250 -91 836 529 
Q 422 1150 422 2328 
Q 422 3509 836 4129 
Q 1250 4750 2034 4750 
z
" transform="scale(0.015625)"/>
        <path id="DejaVuSans-2e" d="M 684 794 
L 1344 794 
L 1344 0 
L 684 0 
L 684 794 
z
" transform="scale(0.015625)"/>
       </defs>
       <use xlink:href="#DejaVuSans-30"/>
       <use xlink:href="#DejaVuSans-2e" transform="translate(63.623047 0)"/>
       <use xlink:href="#DejaVuSans-30" transform="translate(95.410156 0)"/>
      </g>
     </g>
    </g>
    <g id="xtick_2">
     <g id="line2d_2">
      <g>
       <use xlink:href="#mbb95675d9b" x="173.454545" y="320.4" style="stroke: #000000; stroke-width: 0.8"/>
      </g>
     </g>
     <g id="text_2">
      <!-- 0.2 -->
      <g transform="translate(165.502983 334.998438) scale(0.1 -0.1)">
       <defs>
        <path id="DejaVuSans-32" d="M 1228 531 
L 3431 531 
L 3431 0 
L 469 0 
L 469 531 
Q 828 903 1448 1529 
Q 2069 2156 2228 2338 
Q 2531 2678 2651 2914 
Q 2772 3150 2772 3378 
Q 2772 3750 2511 3984 
Q 2250 4219 1831 4219 
Q 1534 4219 1204 4116 
Q 875 4013 500 3803 
L 500 4441 
Q 881 4594 1212 4672 
Q 1544 4750 1819 4750 
Q 2544 4750 2975 4387 
Q 3406 4025 3406 3419 
Q 3406 3131 3298 2873 
Q 3191 2616 2906 2266 
Q 2828 2175 2409 1742 
Q 1991 1309 1228 531 
z
" transform="scale(0.015625)"/>
       </defs>
       <use xlink:href="#DejaVuSans-30"/>
       <use xlink:href="#DejaVuSans-2e" transform="translate(63.623047 0)"/>
       <use xlink:href="#DejaVuSans-32" transform="translate(95.410156 0)"/>
      </g>
     </g>
    </g>
    <g id="xtick_3">
     <g id="line2d_3">
      <g>
       <use xlink:href="#mbb95675d9b" x="254.618182" y="320.4" style="stroke: #000000; stroke-width: 0.8"/>
      </g>
     </g>
     <g id="text_3">
      <!-- 0.4 -->
      <g transform="translate(246.666619 334.998438) scale(0.1 -0.1)">
       <defs>
        <path id="DejaVuSans-34" d="M 2419 4116 
L 825 1625 
L 2419 1625 
L 2419 4116 
z
M 2253 4666 
L 3047 4666 
L 3047 1625 
L 3713 1625 
L 3713 1100 
L 3047 1100 
L 3047 0 
L 2419 0 
L 2419 1100 
L 313 1100 
L 313 1709 
L 2253 4666 
z
" transform="scale(0.015625)"/>
       </defs>
       <use xlink:href="#DejaVuSans-30"/>
       <use xlink:href="#DejaVuSans-2e" transform="translate(63.623047 0)"/>
       <use xlink:href="#DejaVuSans-34" transform="translate(95.410156 0)"/>
      </g>
     </g>
    </g>
    <g id="xtick_4">
     <g id="line2d_4">
      <g>
       <use xlink:href="#mbb95675d9b" x="335.781818" y="320.4" style="stroke: #000000; stroke-width: 0.8"/>
      </g>
     </g>
     <g id="text_4">
      <!-- 0.6 -->
      <g transform="translate(327.830256 334.998438) scale(0.1 -0.1)">
       <defs>
        <path id="DejaVuSans-36" d="M 2113 2584 
Q 1688 2584 1439 2293 
Q 1191 2003 1191 1497 
Q 1191 994 1439 701 
Q 1688 409 2113 409 
Q 2538 409 2786 701 
Q 3034 994 3034 1497 
Q 3034 2003 2786 2293 
Q 2538 2584 2113 2584 
z
M 3366 4563 
L 3366 3988 
Q 3128 4100 2886 4159 
Q 2644 4219 2406 4219 
Q 1781 4219 1451 3797 
Q 1122 3375 1075 2522 
Q 1259 2794 1537 2939 
Q 1816 3084 2150 3084 
Q 2853 3084 3261 2657 
Q 3669 2231 3669 1497 
Q 3669 778 3244 343 
Q 2819 -91 2113 -91 
Q 1303 -91 875 529 
Q 447 1150 447 2328 
Q 447 3434 972 4092 
Q 1497 4750 2381 4750 
Q 2619 4750 2861 4703 
Q 3103 4656 3366 4563 
z
" transform="scale(0.015625)"/>
       </defs>
       <use xlink:href="#DejaVuSans-30"/>
       <use xlink:href="#DejaVuSans-2e" transform="translate(63.623047 0)"/>
       <use xlink:href="#DejaVuSans-36" transform="translate(95.410156 0)"/>
      </g>
     </g>
    </g>
    <g id="xtick_5">
     <g id="line2d_5">
      <g>
       <use xlink:href="#mbb95675d9b" x="416.945455" y="320.4" style="stroke: #000000; stroke-width: 0.8"/>
      </g>
     </g>
     <g id="text_5">
      <!-- 0.8 -->
      <g transform="translate(408.993892 334.998438) scale(0.1 -0.1)">
       <defs>
        <path id="DejaVuSans-38" d="M 2034 2216 
Q 1584 2216 1326 1975 
Q 1069 1734 1069 1313 
Q 1069 891 1326 650 
Q 1584 409 2034 409 
Q 2484 409 2743 651 
Q 3003 894 3003 1313 
Q 3003 1734 2745 1975 
Q 2488 2216 2034 2216 
z
M 1403 2484 
Q 997 2584 770 2862 
Q 544 3141 544 3541 
Q 544 4100 942 4425 
Q 1341 4750 2034 4750 
Q 2731 4750 3128 4425 
Q 3525 4100 3525 3541 
Q 3525 3141 3298 2862 
Q 3072 2584 2669 2484 
Q 3125 2378 3379 2068 
Q 3634 1759 3634 1313 
Q 3634 634 3220 271 
Q 2806 -91 2034 -91 
Q 1263 -91 848 271 
Q 434 634 434 1313 
Q 434 1759 690 2068 
Q 947 2378 1403 2484 
z
M 1172 3481 
Q 1172 3119 1398 2916 
Q 1625 2713 2034 2713 
Q 2441 2713 2670 2916 
Q 2900 3119 2900 3481 
Q 2900 3844 2670 4047 
Q 2441 4250 2034 4250 
Q 1625 4250 1398 4047 
Q 1172 3844 1172 3481 
z
" transform="scale(0.015625)"/>
       </defs>
       <use xlink:href="#DejaVuSans-30"/>
       <use xlink:href="#DejaVuSans-2e" transform="translate(63.623047 0)"/>
       <use xlink:href="#DejaVuSans-38" transform="translate(95.410156 0)"/>
      </g>
     </g>
    </g>
    <g id="xtick_6">
     <g id="line2d_6">
      <g>
       <use xlink:href="#mbb95675d9b" x="498.109091" y="320.4" style="stroke: #000000; stroke-width: 0.8"/>
      </g>
     </g>
     <g id="text_6">
      <!-- 1.0 -->
      <g transform="translate(490.157528 334.998438) scale(0.1 -0.1)">
       <defs>
        <path id="DejaVuSans-31" d="M 794 531 
L 1825 531 
L 1825 4091 
L 703 3866 
L 703 4441 
L 1819 4666 
L 2450 4666 
L 2450 531 
L 3481 531 
L 3481 0 
L 794 0 
L 794 531 
z
" transform="scale(0.015625)"/>
       </defs>
       <use xlink:href="#DejaVuSans-31"/>
       <use xlink:href="#DejaVuSans-2e" transform="translate(63.623047 0)"/>
       <use xlink:href="#DejaVuSans-30" transform="translate(95.410156 0)"/>
      </g>
     </g>
    </g>
    <g id="text_7">
     <!-- Time from 0 to 1 second. -->
     <g transform="translate(232.584375 348.676562) scale(0.1 -0.1)">
      <defs>
       <path id="DejaVuSans-54" d="M -19 4666 
L 3928 4666 
L 3928 4134 
L 2272 4134 
L 2272 0 
L 1638 0 
L 1638 4134 
L -19 4134 
L -19 4666 
z
" transform="scale(0.015625)"/>
       <path id="DejaVuSans-69" d="M 603 3500 
L 1178 3500 
L 1178 0 
L 603 0 
L 603 3500 
z
M 603 4863 
L 1178 4863 
L 1178 4134 
L 603 4134 
L 603 4863 
z
" transform="scale(0.015625)"/>
       <path id="DejaVuSans-6d" d="M 3328 2828 
Q 3544 3216 3844 3400 
Q 4144 3584 4550 3584 
Q 5097 3584 5394 3201 
Q 5691 2819 5691 2113 
L 5691 0 
L 5113 0 
L 5113 2094 
Q 5113 2597 4934 2840 
Q 4756 3084 4391 3084 
Q 3944 3084 3684 2787 
Q 3425 2491 3425 1978 
L 3425 0 
L 2847 0 
L 2847 2094 
Q 2847 2600 2669 2842 
Q 2491 3084 2119 3084 
Q 1678 3084 1418 2786 
Q 1159 2488 1159 1978 
L 1159 0 
L 581 0 
L 581 3500 
L 1159 3500 
L 1159 2956 
Q 1356 3278 1631 3431 
Q 1906 3584 2284 3584 
Q 2666 3584 2933 3390 
Q 3200 3197 3328 2828 
z
" transform="scale(0.015625)"/>
       <path id="DejaVuSans-65" d="M 3597 1894 
L 3597 1613 
L 953 1613 
Q 991 1019 1311 708 
Q 1631 397 2203 397 
Q 2534 397 2845 478 
Q 3156 559 3463 722 
L 3463 178 
Q 3153 47 2828 -22 
Q 2503 -91 2169 -91 
Q 1331 -91 842 396 
Q 353 884 353 1716 
Q 353 2575 817 3079 
Q 1281 3584 2069 3584 
Q 2775 3584 3186 3129 
Q 3597 2675 3597 1894 
z
M 3022 2063 
Q 3016 2534 2758 2815 
Q 2500 3097 2075 3097 
Q 1594 3097 1305 2825 
Q 1016 2553 972 2059 
L 3022 2063 
z
" transform="scale(0.015625)"/>
       <path id="DejaVuSans-20" transform="scale(0.015625)"/>
       <path id="DejaVuSans-66" d="M 2375 4863 
L 2375 4384 
L 1825 4384 
Q 1516 4384 1395 4259 
Q 1275 4134 1275 3809 
L 1275 3500 
L 2222 3500 
L 2222 3053 
L 1275 3053 
L 1275 0 
L 697 0 
L 697 3053 
L 147 3053 
L 147 3500 
L 697 3500 
L 697 3744 
Q 697 4328 969 4595 
Q 1241 4863 1831 4863 
L 2375 4863 
z
" transform="scale(0.015625)"/>
       <path id="DejaVuSans-72" d="M 2631 2963 
Q 2534 3019 2420 3045 
Q 2306 3072 2169 3072 
Q 1681 3072 1420 2755 
Q 1159 2438 1159 1844 
L 1159 0 
L 581 0 
L 581 3500 
L 1159 3500 
L 1159 2956 
Q 1341 3275 1631 3429 
Q 1922 3584 2338 3584 
Q 2397 3584 2469 3576 
Q 2541 3569 2628 3553 
L 2631 2963 
z
" transform="scale(0.015625)"/>
       <path id="DejaVuSans-6f" d="M 1959 3097 
Q 1497 3097 1228 2736 
Q 959 2375 959 1747 
Q 959 1119 1226 758 
Q 1494 397 1959 397 
Q 2419 397 2687 759 
Q 2956 1122 2956 1747 
Q 2956 2369 2687 2733 
Q 2419 3097 1959 3097 
z
M 1959 3584 
Q 2709 3584 3137 3096 
Q 3566 2609 3566 1747 
Q 3566 888 3137 398 
Q 2709 -91 1959 -91 
Q 1206 -91 779 398 
Q 353 888 353 1747 
Q 353 2609 779 3096 
Q 1206 3584 1959 3584 
z
" transform="scale(0.015625)"/>
       <path id="DejaVuSans-74" d="M 1172 4494 
L 1172 3500 
L 2356 3500 
L 2356 3053 
L 1172 3053 
L 1172 1153 
Q 1172 725 1289 603 
Q 1406 481 1766 481 
L 2356 481 
L 2356 0 
L 1766 0 
Q 1100 0 847 248 
Q 594 497 594 1153 
L 594 3053 
L 172 3053 
L 172 3500 
L 594 3500 
L 594 4494 
L 1172 4494 
z
" transform="scale(0.015625)"/>
       <path id="DejaVuSans-73" d="M 2834 3397 
L 2834 2853 
Q 2591 2978 2328 3040 
Q 2066 3103 1784 3103 
Q 1356 3103 1142 2972 
Q 928 2841 928 2578 
Q 928 2378 1081 2264 
Q 1234 2150 1697 2047 
L 1894 2003 
Q 2506 1872 2764 1633 
Q 3022 1394 3022 966 
Q 3022 478 2636 193 
Q 2250 -91 1575 -91 
Q 1294 -91 989 -36 
Q 684 19 347 128 
L 347 722 
Q 666 556 975 473 
Q 1284 391 1588 391 
Q 1994 391 2212 530 
Q 2431 669 2431 922 
Q 2431 1156 2273 1281 
Q 2116 1406 1581 1522 
L 1381 1569 
Q 847 1681 609 1914 
Q 372 2147 372 2553 
Q 372 3047 722 3315 
Q 1072 3584 1716 3584 
Q 2034 3584 2315 3537 
Q 2597 3491 2834 3397 
z
" transform="scale(0.015625)"/>
       <path id="DejaVuSans-63" d="M 3122 3366 
L 3122 2828 
Q 2878 2963 2633 3030 
Q 2388 3097 2138 3097 
Q 1578 3097 1268 2742 
Q 959 2388 959 1747 
Q 959 1106 1268 751 
Q 1578 397 2138 397 
Q 2388 397 2633 464 
Q 2878 531 3122 666 
L 3122 134 
Q 2881 22 2623 -34 
Q 2366 -91 2075 -91 
Q 1284 -91 818 406 
Q 353 903 353 1747 
Q 353 2603 823 3093 
Q 1294 3584 2113 3584 
Q 2378 3584 2631 3529 
Q 2884 3475 3122 3366 
z
" transform="scale(0.015625)"/>
       <path id="DejaVuSans-6e" d="M 3513 2113 
L 3513 0 
L 2938 0 
L 2938 2094 
Q 2938 2591 2744 2837 
Q 2550 3084 2163 3084 
Q 1697 3084 1428 2787 
Q 1159 2491 1159 1978 
L 1159 0 
L 581 0 
L 581 3500 
L 1159 3500 
L 1159 2956 
Q 1366 3272 1645 3428 
Q 1925 3584 2291 3584 
Q 2894 3584 3203 3211 
Q 3513 2838 3513 2113 
z
" transform="scale(0.015625)"/>
       <path id="DejaVuSans-64" d="M 2906 2969 
L 2906 4863 
L 3481 4863 
L 3481 0 
L 2906 0 
L 2906 525 
Q 2725 213 2448 61 
Q 2172 -91 1784 -91 
Q 1150 -91 751 415 
Q 353 922 353 1747 
Q 353 2572 751 3078 
Q 1150 3584 1784 3584 
Q 2172 3584 2448 3432 
Q 2725 3281 2906 2969 
z
M 947 1747 
Q 947 1113 1208 752 
Q 1469 391 1925 391 
Q 2381 391 2643 752 
Q 2906 1113 2906 1747 
Q 2906 2381 2643 2742 
Q 2381 3103 1925 3103 
Q 1469 3103 1208 2742 
Q 947 2381 947 1747 
z
" transform="scale(0.015625)"/>
      </defs>
      <use xlink:href="#DejaVuSans-54"/>
      <use xlink:href="#DejaVuSans-69" transform="translate(57.958984 0)"/>
      <use xlink:href="#DejaVuSans-6d" transform="translate(85.742188 0)"/>
      <use xlink:href="#DejaVuSans-65" transform="translate(183.154297 0)"/>
      <use xlink:href="#DejaVuSans-20" transform="translate(244.677734 0)"/>
      <use xlink:href="#DejaVuSans-66" transform="translate(276.464844 0)"/>
      <use xlink:href="#DejaVuSans-72" transform="translate(311.669922 0)"/>
      <use xlink:href="#DejaVuSans-6f" transform="translate(350.533203 0)"/>
      <use xlink:href="#DejaVuSans-6d" transform="translate(411.714844 0)"/>
      <use xlink:href="#DejaVuSans-20" transform="translate(509.126953 0)"/>
      <use xlink:href="#DejaVuSans-30" transform="translate(540.914062 0)"/>
      <use xlink:href="#DejaVuSans-20" transform="translate(604.537109 0)"/>
      <use xlink:href="#DejaVuSans-74" transform="translate(636.324219 0)"/>
      <use xlink:href="#DejaVuSans-6f" transform="translate(675.533203 0)"/>
      <use xlink:href="#DejaVuSans-20" transform="translate(736.714844 0)"/>
      <use xlink:href="#DejaVuSans-31" transform="translate(768.501953 0)"/>
      <use xlink:href="#DejaVuSans-20" transform="translate(832.125 0)"/>
      <use xlink:href="#DejaVuSans-73" transform="translate(863.912109 0)"/>
      <use xlink:href="#DejaVuSans-65" transform="translate(916.011719 0)"/>
      <use xlink:href="#DejaVuSans-63" transform="translate(977.535156 0)"/>
      <use xlink:href="#DejaVuSans-6f" transform="translate(1032.515625 0)"/>
      <use xlink:href="#DejaVuSans-6e" transform="translate(1093.697266 0)"/>
      <use xlink:href="#DejaVuSans-64" transform="translate(1157.076172 0)"/>
      <use xlink:href="#DejaVuSans-2e" transform="translate(1220.552734 0)"/>
     </g>
    </g>
   </g>
   <g id="matplotlib.axis_2">
    <g id="ytick_1">
     <g id="line2d_7">
      <defs>
       <path id="m048944775f" d="M 0 0 
L -3.5 0 
" style="stroke: #000000; stroke-width: 0.8"/>
      </defs>
      <g>
       <use xlink:href="#m048944775f" x="72" y="307.80009" style="stroke: #000000; stroke-width: 0.8"/>
      </g>
     </g>
     <g id="text_8">
      <!-- −1.00 -->
      <g transform="translate(34.354687 311.599309) scale(0.1 -0.1)">
       <defs>
        <path id="DejaVuSans-2212" d="M 678 2272 
L 4684 2272 
L 4684 1741 
L 678 1741 
L 678 2272 
z
" transform="scale(0.015625)"/>
       </defs>
       <use xlink:href="#DejaVuSans-2212"/>
       <use xlink:href="#DejaVuSans-31" transform="translate(83.789062 0)"/>
       <use xlink:href="#DejaVuSans-2e" transform="translate(147.412109 0)"/>
       <use xlink:href="#DejaVuSans-30" transform="translate(179.199219 0)"/>
       <use xlink:href="#DejaVuSans-30" transform="translate(242.822266 0)"/>
      </g>
     </g>
    </g>
    <g id="ytick_2">
     <g id="line2d_8">
      <g>
       <use xlink:href="#m048944775f" x="72" y="276.300072" style="stroke: #000000; stroke-width: 0.8"/>
      </g>
     </g>
     <g id="text_9">
      <!-- −0.75 -->
      <g transform="translate(34.354687 280.09929) scale(0.1 -0.1)">
       <defs>
        <path id="DejaVuSans-37" d="M 525 4666 
L 3525 4666 
L 3525 4397 
L 1831 0 
L 1172 0 
L 2766 4134 
L 525 4134 
L 525 4666 
z
" transform="scale(0.015625)"/>
        <path id="DejaVuSans-35" d="M 691 4666 
L 3169 4666 
L 3169 4134 
L 1269 4134 
L 1269 2991 
Q 1406 3038 1543 3061 
Q 1681 3084 1819 3084 
Q 2600 3084 3056 2656 
Q 3513 2228 3513 1497 
Q 3513 744 3044 326 
Q 2575 -91 1722 -91 
Q 1428 -91 1123 -41 
Q 819 9 494 109 
L 494 744 
Q 775 591 1075 516 
Q 1375 441 1709 441 
Q 2250 441 2565 725 
Q 2881 1009 2881 1497 
Q 2881 1984 2565 2268 
Q 2250 2553 1709 2553 
Q 1456 2553 1204 2497 
Q 953 2441 691 2322 
L 691 4666 
z
" transform="scale(0.015625)"/>
       </defs>
       <use xlink:href="#DejaVuSans-2212"/>
       <use xlink:href="#DejaVuSans-30" transform="translate(83.789062 0)"/>
       <use xlink:href="#DejaVuSans-2e" transform="translate(147.412109 0)"/>
       <use xlink:href="#DejaVuSans-37" transform="translate(179.199219 0)"/>
       <use xlink:href="#DejaVuSans-35" transform="translate(242.822266 0)"/>
      </g>
     </g>
    </g>
    <g id="ytick_3">
     <g id="line2d_9">
      <g>
       <use xlink:href="#m048944775f" x="72" y="244.800053" style="stroke: #000000; stroke-width: 0.8"/>
      </g>
     </g>
     <g id="text_10">
      <!-- −0.50 -->
      <g transform="translate(34.354687 248.599272) scale(0.1 -0.1)">
       <use xlink:href="#DejaVuSans-2212"/>
       <use xlink:href="#DejaVuSans-30" transform="translate(83.789062 0)"/>
       <use xlink:href="#DejaVuSans-2e" transform="translate(147.412109 0)"/>
       <use xlink:href="#DejaVuSans-35" transform="translate(179.199219 0)"/>
       <use xlink:href="#DejaVuSans-30" transform="translate(242.822266 0)"/>
      </g>
     </g>
    </g>
    <g id="ytick_4">
     <g id="line2d_10">
      <g>
       <use xlink:href="#m048944775f" x="72" y="213.300035" style="stroke: #000000; stroke-width: 0.8"/>
      </g>
     </g>
     <g id="text_11">
      <!-- −0.25 -->
      <g transform="translate(34.354687 217.099254) scale(0.1 -0.1)">
       <use xlink:href="#DejaVuSans-2212"/>
       <use xlink:href="#DejaVuSans-30" transform="translate(83.789062 0)"/>
       <use xlink:href="#DejaVuSans-2e" transform="translate(147.412109 0)"/>
       <use xlink:href="#DejaVuSans-32" transform="translate(179.199219 0)"/>
       <use xlink:href="#DejaVuSans-35" transform="translate(242.822266 0)"/>
      </g>
     </g>
    </g>
    <g id="ytick_5">
     <g id="line2d_11">
      <g>
       <use xlink:href="#m048944775f" x="72" y="181.800017" style="stroke: #000000; stroke-width: 0.8"/>
      </g>
     </g>
     <g id="text_12">
      <!-- 0.00 -->
      <g transform="translate(42.734375 185.599236) scale(0.1 -0.1)">
       <use xlink:href="#DejaVuSans-30"/>
       <use xlink:href="#DejaVuSans-2e" transform="translate(63.623047 0)"/>
       <use xlink:href="#DejaVuSans-30" transform="translate(95.410156 0)"/>
       <use xlink:href="#DejaVuSans-30" transform="translate(159.033203 0)"/>
      </g>
     </g>
    </g>
    <g id="ytick_6">
     <g id="line2d_12">
      <g>
       <use xlink:href="#m048944775f" x="72" y="150.299999" style="stroke: #000000; stroke-width: 0.8"/>
      </g>
     </g>
     <g id="text_13">
      <!-- 0.25 -->
      <g transform="translate(42.734375 154.099217) scale(0.1 -0.1)">
       <use xlink:href="#DejaVuSans-30"/>
       <use xlink:href="#DejaVuSans-2e" transform="translate(63.623047 0)"/>
       <use xlink:href="#DejaVuSans-32" transform="translate(95.410156 0)"/>
       <use xlink:href="#DejaVuSans-35" transform="translate(159.033203 0)"/>
      </g>
     </g>
    </g>
    <g id="ytick_7">
     <g id="line2d_13">
      <g>
       <use xlink:href="#m048944775f" x="72" y="118.79998" style="stroke: #000000; stroke-width: 0.8"/>
      </g>
     </g>
     <g id="text_14">
      <!-- 0.50 -->
      <g transform="translate(42.734375 122.599199) scale(0.1 -0.1)">
       <use xlink:href="#DejaVuSans-30"/>
       <use xlink:href="#DejaVuSans-2e" transform="translate(63.623047 0)"/>
       <use xlink:href="#DejaVuSans-35" transform="translate(95.410156 0)"/>
       <use xlink:href="#DejaVuSans-30" transform="translate(159.033203 0)"/>
      </g>
     </g>
    </g>
    <g id="ytick_8">
     <g id="line2d_14">
      <g>
       <use xlink:href="#m048944775f" x="72" y="87.299962" style="stroke: #000000; stroke-width: 0.8"/>
      </g>
     </g>
     <g id="text_15">
      <!-- 0.75 -->
      <g transform="translate(42.734375 91.099181) scale(0.1 -0.1)">
       <use xlink:href="#DejaVuSans-30"/>
       <use xlink:href="#DejaVuSans-2e" transform="translate(63.623047 0)"/>
       <use xlink:href="#DejaVuSans-37" transform="translate(95.410156 0)"/>
       <use xlink:href="#DejaVuSans-35" transform="translate(159.033203 0)"/>
      </g>
     </g>
    </g>
    <g id="ytick_9">
     <g id="line2d_15">
      <g>
       <use xlink:href="#m048944775f" x="72" y="55.799944" style="stroke: #000000; stroke-width: 0.8"/>
      </g>
     </g>
     <g id="text_16">
      <!-- 1.00 -->
      <g transform="translate(42.734375 59.599163) scale(0.1 -0.1)">
       <use xlink:href="#DejaVuSans-31"/>
       <use xlink:href="#DejaVuSans-2e" transform="translate(63.623047 0)"/>
       <use xlink:href="#DejaVuSans-30" transform="translate(95.410156 0)"/>
       <use xlink:href="#DejaVuSans-30" transform="translate(159.033203 0)"/>
      </g>
     </g>
    </g>
   </g>
   <g id="line2d_16">
    <path d="M 92.290909 181.800017 
L 93.509582 112.707574 
L 94.322031 78.055533 
L 94.728256 66.243272 
L 95.13448 58.742643 
L 95.540704 55.833509 
L 95.946929 57.624414 
L 96.353153 64.048537 
L 96.759378 74.866181 
L 97.571826 107.918662 
L 98.7905 175.985322 
L 100.009173 245.956325 
L 100.821622 282.13409 
L 101.227846 294.915798 
L 101.63407 303.47695 
L 102.040295 307.498115 
L 102.446519 306.829255 
L 102.852744 301.495327 
L 103.258968 291.695349 
L 104.071417 260.312857 
L 104.883866 217.321841 
L 106.914988 102.422488 
L 107.727437 71.366228 
L 108.133661 61.762794 
L 108.539885 56.638167 
L 108.94611 56.183556 
L 109.352334 60.415924 
L 109.758559 69.177354 
L 110.164783 82.140939 
L 110.977232 118.601058 
L 112.602129 212.781745 
L 113.414578 256.577218 
L 114.227027 289.316501 
L 114.633251 299.941754 
L 115.039476 306.158923 
L 115.4457 307.736036 
L 115.851925 304.614246 
L 116.258149 296.910034 
L 116.664373 284.910858 
L 117.476822 249.962007 
L 118.695495 180.690567 
L 119.914169 111.782478 
L 120.726618 77.429934 
L 121.132842 65.805503 
L 121.539066 58.509039 
L 121.945291 55.812785 
L 122.351515 57.817344 
L 122.75774 64.447922 
L 123.163964 75.457121 
L 123.976413 108.820237 
L 125.195086 177.093815 
L 126.413759 246.908699 
L 127.226208 282.801306 
L 127.632432 295.400145 
L 128.038657 303.760357 
L 128.444881 307.570007 
L 128.851106 306.68695 
L 129.25733 301.144134 
L 129.663554 291.148372 
L 130.476003 259.442082 
L 131.694676 192.311843 
L 133.319574 101.563954 
L 134.132023 70.836333 
L 134.538247 61.430188 
L 134.944472 56.515259 
L 135.350696 56.274933 
L 135.756921 60.718176 
L 136.163145 69.679203 
L 136.569369 82.823661 
L 137.381818 119.563306 
L 140.225389 275.425713 
L 140.631613 289.890814 
L 141.037838 300.32285 
L 141.444062 306.332584 
L 141.850287 307.695782 
L 142.256511 304.361579 
L 142.662735 296.454382 
L 143.06896 284.269222 
L 143.881409 249.026269 
L 145.100082 179.581204 
L 146.318755 110.862811 
L 147.131204 76.812427 
L 147.537428 65.376728 
L 147.943653 58.284994 
L 148.349877 55.80183 
L 148.756102 58.019888 
L 149.162326 64.856407 
L 149.56855 76.056305 
L 150.380999 109.72747 
L 151.599672 178.202673 
L 152.818346 247.856025 
L 153.630794 283.460691 
L 154.037019 295.875685 
L 154.443243 304.034308 
L 154.849468 307.632148 
L 155.255692 306.534962 
L 155.661916 300.783688 
L 156.068141 290.592917 
L 156.88059 258.565286 
L 158.099263 191.205854 
L 159.317936 120.76596 
L 160.130385 83.682877 
L 160.536609 70.315042 
L 160.942834 61.106914 
L 161.349058 56.402065 
L 161.755283 56.376042 
L 162.161507 61.029816 
L 162.567731 70.189746 
L 162.973956 83.514057 
L 163.786405 120.530379 
L 166.629975 276.164554 
L 167.0362 290.456746 
L 167.442424 300.694758 
L 167.848649 306.49659 
L 168.254873 307.645767 
L 168.661097 304.09941 
L 169.067322 295.98984 
L 169.473546 283.61964 
L 170.285995 248.085319 
L 171.504668 178.472012 
L 172.723342 109.948644 
L 173.53579 76.20306 
L 173.942015 64.95698 
L 174.348239 58.070526 
L 174.754464 55.800644 
L 175.160688 58.232028 
L 175.566912 65.273958 
L 175.973137 76.663688 
L 176.785586 110.640291 
L 178.004259 179.311809 
L 179.222932 248.798229 
L 180.035381 284.112195 
L 180.441605 296.342381 
L 180.84783 304.298782 
L 181.254054 307.684533 
L 181.660278 306.373303 
L 182.066503 300.414017 
L 182.472727 290.029027 
L 183.285176 257.682539 
L 184.503849 190.099135 
L 185.722523 119.797726 
L 186.534971 82.990625 
L 186.941196 69.802394 
L 187.34742 60.792998 
L 187.753645 56.298594 
L 188.159869 56.486876 
L 188.566093 61.350819 
L 188.972318 70.708941 
L 189.784767 101.356389 
L 190.597215 143.897838 
L 192.628337 259.229697 
L 193.440786 291.014254 
L 193.847011 301.057447 
L 194.253235 306.650928 
L 194.659459 307.585995 
L 195.065684 303.827759 
L 195.471908 295.516445 
L 195.878133 282.962164 
L 196.690581 247.13923 
L 197.909255 177.363078 
L 199.127928 109.040047 
L 199.940377 75.601881 
L 200.346601 64.546291 
L 200.752826 57.86565 
L 201.15905 55.809227 
L 201.565274 58.453749 
L 201.971499 65.700544 
L 202.377723 77.279222 
L 203.190172 111.558629 
L 204.408845 180.421139 
L 205.627518 249.735239 
L 206.439967 284.755766 
L 206.846192 296.800195 
L 207.252416 304.553759 
L 207.65864 307.727157 
L 208.064865 306.201985 
L 208.471089 300.035149 
L 208.877314 289.456745 
L 209.689762 256.793909 
L 210.908436 188.991773 
L 212.127109 118.834299 
L 212.939558 82.306035 
L 213.345782 69.29843 
L 213.752007 60.488464 
L 214.158231 56.204853 
L 214.564455 56.607425 
L 214.97068 61.681161 
L 215.376904 71.23675 
L 216.189353 102.213419 
L 217.001802 144.957372 
L 219.032924 260.10194 
L 219.845373 291.563294 
L 220.251597 301.41089 
L 220.657821 306.795586 
L 221.064046 307.516471 
L 221.47027 303.546646 
L 221.876495 295.034233 
L 222.282719 282.296845 
L 223.095168 246.188076 
L 224.720066 152.156689 
L 225.532514 108.137092 
L 226.344963 75.008935 
L 226.751188 64.144692 
L 227.157412 57.670384 
L 227.563636 55.827578 
L 227.969861 58.685033 
L 228.376085 66.136132 
L 228.78231 77.90286 
L 229.594758 112.482413 
L 230.813432 181.530576 
L 232.032105 250.666982 
L 232.844554 285.391354 
L 233.250778 297.249093 
L 233.657002 304.799218 
L 234.063227 307.760018 
L 234.469451 306.021022 
L 234.875676 299.647114 
L 235.2819 288.876117 
L 236.094349 255.899464 
L 237.313022 187.883853 
L 238.531695 117.875754 
L 239.344144 81.629158 
L 239.750369 68.803188 
L 240.156593 60.193335 
L 240.562817 56.120849 
L 240.969042 56.737681 
L 241.375266 62.020817 
L 241.781491 71.773132 
L 242.593939 103.076618 
L 243.406388 146.019762 
L 245.43751 260.968113 
L 246.249959 292.103824 
L 246.656183 301.755059 
L 247.062408 306.930553 
L 247.468632 307.4372 
L 247.874857 303.256094 
L 248.281081 294.543242 
L 248.687305 281.623734 
L 249.499754 245.231929 
L 251.124652 151.079529 
L 251.937101 107.239848 
L 252.74955 74.424268 
L 253.155774 63.752216 
L 253.561998 57.484741 
L 253.968223 55.855696 
L 254.374447 58.925862 
L 254.780672 66.580687 
L 255.186896 78.534554 
L 255.999345 113.411571 
L 257.218018 182.640033 
L 258.436691 251.593386 
L 259.24914 286.018911 
L 259.655364 297.689041 
L 260.061589 305.035141 
L 260.467813 307.783114 
L 260.874038 305.830428 
L 261.280262 299.249943 
L 261.686486 288.287187 
L 262.498935 254.999274 
L 263.717609 186.775462 
L 264.936282 116.922165 
L 265.748731 80.960048 
L 266.154955 68.316707 
L 266.561179 59.907635 
L 266.967404 56.04659 
L 267.373628 56.877633 
L 267.779853 62.369758 
L 268.186077 72.318043 
L 268.998526 103.945922 
L 270.217199 171.019713 
L 271.842097 261.828148 
L 272.654545 292.635801 
L 273.06077 302.089927 
L 273.466994 307.055818 
L 273.873219 307.348187 
L 274.279443 302.956126 
L 274.685667 294.043509 
L 275.091892 280.942884 
L 275.904341 244.270864 
L 277.529238 150.004751 
L 278.341687 106.348385 
L 279.154136 73.847927 
L 279.56036 63.368892 
L 279.966585 57.308737 
L 280.372809 55.893579 
L 280.779034 59.176218 
L 281.185258 67.034175 
L 281.591482 79.174254 
L 282.403931 114.346032 
L 283.622604 183.749426 
L 284.841278 252.514378 
L 285.653726 286.638387 
L 286.059951 298.120003 
L 286.466175 305.261509 
L 286.8724 307.796441 
L 287.278624 305.630218 
L 287.684848 298.843665 
L 288.091073 287.690001 
L 288.903522 254.093409 
L 290.122195 185.666684 
L 291.340868 115.973606 
L 292.153317 80.298756 
L 292.559541 67.839025 
L 292.965766 59.631386 
L 293.37199 55.98208 
L 293.778215 57.027271 
L 294.184439 62.72796 
L 294.590663 72.871444 
L 295.403112 104.821262 
L 296.621785 172.125512 
L 297.840459 242.598215 
L 298.652907 279.747889 
L 299.059132 293.159186 
L 299.465356 302.41547 
L 299.871581 307.171372 
L 300.277805 307.249441 
L 300.684029 302.646764 
L 301.090254 293.535074 
L 301.496478 280.254347 
L 302.308927 243.304955 
L 305.152498 87.614242 
L 305.558722 73.279956 
L 305.964947 62.99475 
L 306.371171 57.142385 
L 306.777396 55.941223 
L 307.18362 59.436082 
L 307.589844 67.496561 
L 307.996069 79.82191 
L 308.808518 115.285723 
L 310.027191 184.858667 
L 311.245864 253.429887 
L 312.058313 287.249735 
L 312.464537 298.541947 
L 312.870762 305.478304 
L 313.276986 307.8 
L 313.68321 305.420407 
L 314.089435 298.428313 
L 314.495659 287.084604 
L 315.308108 253.181938 
L 316.526781 184.557607 
L 317.745455 115.030151 
L 318.557903 79.645334 
L 318.964128 67.370179 
L 319.370352 59.364608 
L 319.776577 55.927326 
L 320.182801 57.186583 
L 320.589025 63.095393 
L 320.99525 73.433289 
L 321.807699 105.70257 
L 323.026372 173.232062 
L 324.245045 243.567605 
L 325.057494 280.441993 
L 325.463718 293.673936 
L 325.869943 302.731661 
L 326.276167 307.277206 
L 326.682391 307.140968 
L 327.088616 302.328032 
L 327.49484 293.017976 
L 328.307289 262.450842 
L 329.119738 219.959071 
L 331.15086 104.583076 
L 331.963309 72.720398 
L 332.369533 62.62982 
L 332.775758 56.985698 
L 333.181982 55.998626 
L 333.588206 59.705432 
L 333.994431 67.96781 
L 334.400655 80.477474 
L 335.213104 116.23057 
L 336.431777 185.967671 
L 337.65045 254.339843 
L 338.462899 287.852908 
L 338.869124 298.954839 
L 339.275348 305.685511 
L 339.681572 307.79379 
L 340.087797 305.201012 
L 340.494021 298.003918 
L 340.900246 286.471045 
L 341.712695 252.264933 
L 342.931368 183.448316 
L 344.150041 114.091873 
L 344.96249 78.999832 
L 345.368714 66.910204 
L 345.774939 59.107324 
L 346.181163 55.882331 
L 346.587387 57.355556 
L 346.993612 63.47203 
L 347.399836 74.003537 
L 348.212285 106.589778 
L 349.430958 174.339276 
L 350.649631 244.532206 
L 351.46208 281.128449 
L 351.868305 294.180013 
L 352.274529 303.038475 
L 352.680753 307.37331 
L 353.086978 307.022778 
L 353.493202 301.999956 
L 353.899427 292.492255 
L 354.711876 261.595321 
L 355.524324 218.900243 
L 357.555446 103.709368 
L 358.367895 72.169298 
L 358.77412 62.274129 
L 359.180344 56.838688 
L 359.586568 56.065782 
L 359.992793 59.984249 
L 360.399017 68.447884 
L 360.805242 81.140893 
L 361.61769 117.180502 
L 363.242588 211.181399 
L 364.055037 255.244175 
L 364.867486 288.447858 
L 365.27371 299.358648 
L 365.679934 305.883113 
L 366.086159 307.777811 
L 366.492383 304.972048 
L 366.898608 297.570514 
L 367.304832 285.849371 
L 368.117281 251.342465 
L 369.335954 182.338898 
L 370.554627 113.158844 
L 371.367076 78.362301 
L 371.773301 66.459137 
L 372.179525 58.859551 
L 372.585749 55.847098 
L 372.991974 57.534177 
L 373.398198 63.857841 
L 373.804423 74.582142 
L 374.616871 107.482817 
L 375.835545 175.447068 
L 377.054218 245.491944 
L 377.866667 281.807203 
L 378.272891 294.677377 
L 378.679115 303.33589 
L 379.08534 307.459679 
L 379.491564 306.894878 
L 379.897789 301.66256 
L 380.304013 291.957952 
L 381.116462 260.733613 
L 381.928911 217.838539 
L 383.960033 102.841715 
L 384.772482 71.626697 
L 385.178706 61.927705 
L 385.58493 56.701367 
L 385.991155 56.142687 
L 386.397379 60.27251 
L 386.803604 68.936746 
L 387.209828 81.812116 
L 388.022277 118.135443 
L 389.647174 212.259125 
L 390.459623 256.142813 
L 391.272072 289.034539 
L 391.678296 299.753343 
L 392.084521 306.071094 
L 392.490745 307.752065 
L 392.89697 304.733535 
L 393.303194 297.128133 
L 393.709419 285.219629 
L 394.521867 250.414605 
L 395.740541 181.229437 
L 396.959214 112.231137 
L 397.771663 77.732789 
L 398.177887 66.017013 
L 398.584111 58.621311 
L 398.990336 55.821631 
L 399.39656 57.722434 
L 399.802785 64.252797 
L 400.209009 75.16906 
L 401.021458 108.381618 
L 402.240131 176.555353 
L 403.458804 246.446743 
L 404.271253 282.478204 
L 404.677477 295.165989 
L 405.083702 303.623882 
L 405.489926 307.536306 
L 405.896151 306.75728 
L 406.302375 301.315871 
L 406.7086 291.415108 
L 407.521048 259.865786 
L 408.333497 216.774041 
L 410.364619 101.980183 
L 411.177068 71.092639 
L 411.583292 61.590575 
L 411.989517 56.573745 
L 412.395741 56.229334 
L 412.801966 60.570194 
L 413.20819 69.434359 
L 413.614414 82.491092 
L 414.426863 119.095321 
L 416.051761 213.334489 
L 416.86421 257.035686 
L 417.676658 289.612906 
L 418.082883 300.138892 
L 418.489107 306.24944 
L 418.895332 307.716553 
L 419.301556 304.485491 
L 419.707781 296.676811 
L 420.114005 284.581869 
L 420.926454 249.481426 
L 422.145127 180.120021 
L 423.3638 111.308824 
L 424.176249 77.111345 
L 424.582473 65.583865 
L 424.988698 58.392621 
L 425.394922 55.805931 
L 425.801147 57.92031 
L 426.207371 64.656866 
L 426.613595 75.764246 
L 427.426044 109.286111 
L 428.644717 177.664044 
L 429.863391 247.39653 
L 430.675839 283.1414 
L 431.082064 295.645811 
L 431.488288 303.902429 
L 431.894513 307.603184 
L 432.300737 306.609993 
L 432.706962 300.959916 
L 433.113186 290.863766 
L 433.925635 258.991906 
L 435.144308 191.743145 
L 436.362981 121.237957 
L 437.17543 84.021862 
L 437.581654 70.567163 
L 437.987879 61.262765 
L 438.394103 56.455832 
L 438.800328 56.325717 
L 439.206552 60.877277 
L 439.612776 69.940685 
L 440.019001 83.177767 
L 440.83145 120.06006 
L 443.67502 275.806599 
L 444.081245 290.182914 
L 444.487469 300.515267 
L 444.893694 306.418137 
L 445.299918 307.671279 
L 445.706143 304.227935 
L 446.112367 296.216583 
L 446.518591 283.93614 
L 447.33104 248.542999 
L 448.549713 179.010735 
L 449.768387 110.391977 
L 450.580835 76.498019 
L 450.98706 65.159728 
L 451.393284 58.173499 
L 451.799509 55.8 
L 452.205733 58.127791 
L 452.611957 65.070017 
L 453.018182 76.367652 
L 453.830631 110.196227 
L 455.049304 178.773056 
L 456.267977 248.341231 
L 457.080426 283.796738 
L 457.48665 296.116807 
L 457.892875 304.171509 
L 458.299099 307.660307 
L 458.705324 306.45303 
L 459.111548 300.594722 
L 459.517772 290.303967 
L 460.330221 258.112041 
L 461.548894 190.63677 
L 462.767568 120.267415 
L 463.580016 83.325908 
L 463.986241 70.050312 
L 464.392465 60.944301 
L 464.79869 56.347637 
L 465.204914 56.431829 
L 465.611138 61.193736 
L 466.017363 70.455682 
L 466.829812 100.942364 
L 467.64226 143.384263 
L 469.673382 258.803865 
L 470.485831 290.744519 
L 470.892056 300.882437 
L 471.29828 306.577172 
L 471.704505 307.616246 
L 472.110729 303.960887 
L 472.516953 295.747483 
L 472.923178 283.282493 
L 473.735627 247.599397 
L 474.9543 177.901666 
L 476.172973 109.480665 
L 476.985422 75.892857 
L 477.391646 64.744635 
L 477.797871 57.963962 
L 478.204095 55.803838 
L 478.610319 58.34486 
L 479.016544 65.492219 
L 479.422768 76.979233 
L 480.235217 111.111894 
L 481.45389 179.882303 
L 482.672563 249.280773 
L 483.485012 284.444168 
L 483.891237 296.578939 
L 484.297461 304.431101 
L 484.703686 307.707673 
L 485.10991 306.286402 
L 485.516134 300.220317 
L 485.922359 289.735756 
L 486.734808 257.22626 
L 487.953481 189.529709 
L 489.172154 119.301644 
L 489.984603 82.63759 
L 490.390827 69.542126 
L 490.797052 60.635207 
L 491.203276 56.249168 
L 491.6095 56.54766 
L 492.015725 61.519545 
L 492.421949 70.979313 
L 493.234398 101.796372 
L 494.046847 144.442379 
L 496.077969 259.679033 
L 496.890418 291.297677 
L 497.296642 301.240374 
L 497.702867 306.726534 
L 498.109091 307.551458 
L 498.109091 307.551458 
" clip-path="url(#pc0de22c9ef)" style="fill: none; stroke: #1f77b4; stroke-width: 1.5; stroke-linecap: square"/>
   </g>
   <g id="line2d_17">
    <path d="M 92.290909 181.800017 
L 106.784416 122.716549 
L 121.277922 77.429934 
L 135.771429 56.515259 
L 150.264935 64.856407 
L 164.758442 100.505597 
L 179.251948 155.138222 
L 193.745455 215.996766 
L 208.238961 268.86987 
L 222.732468 301.41089 
L 237.225974 306.021022 
L 251.719481 281.623734 
L 266.212987 233.916149 
L 280.706494 174.038686 
L 295.2 115.973606 
L 309.693506 73.279956 
L 324.187013 55.927326 
L 338.680519 67.96781 
L 353.174026 106.589778 
L 367.667532 162.774436 
L 382.161039 223.401845 
L 396.654545 274.31462 
L 411.148052 303.623882 
L 425.641558 304.485491 
L 440.135065 276.698249 
L 454.628571 226.750882 
L 469.122078 166.306831 
L 483.615584 109.480665 
L 498.109091 69.542126 
" clip-path="url(#pc0de22c9ef)" style="fill: none; stroke: #ff7f0e; stroke-width: 1.5; stroke-linecap: square"/>
   </g>
   <g id="patch_3">
    <path d="M 72 320.4 
L 72 43.2 
" style="fill: none; stroke: #000000; stroke-width: 0.8; stroke-linejoin: miter; stroke-linecap: square"/>
   </g>
   <g id="patch_4">
    <path d="M 518.4 320.4 
L 518.4 43.2 
" style="fill: none; stroke: #000000; stroke-width: 0.8; stroke-linejoin: miter; stroke-linecap: square"/>
   </g>
   <g id="patch_5">
    <path d="M 72 320.4 
L 518.4 320.4 
" style="fill: none; stroke: #000000; stroke-width: 0.8; stroke-linejoin: miter; stroke-linecap: square"/>
   </g>
   <g id="patch_6">
    <path d="M 72 43.2 
L 518.4 43.2 
" style="fill: none; stroke: #000000; stroke-width: 0.8; stroke-linejoin: miter; stroke-linecap: square"/>
   </g>
  </g>
 </g>
 <defs>
  <clipPath id="pc0de22c9ef">
   <rect x="72" y="43.2" width="446.4" height="277.2"/>
  </clipPath>
 </defs>
</svg>
