<svg version="1.1" viewBox="0.0 0.0 600.0 371.0" fill="none" stroke="none" stroke-linecap="square" stroke-miterlimit="10" width="600" height="371" xmlns:xlink="http://www.w3.org/1999/xlink" xmlns="http://www.w3.org/2000/svg"><path fill="#ffffff" d="M0 0L600.0 0L600.0 371.0L0 371.0L0 0Z" fill-rule="nonzero"/><path stroke="#cccccc" stroke-width="1.0" stroke-linecap="butt" d="M151.5 61.5L151.5 300.5" fill-rule="nonzero"/><path stroke="#cccccc" stroke-width="1.0" stroke-linecap="butt" d="M236.5 61.5L236.5 300.5" fill-rule="nonzero"/><path stroke="#cccccc" stroke-width="1.0" stroke-linecap="butt" d="M321.5 61.5L321.5 300.5" fill-rule="nonzero"/><path stroke="#cccccc" stroke-width="1.0" stroke-linecap="butt" d="M405.5 61.5L405.5 300.5" fill-rule="nonzero"/><path stroke="#cccccc" stroke-width="1.0" stroke-linecap="butt" d="M490.5 61.5L490.5 300.5" fill-rule="nonzero"/><path stroke="#cccccc" stroke-width="1.0" stroke-linecap="butt" d="M574.5 61.5L574.5 300.5" fill-rule="nonzero"/><path stroke="#333333" stroke-width="1.0" stroke-linecap="butt" d="M77.5 300.5L581.5 300.5" fill-rule="nonzero"/><path stroke="#cccccc" stroke-width="1.0" stroke-linecap="butt" d="M77.5 260.5L581.5 260.5" fill-rule="nonzero"/><path stroke="#cccccc" stroke-width="1.0" stroke-linecap="butt" d="M77.5 220.5L581.5 220.5" fill-rule="nonzero"/><path stroke="#cccccc" stroke-width="1.0" stroke-linecap="butt" d="M77.5 181.5L581.5 181.5" fill-rule="nonzero"/><path stroke="#cccccc" stroke-width="1.0" stroke-linecap="butt" d="M77.5 141.5L581.5 141.5" fill-rule="nonzero"/><path stroke="#cccccc" stroke-width="1.0" stroke-linecap="butt" d="M77.5 101.5L581.5 101.5" fill-rule="nonzero"/><path stroke="#cccccc" stroke-width="1.0" stroke-linecap="butt" d="M77.5 61.5L581.5 61.5" fill-rule="nonzero"/><clipPath id="id_0"><path d="M77.55 61.916668L581.45 61.916668L581.45 300.45L77.55 300.45L77.55 61.916668Z" clip-rule="nonzero"/></clipPath><path stroke="#ff9900" stroke-width="2.0" stroke-linecap="butt" clip-path="url(#id_0)" d="M84.36077 292.86618L84.36077 292.86618M118.17308 277.66638L118.17308 277.66638M236.51616 225.04362L236.51616 225.04362M574.6392 73.4908L574.6392 73.4908" fill-rule="nonzero"/><path stroke="#ff6d01" stroke-width="2.0" stroke-linecap="butt" stroke-opacity="0.4" clip-path="url(#id_0)" d="M0 330.65204L581.45 70.50179" fill-rule="nonzero"/><path fill="#ff9900" clip-path="url(#id_0)" d="M88.86077 292.86618C88.86077 295.35144 86.846054 297.36618 84.36077 297.36618C81.875496 297.36618 79.86077 295.35144 79.86077 292.86618C79.86077 290.3809 81.875496 288.36618 84.36077 288.36618C86.846054 288.36618 88.86077 290.3809 88.86077 292.86618Z" fill-rule="nonzero"/><path fill="#ff9900" clip-path="url(#id_0)" d="M122.67308 277.66638C122.67308 280.15167 120.65836 282.16638 118.17308 282.16638C115.6878 282.16638 113.67308 280.15167 113.67308 277.66638C113.67308 275.18112 115.6878 273.16638 118.17308 273.16638C120.65836 273.16638 122.67308 275.18112 122.67308 277.66638Z" fill-rule="nonzero"/><path fill="#ff9900" clip-path="url(#id_0)" d="M241.01616 225.04362C241.01616 227.52892 239.00143 229.54362 236.51616 229.54362C234.03087 229.54362 232.01616 227.52892 232.01616 225.04362C232.01616 222.55835 234.03087 220.54362 236.51616 220.54362C239.00143 220.54362 241.01616 222.55835 241.01616 225.04362Z" fill-rule="nonzero"/><path fill="#ff9900" clip-path="url(#id_0)" d="M579.1392 73.4908C579.1392 75.97608 577.1245 77.9908 574.6392 77.9908C572.15393 77.9908 570.1392 75.97608 570.1392 73.4908C570.1392 71.005516 572.15393 68.9908 574.6392 68.9908C577.1245 68.9908 579.1392 71.005516 579.1392 73.4908Z" fill-rule="nonzero"/><path fill="#000000" d="M259.92188 349.45L259.92188 340.85626L261.07812 340.85626L265.59375 347.60626L265.59375 340.85626L266.6875 340.85626L266.6875 349.45L265.51562 349.45L261.0 342.7L261.0 349.45L259.92188 349.45ZM272.875 349.45L272.875 348.52814Q272.14062 349.59064 270.89062 349.59064Q270.34375 349.59064 269.85938 349.3875Q269.39062 349.16876 269.15625 348.85626Q268.92188 348.52814 268.82812 348.0594Q268.76562 347.7625 268.76562 347.075L268.76562 343.23126L269.82812 343.23126L269.82812 346.6844Q269.82812 347.4969 269.89062 347.79376Q269.98438 348.2 270.29688 348.45Q270.625 348.6844 271.10938 348.6844Q271.57812 348.6844 271.98438 348.45Q272.40625 348.2 272.57812 347.77814Q272.76562 347.35626 272.76562 346.5594L272.76562 343.23126L273.8125 343.23126L273.8125 349.45L272.875 349.45ZM275.79688 349.45L275.79688 343.23126L276.73438 343.23126L276.73438 344.10626Q277.03125 343.6375 277.51562 343.3719Q278.0 343.09064 278.625 343.09064Q279.3125 343.09064 279.75 343.3719Q280.20312 343.65314 280.375 344.16876Q281.125 343.09064 282.29688 343.09064Q283.23438 343.09064 283.71875 343.60626Q284.21875 344.10626 284.21875 345.1844L284.21875 349.45L283.17188 349.45L283.17188 345.52814Q283.17188 344.90314 283.0625 344.6219Q282.96875 344.34064 282.70312 344.16876Q282.4375 343.9969 282.0625 343.9969Q281.40625 343.9969 280.96875 344.4344Q280.54688 344.8719 280.54688 345.84064L280.54688 349.45L279.48438 349.45L279.48438 345.40314Q279.48438 344.7 279.21875 344.35626Q278.96875 343.9969 278.39062 343.9969Q277.9375 343.9969 277.5625 344.23126Q277.1875 344.46564 277.01562 344.91876Q276.84375 345.3719 276.84375 346.21564L276.84375 349.45L275.79688 349.45ZM287.76562 349.45L286.78125 349.45L286.78125 340.85626L287.84375 340.85626L287.84375 343.91876Q288.51562 343.09064 289.54688 343.09064Q290.125 343.09064 290.625 343.325Q291.14062 343.54376 291.46875 343.96564Q291.8125 344.3875 292.0 344.98126Q292.1875 345.575 292.1875 346.2469Q292.1875 347.84064 291.39062 348.71564Q290.59375 349.59064 289.5 349.59064Q288.39062 349.59064 287.76562 348.66876L287.76562 349.45ZM287.75 346.29376Q287.75 347.40314 288.0625 347.90314Q288.5625 348.71564 289.40625 348.71564Q290.09375 348.71564 290.59375 348.1219Q291.10938 347.52814 291.10938 346.325Q291.10938 345.10626 290.625 344.52814Q290.14062 343.95 289.45312 343.95Q288.76562 343.95 288.25 344.5594Q287.75 345.15314 287.75 346.29376ZM298.04688 347.45L299.14062 347.575Q298.89062 348.52814 298.1875 349.0594Q297.48438 349.59064 296.40625 349.59064Q295.04688 349.59064 294.23438 348.7469Q293.4375 347.90314 293.4375 346.3875Q293.4375 344.825 294.25 343.96564Q295.0625 343.09064 296.34375 343.09064Q297.59375 343.09064 298.375 343.9344Q299.17188 344.77814 299.17188 346.325Q299.17188 346.41876 299.17188 346.60626L294.53125 346.60626Q294.59375 347.6375 295.10938 348.1844Q295.625 348.71564 296.40625 348.71564Q296.98438 348.71564 297.39062 348.41876Q297.8125 348.10626 298.04688 347.45ZM294.59375 345.7469L298.0625 345.7469Q298.0 344.95 297.67188 344.5594Q297.15625 343.95 296.35938 343.95Q295.625 343.95 295.125 344.4344Q294.64062 344.91876 294.59375 345.7469ZM300.78125 349.45L300.78125 343.23126L301.73438 343.23126L301.73438 344.16876Q302.09375 343.5125 302.39062 343.3094Q302.70312 343.09064 303.07812 343.09064Q303.60938 343.09064 304.15625 343.41876L303.79688 344.40314Q303.40625 344.16876 303.03125 344.16876Q302.67188 344.16876 302.39062 344.3875Q302.125 344.59064 302.01562 344.96564Q301.82812 345.52814 301.82812 346.1844L301.82812 349.45L300.78125 349.45ZM307.40625 346.34064Q307.40625 344.60626 308.35938 343.77814Q309.15625 343.09064 310.3125 343.09064Q311.59375 343.09064 312.40625 343.9344Q313.23438 344.7625 313.23438 346.2469Q313.23438 347.45 312.875 348.1375Q312.51562 348.825 311.8125 349.21564Q311.125 349.59064 310.3125 349.59064Q309.01562 349.59064 308.20312 348.7625Q307.40625 347.91876 307.40625 346.34064ZM308.48438 346.34064Q308.48438 347.52814 309.0 348.1219Q309.53125 348.71564 310.3125 348.71564Q311.10938 348.71564 311.625 348.1219Q312.14062 347.52814 312.14062 346.3094Q312.14062 345.15314 311.60938 344.5594Q311.09375 343.96564 310.3125 343.96564Q309.53125 343.96564 309.0 344.5594Q308.48438 345.1375 308.48438 346.34064ZM315.04688 349.45L315.04688 344.04376L314.10938 344.04376L314.10938 343.23126L315.04688 343.23126L315.04688 342.5594Q315.04688 341.9344 315.15625 341.6375Q315.3125 341.21564 315.6875 340.96564Q316.07812 340.71564 316.76562 340.71564Q317.21875 340.71564 317.75 340.825L317.59375 341.73126Q317.26562 341.6844 316.96875 341.6844Q316.48438 341.6844 316.28125 341.8875Q316.09375 342.09064 316.09375 342.65314L316.09375 343.23126L317.3125 343.23126L317.3125 344.04376L316.09375 344.04376L316.09375 349.45L315.04688 349.45ZM320.54688 346.6844L321.60938 346.59064Q321.6875 347.2469 321.96875 347.65314Q322.25 348.0594 322.82812 348.325Q323.42188 348.575 324.15625 348.575Q324.79688 348.575 325.29688 348.3875Q325.79688 348.1844 326.03125 347.85626Q326.28125 347.5125 326.28125 347.1219Q326.28125 346.71564 326.04688 346.41876Q325.8125 346.10626 325.28125 345.90314Q324.92188 345.7625 323.73438 345.48126Q322.5625 345.2 322.09375 344.95Q321.46875 344.6219 321.17188 344.15314Q320.875 343.66876 320.875 343.075Q320.875 342.4344 321.23438 341.8719Q321.60938 341.29376 322.3125 341.0125Q323.03125 340.71564 323.89062 340.71564Q324.84375 340.71564 325.57812 341.02814Q326.3125 341.325 326.70312 341.9344Q327.09375 342.52814 327.125 343.27814L326.03125 343.35626Q325.9375 342.54376 325.42188 342.1375Q324.92188 341.71564 323.9375 341.71564Q322.90625 341.71564 322.4375 342.09064Q321.96875 342.46564 321.96875 342.9969Q321.96875 343.46564 322.29688 343.7625Q322.625 344.0594 324.0 344.3719Q325.39062 344.6844 325.90625 344.91876Q326.65625 345.27814 327.01562 345.8094Q327.375 346.325 327.375 347.02814Q327.375 347.71564 326.98438 348.325Q326.59375 348.91876 325.85938 349.2625Q325.125 349.59064 324.20312 349.59064Q323.03125 349.59064 322.23438 349.2625Q321.45312 348.91876 321.0 348.23126Q320.5625 347.54376 320.54688 346.6844ZM328.79688 342.075L328.79688 340.85626L329.85938 340.85626L329.85938 342.075L328.79688 342.075ZM328.79688 349.45L328.79688 343.23126L329.85938 343.23126L329.85938 349.45L328.79688 349.45ZM331.59375 349.96564L332.625 350.1219Q332.6875 350.59064 332.98438 350.8094Q333.375 351.10626 334.04688 351.10626Q334.78125 351.10626 335.17188 350.8094Q335.57812 350.5125 335.71875 349.9969Q335.8125 349.66876 335.79688 348.6375Q335.10938 349.45 334.07812 349.45Q332.79688 349.45 332.09375 348.52814Q331.39062 347.59064 331.39062 346.3094Q331.39062 345.41876 331.70312 344.66876Q332.03125 343.90314 332.64062 343.4969Q333.25 343.09064 334.07812 343.09064Q335.1875 343.09064 335.90625 343.98126L335.90625 343.23126L336.875 343.23126L336.875 348.60626Q336.875 350.0594 336.57812 350.66876Q336.28125 351.27814 335.64062 351.6219Q335.0 351.98126 334.0625 351.98126Q332.95312 351.98126 332.26562 351.48126Q331.57812 350.98126 331.59375 349.96564ZM332.46875 346.23126Q332.46875 347.45 332.95312 348.0125Q333.4375 348.575 334.17188 348.575Q334.90625 348.575 335.39062 348.0125Q335.89062 347.45 335.89062 346.2625Q335.89062 345.1219 335.375 344.54376Q334.875 343.96564 334.15625 343.96564Q333.45312 343.96564 332.95312 344.54376Q332.46875 345.10626 332.46875 346.23126ZM338.79688 349.45L338.79688 343.23126L339.73438 343.23126L339.73438 344.10626Q340.42188 343.09064 341.71875 343.09064Q342.28125 343.09064 342.75 343.29376Q343.23438 343.4969 343.46875 343.825Q343.70312 344.15314 343.79688 344.59064Q343.84375 344.8875 343.84375 345.6219L343.84375 349.45L342.79688 349.45L342.79688 345.66876Q342.79688 345.0125 342.67188 344.7Q342.54688 344.3875 342.23438 344.2Q341.92188 343.9969 341.5 343.9969Q340.82812 343.9969 340.32812 344.4344Q339.84375 344.85626 339.84375 346.04376L339.84375 349.45L338.79688 349.45ZM349.85938 348.6844Q349.26562 349.1844 348.71875 349.3875Q348.1875 349.59064 347.5625 349.59064Q346.53125 349.59064 345.98438 349.09064Q345.4375 348.59064 345.4375 347.8094Q345.4375 347.35626 345.64062 346.98126Q345.84375 346.59064 346.1875 346.3719Q346.53125 346.1375 346.95312 346.02814Q347.25 345.9344 347.89062 345.85626Q349.15625 345.71564 349.76562 345.4969Q349.76562 345.27814 349.76562 345.23126Q349.76562 344.575 349.46875 344.3094Q349.0625 343.96564 348.26562 343.96564Q347.53125 343.96564 347.17188 344.23126Q346.8125 344.48126 346.64062 345.1375L345.60938 344.9969Q345.75 344.34064 346.07812 343.9344Q346.40625 343.52814 347.01562 343.3094Q347.625 343.09064 348.42188 343.09064Q349.21875 343.09064 349.71875 343.27814Q350.21875 343.46564 350.45312 343.7469Q350.6875 344.02814 350.78125 344.46564Q350.82812 344.73126 350.82812 345.4344L350.82812 346.84064Q350.82812 348.3094 350.89062 348.7Q350.96875 349.09064 351.17188 349.45L350.0625 349.45Q349.90625 349.1219 349.85938 348.6844ZM349.76562 346.325Q349.1875 346.5594 348.04688 346.73126Q347.39062 346.825 347.125 346.95Q346.85938 347.0594 346.70312 347.27814Q346.5625 347.4969 346.5625 347.77814Q346.5625 348.2 346.875 348.48126Q347.20312 348.7625 347.8125 348.7625Q348.42188 348.7625 348.89062 348.4969Q349.375 348.23126 349.59375 347.7625Q349.76562 347.40314 349.76562 346.71564L349.76562 346.325ZM352.76562 349.45L352.76562 340.85626L353.82812 340.85626L353.82812 349.45L352.76562 349.45ZM355.375 347.59064L356.40625 347.4344Q356.5 348.0594 356.89062 348.3875Q357.29688 348.71564 358.03125 348.71564Q358.75 348.71564 359.09375 348.4344Q359.45312 348.1375 359.45312 347.73126Q359.45312 347.3719 359.14062 347.16876Q358.92188 347.02814 358.0625 346.8094Q356.90625 346.5125 356.45312 346.3094Q356.01562 346.09064 355.78125 345.71564Q355.54688 345.34064 355.54688 344.8719Q355.54688 344.46564 355.73438 344.10626Q355.92188 343.7469 356.25 343.5125Q356.5 343.34064 356.92188 343.21564Q357.34375 343.09064 357.84375 343.09064Q358.5625 343.09064 359.10938 343.3094Q359.67188 343.5125 359.9375 343.8719Q360.20312 344.23126 360.29688 344.825L359.26562 344.96564Q359.20312 344.4969 358.85938 344.23126Q358.53125 343.95 357.90625 343.95Q357.1875 343.95 356.875 344.2Q356.5625 344.4344 356.5625 344.7625Q356.5625 344.96564 356.6875 345.1219Q356.82812 345.29376 357.09375 345.40314Q357.25 345.46564 358.03125 345.66876Q359.15625 345.98126 359.59375 346.16876Q360.03125 346.35626 360.28125 346.71564Q360.53125 347.075 360.53125 347.6219Q360.53125 348.15314 360.21875 348.6219Q359.92188 349.075 359.34375 349.34064Q358.76562 349.59064 358.03125 349.59064Q356.8125 349.59064 356.17188 349.09064Q355.54688 348.575 355.375 347.59064ZM364.98438 349.45L368.28125 340.85626L369.5 340.85626L373.01562 349.45L371.73438 349.45L370.71875 346.84064L367.14062 346.84064L366.1875 349.45L364.98438 349.45ZM367.46875 345.91876L370.375 345.91876L369.48438 343.54376Q369.0625 342.46564 368.875 341.7625Q368.70312 342.59064 368.40625 343.40314L367.46875 345.91876ZM376.82812 349.45L376.82812 348.66876Q376.23438 349.59064 375.09375 349.59064Q374.34375 349.59064 373.71875 349.1844Q373.09375 348.7625 372.75 348.02814Q372.40625 347.29376 372.40625 346.34064Q372.40625 345.41876 372.71875 344.65314Q373.03125 343.8875 373.65625 343.4969Q374.28125 343.09064 375.04688 343.09064Q375.60938 343.09064 376.04688 343.325Q376.48438 343.5594 376.76562 343.9344L376.76562 340.85626L377.8125 340.85626L377.8125 349.45L376.82812 349.45ZM373.5 346.34064Q373.5 347.54376 374.0 348.1375Q374.5 348.71564 375.1875 348.71564Q375.875 348.71564 376.35938 348.15314Q376.84375 347.59064 376.84375 346.4344Q376.84375 345.15314 376.34375 344.5594Q375.85938 343.96564 375.14062 343.96564Q374.4375 343.96564 373.96875 344.54376Q373.5 345.10626 373.5 346.34064ZM383.82812 349.45L383.82812 348.66876Q383.23438 349.59064 382.09375 349.59064Q381.34375 349.59064 380.71875 349.1844Q380.09375 348.7625 379.75 348.02814Q379.40625 347.29376 379.40625 346.34064Q379.40625 345.41876 379.71875 344.65314Q380.03125 343.8875 380.65625 343.4969Q381.28125 343.09064 382.04688 343.09064Q382.60938 343.09064 383.04688 343.325Q383.48438 343.5594 383.76562 343.9344L383.76562 340.85626L384.8125 340.85626L384.8125 349.45L383.82812 349.45ZM380.5 346.34064Q380.5 347.54376 381.0 348.1375Q381.5 348.71564 382.1875 348.71564Q382.875 348.71564 383.35938 348.15314Q383.84375 347.59064 383.84375 346.4344Q383.84375 345.15314 383.34375 344.5594Q382.85938 343.96564 382.14062 343.96564Q381.4375 343.96564 380.96875 344.54376Q380.5 345.10626 380.5 346.34064ZM391.04688 347.45L392.14062 347.575Q391.89062 348.52814 391.1875 349.0594Q390.48438 349.59064 389.40625 349.59064Q388.04688 349.59064 387.23438 348.7469Q386.4375 347.90314 386.4375 346.3875Q386.4375 344.825 387.25 343.96564Q388.0625 343.09064 389.34375 343.09064Q390.59375 343.09064 391.375 343.9344Q392.17188 344.77814 392.17188 346.325Q392.17188 346.41876 392.17188 346.60626L387.53125 346.60626Q387.59375 347.6375 388.10938 348.1844Q388.625 348.71564 389.40625 348.71564Q389.98438 348.71564 390.39062 348.41876Q390.8125 348.10626 391.04688 347.45ZM387.59375 345.7469L391.0625 345.7469Q391.0 344.95 390.67188 344.5594Q390.15625 343.95 389.35938 343.95Q388.625 343.95 388.125 344.4344Q387.64062 344.91876 387.59375 345.7469ZM397.82812 349.45L397.82812 348.66876Q397.23438 349.59064 396.09375 349.59064Q395.34375 349.59064 394.71875 349.1844Q394.09375 348.7625 393.75 348.02814Q393.40625 347.29376 393.40625 346.34064Q393.40625 345.41876 393.71875 344.65314Q394.03125 343.8875 394.65625 343.4969Q395.28125 343.09064 396.04688 343.09064Q396.60938 343.09064 397.04688 343.325Q397.48438 343.5594 397.76562 343.9344L397.76562 340.85626L398.8125 340.85626L398.8125 349.45L397.82812 349.45ZM394.5 346.34064Q394.5 347.54376 395.0 348.1375Q395.5 348.71564 396.1875 348.71564Q396.875 348.71564 397.35938 348.15314Q397.84375 347.59064 397.84375 346.4344Q397.84375 345.15314 397.34375 344.5594Q396.85938 343.96564 396.14062 343.96564Q395.4375 343.96564 394.96875 344.54376Q394.5 345.10626 394.5 346.34064Z" fill-rule="nonzero"/><path fill="#000000" d="M29.550013 254.29271L20.956263 254.29271L20.956263 252.57396L27.034388 250.54271Q27.893763 250.26146 28.315638 250.13646Q27.846888 249.99583 26.940638 249.68333L20.956263 247.62083L20.956263 246.08958L29.550013 246.08958L29.550013 247.18333L22.362513 247.18333L29.550013 249.68333L29.550013 250.71458L22.237513 253.19896L29.550013 253.19896L29.550013 254.29271ZM27.550013 241.13646L27.675013 240.04271Q28.628138 240.29271 29.159388 240.99583Q29.690638 241.69896 29.690638 242.77708Q29.690638 244.13646 28.846888 244.94896Q28.003138 245.74583 26.487513 245.74583Q24.925013 245.74583 24.065638 244.93333Q23.190638 244.12083 23.190638 242.83958Q23.190638 241.58958 24.034388 240.80833Q24.878138 240.01146 26.425013 240.01146Q26.518763 240.01146 26.706263 240.01146L26.706263 244.65208Q27.737513 244.58958 28.284388 244.07396Q28.815638 243.55833 28.815638 242.77708Q28.815638 242.19896 28.518763 241.79271Q28.206263 241.37083 27.550013 241.13646ZM25.846888 244.58958L25.846888 241.12083Q25.050013 241.18333 24.659388 241.51146Q24.050013 242.02708 24.050013 242.82396Q24.050013 243.55833 24.534388 244.05833Q25.018763 244.54271 25.846888 244.58958ZM28.784388 234.32396Q29.284388 234.91771 29.487513 235.46458Q29.690638 235.99583 29.690638 236.62083Q29.690638 237.65208 29.190638 238.19896Q28.690638 238.74583 27.909388 238.74583Q27.456263 238.74583 27.081263 238.54271Q26.690638 238.33958 26.471888 237.99583Q26.237513 237.65208 26.128138 237.23021Q26.034388 236.93333 25.956263 236.29271Q25.815638 235.02708 25.596888 234.41771Q25.378138 234.41771 25.331263 234.41771Q24.675013 234.41771 24.409388 234.71458Q24.065638 235.12083 24.065638 235.91771Q24.065638 236.65208 24.331263 237.01146Q24.581263 237.37083 25.237513 237.54271L25.096888 238.57396Q24.440638 238.43333 24.034388 238.10521Q23.628138 237.77708 23.409388 237.16771Q23.190638 236.55833 23.190638 235.76146Q23.190638 234.96458 23.378138 234.46458Q23.565638 233.96458 23.846888 233.73021Q24.128138 233.49583 24.565638 233.40208Q24.831263 233.35521 25.534388 233.35521L26.940638 233.35521Q28.409388 233.35521 28.800013 233.29271Q29.190638 233.21458 29.550013 233.01146L29.550013 234.12083Q29.221888 234.27708 28.784388 234.32396ZM26.425013 234.41771Q26.659388 234.99583 26.831263 236.13646Q26.925013 236.79271 27.050013 237.05833Q27.159388 237.32396 27.378138 237.48021Q27.596888 237.62083 27.878138 237.62083Q28.300013 237.62083 28.581263 237.30833Q28.862513 236.98021 28.862513 236.37083Q28.862513 235.76146 28.596888 235.29271Q28.331263 234.80833 27.862513 234.58958Q27.503138 234.41771 26.815638 234.41771L26.425013 234.41771ZM29.550013 231.38646L23.331263 231.38646L23.331263 230.44896L24.206263 230.44896Q23.190638 229.76146 23.190638 228.46458Q23.190638 227.90208 23.393763 227.43333Q23.596888 226.94896 23.925013 226.71458Q24.253138 226.48021 24.690638 226.38646Q24.987513 226.33958 25.721888 226.33958L29.550013 226.33958L29.550013 227.38646L25.768763 227.38646Q25.112513 227.38646 24.800013 227.51146Q24.487513 227.63646 24.300013 227.94896Q24.096888 228.26146 24.096888 228.68333Q24.096888 229.35521 24.534388 229.85521Q24.956263 230.33958 26.143763 230.33958L29.550013 230.33958L29.550013 231.38646ZM26.440638 221.77708Q24.706263 221.77708 23.878138 220.82396Q23.190638 220.02708 23.190638 218.87083Q23.190638 217.58958 24.034388 216.77708Q24.862513 215.94896 26.346888 215.94896Q27.550013 215.94896 28.237513 216.30833Q28.925013 216.66771 29.315638 217.37083Q29.690638 218.05833 29.690638 218.87083Q29.690638 220.16771 28.862513 220.98021Q28.018763 221.77708 26.440638 221.77708ZM26.440638 220.69896Q27.628138 220.69896 28.221888 220.18333Q28.815638 219.65208 28.815638 218.87083Q28.815638 218.07396 28.221888 217.55833Q27.628138 217.04271 26.409388 217.04271Q25.253138 217.04271 24.659388 217.57396Q24.065638 218.08958 24.065638 218.87083Q24.065638 219.65208 24.659388 220.18333Q25.237513 220.69896 26.440638 220.69896ZM29.550013 214.13646L24.143763 214.13646L24.143763 215.07396L23.331263 215.07396L23.331263 214.13646L22.659388 214.13646Q22.034388 214.13646 21.737513 214.02708Q21.315638 213.87083 21.065638 213.49583Q20.815638 213.10521 20.815638 212.41771Q20.815638 211.96458 20.925013 211.43333L21.831263 211.58958Q21.784388 211.91771 21.784388 212.21458Q21.784388 212.69896 21.987513 212.90208Q22.190638 213.08958 22.753138 213.08958L23.331263 213.08958L23.331263 211.87083L24.143763 211.87083L24.143763 213.08958L29.550013 213.08958L29.550013 214.13646ZM26.784388 208.63646L26.690638 207.57396Q27.346888 207.49583 27.753138 207.21458Q28.159388 206.93333 28.425013 206.35521Q28.675013 205.76146 28.675013 205.02708Q28.675013 204.38646 28.487513 203.88646Q28.284388 203.38646 27.956263 203.15208Q27.612513 202.90208 27.221888 202.90208Q26.815638 202.90208 26.518763 203.13646Q26.206263 203.37083 26.003138 203.90208Q25.862513 204.26146 25.581263 205.44896Q25.300013 206.62083 25.050013 207.08958Q24.721888 207.71458 24.253138 208.01146Q23.768763 208.30833 23.175013 208.30833Q22.534388 208.30833 21.971888 207.94896Q21.393763 207.57396 21.112513 206.87083Q20.815638 206.15208 20.815638 205.29271Q20.815638 204.33958 21.128138 203.60521Q21.425013 202.87083 22.034388 202.48021Q22.628138 202.08958 23.378138 202.05833L23.456263 203.15208Q22.643763 203.24583 22.237513 203.76146Q21.815638 204.26146 21.815638 205.24583Q21.815638 206.27708 22.190638 206.74583Q22.565638 207.21458 23.096888 207.21458Q23.565638 207.21458 23.862513 206.88646Q24.159388 206.55833 24.471888 205.18333Q24.784388 203.79271 25.018763 203.27708Q25.378138 202.52708 25.909388 202.16771Q26.425013 201.80833 27.128138 201.80833Q27.815638 201.80833 28.425013 202.19896Q29.018763 202.58958 29.362513 203.32396Q29.690638 204.05833 29.690638 204.98021Q29.690638 206.15208 29.362513 206.94896Q29.018763 207.73021 28.331263 208.18333Q27.643763 208.62083 26.784388 208.63646ZM29.550013 196.30833L28.628138 196.30833Q29.690638 197.04271 29.690638 198.29271Q29.690638 198.83958 29.487513 199.32396Q29.268763 199.79271 28.956263 200.02708Q28.628138 200.26146 28.159388 200.35521Q27.862513 200.41771 27.175013 200.41771L23.331263 200.41771L23.331263 199.35521L26.784388 199.35521Q27.596888 199.35521 27.893763 199.29271Q28.300013 199.19896 28.550013 198.88646Q28.784388 198.55833 28.784388 198.07396Q28.784388 197.60521 28.550013 197.19896Q28.300013 196.77708 27.878138 196.60521Q27.456263 196.41771 26.659388 196.41771L23.331263 196.41771L23.331263 195.37083L29.550013 195.37083L29.550013 196.30833ZM29.550013 193.38646L23.331263 193.38646L23.331263 192.44896L24.206263 192.44896Q23.737513 192.15208 23.471888 191.66771Q23.190638 191.18333 23.190638 190.55833Q23.190638 189.87083 23.471888 189.43333Q23.753138 188.98021 24.268763 188.80833Q23.190638 188.05833 23.190638 186.88646Q23.190638 185.94896 23.706263 185.46458Q24.206263 184.96458 25.284388 184.96458L29.550013 184.96458L29.550013 186.01146L25.628138 186.01146Q25.003138 186.01146 24.721888 186.12083Q24.440638 186.21458 24.268763 186.48021Q24.096888 186.74583 24.096888 187.12083Q24.096888 187.77708 24.534388 188.21458Q24.971888 188.63646 25.940638 188.63646L29.550013 188.63646L29.550013 189.69896L25.503138 189.69896Q24.800013 189.69896 24.456263 189.96458Q24.096888 190.21458 24.096888 190.79271Q24.096888 191.24583 24.331263 191.62083Q24.565638 191.99583 25.018763 192.16771Q25.471888 192.33958 26.315638 192.33958L29.550013 192.33958L29.550013 193.38646ZM29.550013 182.38646L23.331263 182.38646L23.331263 181.44896L24.206263 181.44896Q23.737513 181.15208 23.471888 180.66771Q23.190638 180.18333 23.190638 179.55833Q23.190638 178.87083 23.471888 178.43333Q23.753138 177.98021 24.268763 177.80833Q23.190638 177.05833 23.190638 175.88646Q23.190638 174.94896 23.706263 174.46458Q24.206263 173.96458 25.284388 173.96458L29.550013 173.96458L29.550013 175.01146L25.628138 175.01146Q25.003138 175.01146 24.721888 175.12083Q24.440638 175.21458 24.268763 175.48021Q24.096888 175.74583 24.096888 176.12083Q24.096888 176.77708 24.534388 177.21458Q24.971888 177.63646 25.940638 177.63646L29.550013 177.63646L29.550013 178.69896L25.503138 178.69896Q24.800013 178.69896 24.456263 178.96458Q24.096888 179.21458 24.096888 179.79271Q24.096888 180.24583 24.331263 180.62083Q24.565638 180.99583 25.018763 181.16771Q25.471888 181.33958 26.315638 181.33958L29.550013 181.33958L29.550013 182.38646ZM27.550013 167.13646L27.675013 166.04271Q28.628138 166.29271 29.159388 166.99583Q29.690638 167.69896 29.690638 168.77708Q29.690638 170.13646 28.846888 170.94896Q28.003138 171.74583 26.487513 171.74583Q24.925013 171.74583 24.065638 170.93333Q23.190638 170.12083 23.190638 168.83958Q23.190638 167.58958 24.034388 166.80833Q24.878138 166.01146 26.425013 166.01146Q26.518763 166.01146 26.706263 166.01146L26.706263 170.65208Q27.737513 170.58958 28.284388 170.07396Q28.815638 169.55833 28.815638 168.77708Q28.815638 168.19896 28.518763 167.79271Q28.206263 167.37083 27.550013 167.13646ZM25.846888 170.58958L25.846888 167.12083Q25.050013 167.18333 24.659388 167.51146Q24.050013 168.02708 24.050013 168.82396Q24.050013 169.55833 24.534388 170.05833Q25.018763 170.54271 25.846888 170.58958ZM29.550013 160.35521L28.768763 160.35521Q29.690638 160.94896 29.690638 162.08958Q29.690638 162.83958 29.284388 163.46458Q28.862513 164.08958 28.128138 164.43333Q27.393763 164.77708 26.440638 164.77708Q25.518763 164.77708 24.753138 164.46458Q23.987513 164.15208 23.596888 163.52708Q23.190638 162.90208 23.190638 162.13646Q23.190638 161.57396 23.425013 161.13646Q23.659388 160.69896 24.034388 160.41771L20.956263 160.41771L20.956263 159.37083L29.550013 159.37083L29.550013 160.35521ZM26.440638 163.68333Q27.643763 163.68333 28.237513 163.18333Q28.815638 162.68333 28.815638 161.99583Q28.815638 161.30833 28.253138 160.82396Q27.690638 160.33958 26.534388 160.33958Q25.253138 160.33958 24.659388 160.83958Q24.065638 161.32396 24.065638 162.04271Q24.065638 162.74583 24.643763 163.21458Q25.206263 163.68333 26.440638 163.68333ZM26.784388 154.63646L26.690638 153.57396Q27.346888 153.49583 27.753138 153.21458Q28.159388 152.93333 28.425013 152.35521Q28.675013 151.76146 28.675013 151.02708Q28.675013 150.38646 28.487513 149.88646Q28.284388 149.38646 27.956263 149.15208Q27.612513 148.90208 27.221888 148.90208Q26.815638 148.90208 26.518763 149.13646Q26.206263 149.37083 26.003138 149.90208Q25.862513 150.26146 25.581263 151.44896Q25.300013 152.62083 25.050013 153.08958Q24.721888 153.71458 24.253138 154.01146Q23.768763 154.30833 23.175013 154.30833Q22.534388 154.30833 21.971888 153.94896Q21.393763 153.57396 21.112513 152.87083Q20.815638 152.15208 20.815638 151.29271Q20.815638 150.33958 21.128138 149.60521Q21.425013 148.87083 22.034388 148.48021Q22.628138 148.08958 23.378138 148.05833L23.456263 149.15208Q22.643763 149.24583 22.237513 149.76146Q21.815638 150.26146 21.815638 151.24583Q21.815638 152.27708 22.190638 152.74583Q22.565638 153.21458 23.096888 153.21458Q23.565638 153.21458 23.862513 152.88646Q24.159388 152.55833 24.471888 151.18333Q24.784388 149.79271 25.018763 149.27708Q25.378138 148.52708 25.909388 148.16771Q26.425013 147.80833 27.128138 147.80833Q27.815638 147.80833 28.425013 148.19896Q29.018763 148.58958 29.362513 149.32396Q29.690638 150.05833 29.690638 150.98021Q29.690638 152.15208 29.362513 152.94896Q29.018763 153.73021 28.331263 154.18333Q27.643763 154.62083 26.784388 154.63646ZM22.175013 146.38646L20.956263 146.38646L20.956263 145.32396L22.175013 145.32396L22.175013 146.38646ZM29.550013 146.38646L23.331263 146.38646L23.331263 145.32396L29.550013 145.32396L29.550013 146.38646ZM30.065638 143.58958L30.221888 142.55833Q30.690638 142.49583 30.909388 142.19896Q31.206263 141.80833 31.206263 141.13646Q31.206263 140.40208 30.909388 140.01146Q30.612513 139.60521 30.096888 139.46458Q29.768763 139.37083 28.737513 139.38646Q29.550013 140.07396 29.550013 141.10521Q29.550013 142.38646 28.628138 143.08958Q27.690638 143.79271 26.409388 143.79271Q25.518763 143.79271 24.768763 143.48021Q24.003138 143.15208 23.596888 142.54271Q23.190638 141.93333 23.190638 141.10521Q23.190638 139.99583 24.081263 139.27708L23.331263 139.27708L23.331263 138.30833L28.706263 138.30833Q30.159388 138.30833 30.768763 138.60521Q31.378138 138.90208 31.721888 139.54271Q32.08126 140.18333 32.08126 141.12083Q32.08126 142.23021 31.581263 142.91771Q31.081263 143.60521 30.065638 143.58958ZM26.331263 142.71458Q27.550013 142.71458 28.112513 142.23021Q28.675013 141.74583 28.675013 141.01146Q28.675013 140.27708 28.112513 139.79271Q27.550013 139.29271 26.362513 139.29271Q25.221888 139.29271 24.643763 139.80833Q24.065638 140.30833 24.065638 141.02708Q24.065638 141.73021 24.643763 142.23021Q25.206263 142.71458 26.331263 142.71458ZM29.550013 136.38646L23.331263 136.38646L23.331263 135.44896L24.206263 135.44896Q23.190638 134.76146 23.190638 133.46458Q23.190638 132.90208 23.393763 132.43333Q23.596888 131.94896 23.925013 131.71458Q24.253138 131.48021 24.690638 131.38646Q24.987513 131.33958 25.721888 131.33958L29.550013 131.33958L29.550013 132.38646L25.768763 132.38646Q25.112513 132.38646 24.800013 132.51146Q24.487513 132.63646 24.300013 132.94896Q24.096888 133.26146 24.096888 133.68333Q24.096888 134.35521 24.534388 134.85521Q24.956263 135.33958 26.143763 135.33958L29.550013 135.33958L29.550013 136.38646ZM28.784388 125.32396Q29.284388 125.91771 29.487513 126.464584Q29.690638 126.995834 29.690638 127.620834Q29.690638 128.65208 29.190638 129.19896Q28.690638 129.74583 27.909388 129.74583Q27.456263 129.74583 27.081263 129.54271Q26.690638 129.33958 26.471888 128.99583Q26.237513 128.65208 26.128138 128.23021Q26.034388 127.933334 25.956263 127.29271Q25.815638 126.027084 25.596888 125.41771Q25.378138 125.41771 25.331263 125.41771Q24.675013 125.41771 24.409388 125.714584Q24.065638 126.120834 24.065638 126.91771Q24.065638 127.652084 24.331263 128.01146Q24.581263 128.37083 25.237513 128.54271L25.096888 129.57396Q24.440638 129.43333 24.034388 129.10521Q23.628138 128.77708 23.409388 128.16771Q23.190638 127.558334 23.190638 126.76146Q23.190638 125.964584 23.378138 125.464584Q23.565638 124.964584 23.846888 124.73021Q24.128138 124.495834 24.565638 124.402084Q24.831263 124.35521 25.534388 124.35521L26.940638 124.35521Q28.409388 124.35521 28.800013 124.29271Q29.190638 124.214584 29.550013 124.01146L29.550013 125.120834Q29.221888 125.277084 28.784388 125.32396ZM26.425013 125.41771Q26.659388 125.995834 26.831263 127.13646Q26.925013 127.79271 27.050013 128.05833Q27.159388 128.32396 27.378138 128.48021Q27.596888 128.62083 27.878138 128.62083Q28.300013 128.62083 28.581263 128.30833Q28.862513 127.98021 28.862513 127.370834Q28.862513 126.76146 28.596888 126.29271Q28.331263 125.808334 27.862513 125.589584Q27.503138 125.41771 26.815638 125.41771L26.425013 125.41771ZM29.550013 122.41771L20.956263 122.41771L20.956263 121.35521L29.550013 121.35521L29.550013 122.41771Z" fill-rule="nonzero"/><path fill="#000000" d="M65.05 300.21564Q65.05 298.6844 65.3625 297.7625Q65.675 296.825 66.28438 296.325Q66.90938 295.825 67.84688 295.825Q68.53438 295.825 69.05 296.10626Q69.58125 296.3875 69.925 296.91876Q70.26875 297.4344 70.45625 298.1844Q70.64375 298.9344 70.64375 300.21564Q70.64375 301.73126 70.33125 302.65314Q70.03438 303.575 69.40938 304.09064Q68.8 304.59064 67.84688 304.59064Q66.6125 304.59064 65.89375 303.7Q65.05 302.6375 65.05 300.21564ZM66.12813 300.21564Q66.12813 302.325 66.62813 303.02814Q67.12813 303.73126 67.84688 303.73126Q68.58125 303.73126 69.06563 303.02814Q69.56563 302.325 69.56563 300.21564Q69.56563 298.09064 69.06563 297.40314Q68.58125 296.7 67.83125 296.7Q67.1125 296.7 66.675 297.3094Q66.12813 298.09064 66.12813 300.21564Z" fill-rule="nonzero"/><path fill="#000000" d="M70.59688 263.67883L70.59688 264.69446L64.90938 264.69446Q64.90938 264.31946 65.03438 263.96008Q65.25313 263.38196 65.72188 262.81946Q66.20625 262.25696 67.1125 261.52258Q68.51875 260.36633 69.00313 259.69446Q69.50313 259.02258 69.50313 258.42883Q69.50313 257.80383 69.05 257.38196Q68.59688 256.94446 67.87813 256.94446Q67.1125 256.94446 66.65938 257.39758Q66.20625 257.8507 66.19063 258.6632L65.1125 258.55383Q65.22188 257.33508 65.94063 256.71008Q66.675 256.06946 67.90938 256.06946Q69.14375 256.06946 69.8625 256.75696Q70.58125 257.44446 70.58125 258.46008Q70.58125 258.9757 70.3625 259.4757Q70.15938 259.96008 69.65938 260.52258Q69.175 261.06946 68.05 262.02258Q67.09688 262.81946 66.81563 263.11633Q66.55 263.39758 66.37813 263.67883L70.59688 263.67883Z" fill-rule="nonzero"/><path fill="#000000" d="M68.425 224.93889L68.425 222.87639L64.70625 222.87639L64.70625 221.90764L68.62813 216.34514L69.4875 216.34514L69.4875 221.90764L70.64375 221.90764L70.64375 222.87639L69.4875 222.87639L69.4875 224.93889L68.425 224.93889ZM68.425 221.90764L68.425 218.04826L65.7375 221.90764L68.425 221.90764Z" fill-rule="nonzero"/><path fill="#000000" d="M70.51875 178.69896L69.47188 178.77708Q69.33125 178.15208 69.08125 177.87083Q68.64375 177.41771 68.01875 177.41771Q67.51875 177.41771 67.12813 177.69896Q66.64375 178.07396 66.34688 178.77708Q66.06563 179.46458 66.05 180.74583Q66.425 180.16771 66.97188 179.88646Q67.53438 179.60521 68.14375 179.60521Q69.19063 179.60521 69.925 180.38646Q70.675 181.16771 70.675 182.38646Q70.675 183.19896 70.31563 183.90208Q69.97188 184.58958 69.3625 184.96458Q68.75313 185.32396 67.9875 185.32396Q66.65938 185.32396 65.83125 184.35521Q65.00313 183.38646 65.00313 181.16771Q65.00313 178.66771 65.925 177.54271Q66.72188 176.55833 68.08125 176.55833Q69.09688 176.55833 69.7375 177.13646Q70.39375 177.69896 70.51875 178.69896ZM66.22188 182.40208Q66.22188 182.94896 66.44063 183.44896Q66.675 183.93333 67.08125 184.19896Q67.50313 184.46458 67.97188 184.46458Q68.62813 184.46458 69.1125 183.93333Q69.59688 183.38646 69.59688 182.46458Q69.59688 181.57396 69.1125 181.05833Q68.64375 180.54271 67.925 180.54271Q67.20625 180.54271 66.70625 181.05833Q66.22188 181.57396 66.22188 182.40208Z" fill-rule="nonzero"/><path fill="#000000" d="M66.675 140.77153Q66.01875 140.52153 65.69063 140.08403Q65.37813 139.6309 65.37813 139.02153Q65.37813 138.08403 66.05 137.4434Q66.7375 136.80278 67.84688 136.80278Q68.97188 136.80278 69.65938 137.45903Q70.34688 138.11528 70.34688 139.05278Q70.34688 139.64653 70.03438 140.08403Q69.72188 140.52153 69.08125 140.77153Q69.87813 141.02153 70.28438 141.59966Q70.69063 142.17778 70.69063 142.97466Q70.69063 144.0684 69.90938 144.8184Q69.14375 145.5684 67.8625 145.5684Q66.59688 145.5684 65.81563 144.8184Q65.03438 144.0684 65.03438 142.9434Q65.03438 142.09966 65.45625 141.53716Q65.89375 140.97466 66.675 140.77153ZM66.45625 138.97466Q66.45625 139.58403 66.84688 139.97466Q67.25313 140.36528 67.87813 140.36528Q68.4875 140.36528 68.87813 139.99028Q69.26875 139.59966 69.26875 139.03716Q69.26875 138.45903 68.8625 138.0684Q68.45625 137.66216 67.8625 137.66216Q67.25313 137.66216 66.84688 138.05278Q66.45625 138.4434 66.45625 138.97466ZM66.12813 142.9434Q66.12813 143.39653 66.33125 143.8184Q66.55 144.24028 66.97188 144.47466Q67.39375 144.70903 67.87813 144.70903Q68.62813 144.70903 69.1125 144.22466Q69.6125 143.74028 69.6125 142.99028Q69.6125 142.22466 69.1125 141.72466Q68.6125 141.22466 67.84688 141.22466Q67.09688 141.22466 66.6125 141.72466Q66.12813 142.20903 66.12813 142.9434Z" fill-rule="nonzero"/><path fill="#000000" d="M62.01875 105.672226L60.971874 105.672226L60.971874 98.953476Q60.58125 99.31285 59.95625 99.68785Q59.346874 100.047226 58.8625 100.2191L58.8625 99.203476Q59.7375 98.7816 60.39375 98.203476Q61.065624 97.609726 61.346874 97.047226L62.01875 97.047226L62.01875 105.672226ZM65.05 101.43785Q65.05 99.9066 65.3625 98.984726Q65.675 98.047226 66.28438 97.547226Q66.90938 97.047226 67.84688 97.047226Q68.53438 97.047226 69.05 97.328476Q69.58125 97.609726 69.925 98.140976Q70.26875 98.6566 70.45625 99.4066Q70.64375 100.1566 70.64375 101.43785Q70.64375 102.953476 70.33125 103.87535Q70.03438 104.797226 69.40938 105.31285Q68.8 105.81285 67.84688 105.81285Q66.6125 105.81285 65.89375 104.922226Q65.05 103.859726 65.05 101.43785ZM66.12813 101.43785Q66.12813 103.547226 66.62813 104.25035Q67.12813 104.953476 67.84688 104.953476Q68.58125 104.953476 69.06563 104.25035Q69.56563 103.547226 69.56563 101.43785Q69.56563 99.31285 69.06563 98.62535Q68.58125 97.922226 67.83125 97.922226Q67.1125 97.922226 66.675 98.5316Q66.12813 99.31285 66.12813 101.43785Z" fill-rule="nonzero"/><path fill="#000000" d="M62.01875 65.916664L60.971874 65.916664L60.971874 59.197914Q60.58125 59.55729 59.95625 59.93229Q59.346874 60.291664 58.8625 60.46354L58.8625 59.447914Q59.7375 59.02604 60.39375 58.447914Q61.065624 57.854164 61.346874 57.291664L62.01875 57.291664L62.01875 65.916664ZM70.59688 64.90104L70.59688 65.916664L64.90938 65.916664Q64.90938 65.541664 65.03438 65.18229Q65.25313 64.604164 65.72188 64.041664Q66.20625 63.479164 67.1125 62.74479Q68.51875 61.58854 69.00313 60.916664Q69.50313 60.24479 69.50313 59.65104Q69.50313 59.02604 69.05 58.604164Q68.59688 58.166664 67.87813 58.166664Q67.1125 58.166664 66.65938 58.61979Q66.20625 59.072914 66.19063 59.885414L65.1125 59.77604Q65.22188 58.55729 65.94063 57.93229Q66.675 57.291664 67.90938 57.291664Q69.14375 57.291664 69.8625 57.979164Q70.58125 58.666664 70.58125 59.68229Q70.58125 60.197914 70.3625 60.697914Q70.15938 61.18229 69.65938 61.74479Q69.175 62.291664 68.05 63.24479Q67.09688 64.041664 66.81563 64.33854Q66.55 64.61979 66.37813 64.90104L70.59688 64.90104Z" fill-rule="nonzero"/><path fill="#000000" d="M148.98538 315.2L150.09476 315.10626Q150.21976 315.91876 150.65726 316.325Q151.11038 316.73126 151.751 316.73126Q152.501 316.73126 153.03226 316.15314Q153.5635 315.575 153.5635 314.6375Q153.5635 313.73126 153.04788 313.21564Q152.54788 312.6844 151.71976 312.6844Q151.21976 312.6844 150.79788 312.91876Q150.39163 313.15314 150.15726 313.5125L149.17288 313.3875L150.001 308.98126L154.28226 308.98126L154.28226 309.98126L150.84476 309.98126L150.39163 312.29376Q151.15726 311.7469 152.001 311.7469Q153.126 311.7469 153.89163 312.52814Q154.67288 313.3094 154.67288 314.54376Q154.67288 315.7 154.001 316.5594Q153.17288 317.59064 151.751 317.59064Q150.57913 317.59064 149.82913 316.9344Q149.09476 316.27814 148.98538 315.2Z" fill-rule="nonzero"/><path fill="#000000" d="M233.98491 317.45L232.93803 317.45L232.93803 310.73126Q232.54741 311.09064 231.92241 311.46564Q231.31303 311.825 230.82866 311.9969L230.82866 310.98126Q231.70366 310.5594 232.35991 309.98126Q233.03178 309.3875 233.31303 308.825L233.98491 308.825L233.98491 317.45ZM237.01616 313.21564Q237.01616 311.6844 237.32866 310.7625Q237.64116 309.825 238.25053 309.325Q238.87553 308.825 239.81303 308.825Q240.50053 308.825 241.01616 309.10626Q241.54741 309.3875 241.89116 309.91876Q242.23491 310.4344 242.42241 311.1844Q242.60991 311.9344 242.60991 313.21564Q242.60991 314.73126 242.29741 315.65314Q242.00053 316.575 241.37553 317.09064Q240.76616 317.59064 239.81303 317.59064Q238.57866 317.59064 237.85991 316.7Q237.01616 315.6375 237.01616 313.21564ZM238.09428 313.21564Q238.09428 315.325 238.59428 316.02814Q239.09428 316.73126 239.81303 316.73126Q240.54741 316.73126 241.03178 316.02814Q241.53178 315.325 241.53178 313.21564Q241.53178 311.09064 241.03178 310.40314Q240.54741 309.7 239.79741 309.7Q239.07866 309.7 238.64116 310.3094Q238.09428 311.09064 238.09428 313.21564Z" fill-rule="nonzero"/><path fill="#000000" d="M318.5157 317.45L317.4688 317.45L317.4688 310.73126Q317.0782 311.09064 316.4532 311.46564Q315.8438 311.825 315.35944 311.9969L315.35944 310.98126Q316.23444 310.5594 316.8907 309.98126Q317.56256 309.3875 317.8438 308.825L318.5157 308.825L318.5157 317.45ZM321.54694 315.2L322.6563 315.10626Q322.7813 315.91876 323.2188 316.325Q323.67194 316.73126 324.31256 316.73126Q325.06256 316.73126 325.5938 316.15314Q326.12506 315.575 326.12506 314.6375Q326.12506 313.73126 325.60944 313.21564Q325.10944 312.6844 324.2813 312.6844Q323.7813 312.6844 323.35944 312.91876Q322.9532 313.15314 322.7188 313.5125L321.73444 313.3875L322.56256 308.98126L326.8438 308.98126L326.8438 309.98126L323.4063 309.98126L322.9532 312.29376Q323.7188 311.7469 324.56256 311.7469Q325.68756 311.7469 326.4532 312.52814Q327.23444 313.3094 327.23444 314.54376Q327.23444 315.7 326.56256 316.5594Q325.73444 317.59064 324.31256 317.59064Q323.1407 317.59064 322.3907 316.9344Q321.6563 316.27814 321.54694 315.2Z" fill-rule="nonzero"/><path fill="#000000" d="M404.62457 316.4344L404.62457 317.45L398.93707 317.45Q398.93707 317.075 399.06207 316.71564Q399.28082 316.1375 399.74957 315.575Q400.23395 315.0125 401.1402 314.27814Q402.54645 313.1219 403.03082 312.45Q403.53082 311.77814 403.53082 311.1844Q403.53082 310.5594 403.0777 310.1375Q402.62457 309.7 401.90582 309.7Q401.1402 309.7 400.68707 310.15314Q400.23395 310.60626 400.21832 311.41876L399.1402 311.3094Q399.24957 310.09064 399.96832 309.46564Q400.7027 308.825 401.93707 308.825Q403.17145 308.825 403.8902 309.5125Q404.60895 310.2 404.60895 311.21564Q404.60895 311.73126 404.3902 312.23126Q404.18707 312.71564 403.68707 313.27814Q403.2027 313.825 402.0777 314.77814Q401.12457 315.575 400.84332 315.8719Q400.5777 316.15314 400.40582 316.4344L404.62457 316.4344ZM406.0777 313.21564Q406.0777 311.6844 406.3902 310.7625Q406.7027 309.825 407.31207 309.325Q407.93707 308.825 408.87457 308.825Q409.56207 308.825 410.0777 309.10626Q410.60895 309.3875 410.9527 309.91876Q411.29645 310.4344 411.48395 311.1844Q411.67145 311.9344 411.67145 313.21564Q411.67145 314.73126 411.35895 315.65314Q411.06207 316.575 410.43707 317.09064Q409.8277 317.59064 408.87457 317.59064Q407.6402 317.59064 406.92145 316.7Q406.0777 315.6375 406.0777 313.21564ZM407.15582 313.21564Q407.15582 315.325 407.65582 316.02814Q408.15582 316.73126 408.87457 316.73126Q409.60895 316.73126 410.09332 316.02814Q410.59332 315.325 410.59332 313.21564Q410.59332 311.09064 410.09332 310.40314Q409.60895 309.7 408.85895 309.7Q408.1402 309.7 407.7027 310.3094Q407.15582 311.09064 407.15582 313.21564Z" fill-rule="nonzero"/><path fill="#000000" d="M489.15533 316.4344L489.15533 317.45L483.46783 317.45Q483.46783 317.075 483.59283 316.71564Q483.81158 316.1375 484.28033 315.575Q484.7647 315.0125 485.67096 314.27814Q487.0772 313.1219 487.56158 312.45Q488.06158 311.77814 488.06158 311.1844Q488.06158 310.5594 487.60846 310.1375Q487.15533 309.7 486.43658 309.7Q485.67096 309.7 485.21783 310.15314Q484.7647 310.60626 484.74908 311.41876L483.67096 311.3094Q483.78033 310.09064 484.49908 309.46564Q485.23346 308.825 486.46783 308.825Q487.7022 308.825 488.42096 309.5125Q489.1397 310.2 489.1397 311.21564Q489.1397 311.73126 488.92096 312.23126Q488.71783 312.71564 488.21783 313.27814Q487.73346 313.825 486.60846 314.77814Q485.65533 315.575 485.37408 315.8719Q485.10846 316.15314 484.93658 316.4344L489.15533 316.4344ZM490.60846 315.2L491.71783 315.10626Q491.84283 315.91876 492.28033 316.325Q492.73346 316.73126 493.37408 316.73126Q494.12408 316.73126 494.65533 316.15314Q495.18658 315.575 495.18658 314.6375Q495.18658 313.73126 494.67096 313.21564Q494.17096 312.6844 493.34283 312.6844Q492.84283 312.6844 492.42096 312.91876Q492.0147 313.15314 491.78033 313.5125L490.79596 313.3875L491.62408 308.98126L495.90533 308.98126L495.90533 309.98126L492.46783 309.98126L492.0147 312.29376Q492.78033 311.7469 493.62408 311.7469Q494.74908 311.7469 495.5147 312.52814Q496.29596 313.3094 496.29596 314.54376Q496.29596 315.7 495.62408 316.5594Q494.79596 317.59064 493.37408 317.59064Q492.2022 317.59064 491.4522 316.9344Q490.71783 316.27814 490.60846 315.2Z" fill-rule="nonzero"/><path fill="#000000" d="M568.1392 315.1844L569.2017 315.04376Q569.3736 315.9344 569.8111 316.34064Q570.2486 316.73126 570.8736 316.73126Q571.6236 316.73126 572.1392 316.21564Q572.65485 315.7 572.65485 314.9344Q572.65485 314.21564 572.1705 313.7469Q571.7017 313.2625 570.96735 313.2625Q570.6705 313.2625 570.21735 313.3875L570.34235 312.45Q570.4517 312.46564 570.5142 312.46564Q571.1861 312.46564 571.71735 312.1219Q572.2642 311.7625 572.2642 311.02814Q572.2642 310.45 571.8736 310.075Q571.483 309.6844 570.858 309.6844Q570.2486 309.6844 569.8267 310.075Q569.4205 310.46564 569.3111 311.23126L568.2486 311.04376Q568.4361 309.9969 569.1236 309.41876Q569.8111 308.825 570.8267 308.825Q571.52985 308.825 572.1236 309.1375Q572.71735 309.4344 573.02985 309.95Q573.34235 310.46564 573.34235 311.0594Q573.34235 311.60626 573.0455 312.075Q572.7486 312.52814 572.1705 312.79376Q572.9205 312.96564 573.34235 313.52814Q573.7642 314.075 573.7642 314.91876Q573.7642 316.04376 572.9361 316.825Q572.1236 317.60626 570.8736 317.60626Q569.7486 317.60626 568.9986 316.9344Q568.2486 316.2469 568.1392 315.1844ZM575.1392 313.21564Q575.1392 311.6844 575.4517 310.7625Q575.7642 309.825 576.3736 309.325Q576.9986 308.825 577.9361 308.825Q578.6236 308.825 579.1392 309.10626Q579.6705 309.3875 580.0142 309.91876Q580.358 310.4344 580.5455 311.1844Q580.733 311.9344 580.733 313.21564Q580.733 314.73126 580.4205 315.65314Q580.1236 316.575 579.4986 317.09064Q578.8892 317.59064 577.9361 317.59064Q576.7017 317.59064 575.983 316.7Q575.1392 315.6375 575.1392 313.21564ZM576.21735 313.21564Q576.21735 315.325 576.71735 316.02814Q577.21735 316.73126 577.9361 316.73126Q578.6705 316.73126 579.15485 316.02814Q579.65485 315.325 579.65485 313.21564Q579.65485 311.09064 579.15485 310.40314Q578.6705 309.7 577.9205 309.7Q577.2017 309.7 576.7642 310.3094Q576.21735 311.09064 576.21735 313.21564Z" fill-rule="nonzero"/><path fill="#757575" d="M20.034374 37.55L20.034374 23.2375L22.89375 23.2375L26.26875 33.3625Q26.7375 34.784374 26.95625 35.4875Q27.20625 34.70625 27.721874 33.190624L31.14375 23.2375L33.690624 23.2375L33.690624 37.55L31.878124 37.55L31.878124 25.565624L27.70625 37.55L26.003124 37.55L21.8625 25.3625L21.8625 37.55L20.034374 37.55ZM43.971874 34.20625L45.784374 34.440624Q45.3625 36.01875 44.190624 36.909374Q43.034374 37.784374 41.221874 37.784374Q38.95625 37.784374 37.6125 36.39375Q36.284374 34.9875 36.284374 32.45625Q36.284374 29.83125 37.628124 28.39375Q38.971874 26.940624 41.128124 26.940624Q43.20625 26.940624 44.51875 28.3625Q45.846874 29.76875 45.846874 32.346874Q45.846874 32.503124 45.83125 32.815624L38.096874 32.815624Q38.190624 34.51875 39.065624 35.425Q39.940624 36.33125 41.2375 36.33125Q42.20625 36.33125 42.878124 35.83125Q43.565624 35.315624 43.971874 34.20625ZM38.190624 31.3625L43.9875 31.3625Q43.878124 30.065624 43.33125 29.409374Q42.4875 28.39375 41.14375 28.39375Q39.940624 28.39375 39.1125 29.20625Q38.284374 30.003124 38.190624 31.3625ZM54.64375 36.26875Q53.659374 37.096874 52.753124 37.440624Q51.846874 37.784374 50.815624 37.784374Q49.1125 37.784374 48.190624 36.95625Q47.26875 36.1125 47.26875 34.815624Q47.26875 34.05 47.6125 33.425Q47.971874 32.8 48.534374 32.425Q49.096874 32.034374 49.8 31.83125Q50.315624 31.70625 51.3625 31.565624Q53.4875 31.315624 54.4875 30.971874Q54.503124 30.6125 54.503124 30.503124Q54.503124 29.440624 54.003124 28.9875Q53.33125 28.39375 52.003124 28.39375Q50.753124 28.39375 50.159374 28.83125Q49.58125 29.26875 49.3 30.378124L47.58125 30.14375Q47.815624 29.034374 48.346874 28.3625Q48.878124 27.675 49.89375 27.315624Q50.909374 26.940624 52.253124 26.940624Q53.58125 26.940624 54.409374 27.253124Q55.2375 27.565624 55.628124 28.05Q56.01875 28.51875 56.175 29.2375Q56.26875 29.690624 56.26875 30.8625L56.26875 33.20625Q56.26875 35.659374 56.378124 36.315624Q56.4875 36.95625 56.83125 37.55L54.9875 37.55Q54.721874 37.003124 54.64375 36.26875ZM54.4875 32.346874Q53.534374 32.7375 51.6125 33.003124Q50.534374 33.159374 50.08125 33.3625Q49.64375 33.55 49.39375 33.925Q49.14375 34.3 49.14375 34.76875Q49.14375 35.471874 49.675 35.940624Q50.20625 36.409374 51.2375 36.409374Q52.253124 36.409374 53.034374 35.971874Q53.83125 35.51875 54.20625 34.753124Q54.4875 34.14375 54.4875 32.9875L54.4875 32.346874ZM58.8625 37.55L58.8625 27.175L60.45625 27.175L60.45625 28.659374Q61.596874 26.940624 63.753124 26.940624Q64.69063 26.940624 65.47188 27.284374Q66.26875 27.6125 66.65938 28.159374Q67.05 28.70625 67.20625 29.45625Q67.3 29.95625 67.3 31.175L67.3 37.55L65.53438 37.55L65.53438 31.2375Q65.53438 30.159374 65.33125 29.628124Q65.12813 29.096874 64.59688 28.784374Q64.08125 28.471874 63.378124 28.471874Q62.253124 28.471874 61.440624 29.190624Q60.628124 29.89375 60.628124 31.878124L60.628124 37.55L58.8625 37.55Z" fill-rule="nonzero"/></svg>