<svg version="1.1" viewBox="0.0 0.0 600.0 371.0" fill="none" stroke="none" stroke-linecap="square" stroke-miterlimit="10" width="600" height="371" xmlns:xlink="http://www.w3.org/1999/xlink" xmlns="http://www.w3.org/2000/svg"><path fill="#ffffff" d="M0 0L600.0 0L600.0 371.0L0 371.0L0 0Z" fill-rule="nonzero"/><path stroke="#cccccc" stroke-width="1.0" stroke-linecap="butt" d="M151.5 61.5L151.5 300.5" fill-rule="nonzero"/><path stroke="#cccccc" stroke-width="1.0" stroke-linecap="butt" d="M236.5 61.5L236.5 300.5" fill-rule="nonzero"/><path stroke="#cccccc" stroke-width="1.0" stroke-linecap="butt" d="M321.5 61.5L321.5 300.5" fill-rule="nonzero"/><path stroke="#cccccc" stroke-width="1.0" stroke-linecap="butt" d="M405.5 61.5L405.5 300.5" fill-rule="nonzero"/><path stroke="#cccccc" stroke-width="1.0" stroke-linecap="butt" d="M490.5 61.5L490.5 300.5" fill-rule="nonzero"/><path stroke="#cccccc" stroke-width="1.0" stroke-linecap="butt" d="M574.5 61.5L574.5 300.5" fill-rule="nonzero"/><path stroke="#333333" stroke-width="1.0" stroke-linecap="butt" d="M77.5 300.5L581.5 300.5" fill-rule="nonzero"/><path stroke="#cccccc" stroke-width="1.0" stroke-linecap="butt" d="M77.5 252.5L581.5 252.5" fill-rule="nonzero"/><path stroke="#cccccc" stroke-width="1.0" stroke-linecap="butt" d="M77.5 205.5L581.5 205.5" fill-rule="nonzero"/><path stroke="#cccccc" stroke-width="1.0" stroke-linecap="butt" d="M77.5 157.5L581.5 157.5" fill-rule="nonzero"/><path stroke="#cccccc" stroke-width="1.0" stroke-linecap="butt" d="M77.5 109.5L581.5 109.5" fill-rule="nonzero"/><path stroke="#cccccc" stroke-width="1.0" stroke-linecap="butt" d="M77.5 61.5L581.5 61.5" fill-rule="nonzero"/><clipPath id="id_0"><path d="M77.55 61.916668L581.45 61.916668L581.45 300.45L77.55 300.45L77.55 61.916668Z" clip-rule="nonzero"/></clipPath><path stroke="#4285f4" stroke-width="2.0" stroke-linecap="butt" clip-path="url(#id_0)" d="M84.36077 264.7882L84.36077 264.7882M118.17308 238.91289L118.17308 238.91289M236.51616 187.63957L236.51616 187.63957M574.6392 103.43645L574.6392 103.43645" fill-rule="nonzero"/><path stroke="#4285f4" stroke-width="2.0" stroke-linecap="butt" stroke-opacity="0.4" clip-path="url(#id_0)" d="C73.333336 278.93042 74.666664 277.25958 76.0 275.2213C77.333336 273.183 78.666664 271.50708 80.0 269.85092C81.333336 268.19473 82.666664 266.7192 84.0 265.2842C85.333336 263.84924 86.666664 262.5261 88.0 261.24103C89.333336 259.95596 90.666664 258.74838 92.0 257.57382C93.333336 256.39926 94.666664 255.28232 96.0 254.19368C97.333336 253.10504 98.666664 252.06133 100.0 251.042C101.333336 250.02269 102.666664 249.03963 104.0 248.0778C105.333336 247.11597 106.666664 246.18417 108.0 245.27103C109.333336 244.35788 110.666664 243.47014 112.0 242.59892C113.333336 241.7277 114.666664 240.87834 116.0 240.04373C117.333336 239.20912 118.666664 238.39357 120.0 237.5913C121.333336 236.789 122.666664 236.00352 124.0 235.23007C125.333336 234.4566 126.666664 233.6981 128.0 232.95056C129.33333 232.20302 130.66667 231.46889 132.0 230.74481C133.33333 230.02072 134.66667 229.30878 136.0 228.60606C137.33333 227.90335 138.66667 227.21167 140.0 226.52855C141.33333 225.84541 142.66667 225.17238 144.0 224.50726C145.33333 223.84215 146.66667 223.18631 148.0 222.53786C149.33333 221.8894 150.66667 221.24953 152.0 220.61655C153.33333 219.98355 154.66667 219.3585 156.0 218.73991C157.33333 218.12134 158.66667 217.51015 160.0 216.90501C161.33333 216.29988 162.66667 215.70166 164.0 215.10915C165.33333 214.51663 166.66667 213.93059 168.0 213.34993C169.33333 212.76927 170.66667 212.19467 172.0 211.62518C173.33333 211.0557 174.66667 210.49191 176.0 209.93297C177.33333 209.37401 178.66667 208.82045 180.0 208.27148C181.33333 207.7225 182.66667 207.17863 184.0 206.63911C185.33333 206.09961 186.66667 205.56493 188.0 205.0344C189.33333 204.50386 190.66667 203.97792 192.0 203.45595C193.33333 202.93396 194.66667 202.41635 196.0 201.90251C197.33333 201.38869 198.66667 200.879 200.0 200.37294C201.33333 199.86688 202.66667 199.36479 204.0 198.86617C205.33333 198.36754 206.66667 197.8727 208.0 197.3812C209.33333 196.88968 210.66667 196.40178 212.0 195.91708C213.33333 195.43239 214.66667 194.95116 216.0 194.473C217.33333 193.99484 218.66667 193.52 220.0 193.04813C221.33333 192.57625 222.66667 192.10756 224.0 191.64172C225.33333 191.17589 226.66667 190.71312 228.0 190.25308C229.33333 189.79306 230.66667 189.33598 232.0 188.88155C233.33333 188.42711 234.66667 187.97552 236.0 187.52649C237.33333 187.07745 238.66667 186.63116 240.0 186.18735C241.33333 185.74352 242.66667 185.30234 244.0 184.86354C245.33333 184.42476 246.66667 183.98851 248.0 183.55458C249.33333 183.12065 250.66667 182.6892 252.0 182.25998C253.33333 181.83075 254.66667 181.40392 256.0 180.97925C257.33334 180.55458 258.66666 180.13222 260.0 179.71196C261.33334 179.2917 262.66666 178.87367 264.0 178.4577C265.33334 178.04172 266.66666 177.6279 268.0 177.21608C269.33334 176.80424 270.66666 176.39452 272.0 175.98671C273.33334 175.5789 274.66666 175.17314 276.0 174.76924C277.33334 174.36534 278.66666 173.96342 280.0 173.56334C281.33334 173.16324 282.66666 172.76506 284.0 172.36867C285.33334 171.97226 286.66666 171.57773 288.0 171.18492C289.33334 170.79211 290.66666 170.40112 292.0 170.01181C293.33334 169.6225 294.66666 169.23495 296.0 168.84904C297.33334 168.46313 298.66666 168.07895 300.0 167.69635C301.33334 167.31377 302.66666 166.93285 304.0 166.55348C305.33334 166.17413 306.66666 165.7964 308.0 165.4202C309.33334 165.04399 310.66666 164.66937 312.0 164.29623C313.33334 163.9231 314.66666 163.55153 316.0 163.18138C317.33334 162.81125 318.66666 162.44263 320.0 162.07542C321.33334 161.70822 322.66666 161.34248 324.0 160.97813C325.33334 160.6138 326.66666 160.25089 328.0 159.88933C329.33334 159.52779 330.66666 159.16763 332.0 158.8088C333.33334 158.44998 334.66666 158.09254 336.0 157.73639C337.33334 157.38023 338.66666 157.02542 340.0 156.67188C341.33334 156.31833 342.66666 155.9661 344.0 155.61511C345.33334 155.26411 346.66666 154.91441 348.0 154.56592C349.33334 154.21742 350.66666 153.87018 352.0 153.52414C353.33334 153.17809 354.66666 152.83327 356.0 152.48961C357.33334 152.14597 358.66666 151.80351 360.0 151.4622C361.33334 151.1209 362.66666 150.78076 364.0 150.44176C365.33334 150.10274 366.66666 149.7649 368.0 149.42813C369.33334 149.09137 370.66666 148.75575 372.0 148.4212C373.33334 148.08664 374.66666 147.7532 376.0 147.42082C377.33334 147.08842 378.66666 146.75714 380.0 146.42686C381.33334 146.0966 382.66666 145.76741 384.0 145.43922C385.33334 145.11104 386.66666 144.7839 388.0 144.45778C389.33334 144.13164 390.66666 143.80652 392.0 143.48239C393.33334 143.15826 394.66666 142.83514 396.0 142.51297C397.33334 142.19081 398.66666 141.86963 400.0 141.54941C401.33334 141.22917 402.66666 140.90991 404.0 140.59158C405.33334 140.27325 406.66666 139.95587 408.0 139.63942C409.33334 139.32295 410.66666 139.00742 412.0 138.69278C413.33334 138.37816 414.66666 138.06444 416.0 137.7516C417.33334 137.43878 418.66666 137.12685 420.0 136.8158C421.33334 136.50473 422.66666 136.19455 424.0 135.88524C425.33334 135.57591 426.66666 135.26747 428.0 134.95985C429.33334 134.65225 430.66666 134.3455 432.0 134.03958C433.33334 133.73366 434.66666 133.42857 436.0 133.1243C437.33334 132.82004 438.66666 132.5166 440.0 132.21396C441.33334 131.91132 442.66666 131.6095 444.0 131.30846C445.33334 131.00743 446.66666 130.7072 448.0 130.40773C449.33334 130.10828 450.66666 129.80962 452.0 129.5117C453.33334 129.2138 454.66666 128.91667 456.0 128.6203C457.33334 128.32393 458.66666 128.02832 460.0 127.73345C461.33334 127.438576 462.66666 127.14447 464.0 126.85108C465.33334 126.55769 466.66666 126.26505 468.0 125.97313C469.33334 125.681206 470.66666 125.390015 472.0 125.099525C473.33334 124.80904 474.66666 124.51928 476.0 124.23021C477.33334 123.94114 478.66666 123.65279 480.0 123.36511C481.33334 123.077446 482.66666 122.790474 484.0 122.50418C485.33334 122.21789 486.66666 121.93229 488.0 121.647354C489.33334 121.36242 490.66666 121.07816 492.0 120.79457C493.33334 120.51097 494.66666 120.22805 496.0 119.94577C497.33334 119.66349 498.66666 119.38188 500.0 119.10091C501.33334 118.81993 502.66666 118.539604 504.0 118.25991C505.33334 117.980225 506.66666 117.70117 508.0 117.422745C509.33334 117.14432 510.66666 116.86653 512.0 116.589355C513.3333 116.31218 514.6667 116.03563 516.0 115.75968C517.3333 115.483734 518.6667 115.20841 520.0 114.933685C521.3333 114.65895 522.6667 114.384834 524.0 114.111305C525.3333 113.837776 526.6667 113.56485 528.0 113.2925C529.3333 113.02016 530.6667 112.74841 532.0 112.477234C533.3333 112.206055 534.6667 111.93547 536.0 111.66544C537.3333 111.395424 538.6667 111.125984 540.0 110.8571C541.3333 110.58822 542.6667 110.31991 544.0 110.05215C545.3333 109.78439 546.6667 109.5172 548.0 109.25055C549.3333 108.9839 550.6667 108.71781 552.0 108.45226C553.3333 108.186714 554.6667 107.921715 556.0 107.65725C557.3333 107.392784 558.6667 107.12886 560.0 106.86546C561.3333 106.60207 562.6667 106.33921 564.0 106.07687C565.3333 105.81454 566.6667 105.55273 568.0 105.291435C569.3333 105.03014 570.6667 104.76937 572.0 104.50911C573.3333 104.248856 574.6667 103.98911 576.0 103.729866C577.3333 103.47063 580.0 102.95367 580.0 102.95367" fill-rule="nonzero"/><path fill="#4285f4" clip-path="url(#id_0)" d="M88.86077 264.7882C88.86077 267.2735 86.846054 269.2882 84.36077 269.2882C81.875496 269.2882 79.86077 267.2735 79.86077 264.7882C79.86077 262.30295 81.875496 260.2882 84.36077 260.2882C86.846054 260.2882 88.86077 262.30295 88.86077 264.7882Z" fill-rule="nonzero"/><path fill="#4285f4" clip-path="url(#id_0)" d="M122.67308 238.91289C122.67308 241.39816 120.65836 243.41289 118.17308 243.41289C115.6878 243.41289 113.67308 241.39816 113.67308 238.91289C113.67308 236.4276 115.6878 234.41289 118.17308 234.41289C120.65836 234.41289 122.67308 236.4276 122.67308 238.91289Z" fill-rule="nonzero"/><path fill="#4285f4" clip-path="url(#id_0)" d="M241.01616 187.63957C241.01616 190.12485 239.00143 192.13957 236.51616 192.13957C234.03087 192.13957 232.01616 190.12485 232.01616 187.63957C232.01616 185.1543 234.03087 183.13957 236.51616 183.13957C239.00143 183.13957 241.01616 185.1543 241.01616 187.63957Z" fill-rule="nonzero"/><path fill="#4285f4" clip-path="url(#id_0)" d="M579.1392 103.43645C579.1392 105.92173 577.1245 107.93645 574.6392 107.93645C572.15393 107.93645 570.1392 105.92173 570.1392 103.43645C570.1392 100.951164 572.15393 98.93645 574.6392 98.93645C577.1245 98.93645 579.1392 100.951164 579.1392 103.43645Z" fill-rule="nonzero"/><path fill="#000000" d="M259.92188 349.45L259.92188 340.85626L261.07812 340.85626L265.59375 347.60626L265.59375 340.85626L266.6875 340.85626L266.6875 349.45L265.51562 349.45L261.0 342.7L261.0 349.45L259.92188 349.45ZM272.875 349.45L272.875 348.52814Q272.14062 349.59064 270.89062 349.59064Q270.34375 349.59064 269.85938 349.3875Q269.39062 349.16876 269.15625 348.85626Q268.92188 348.52814 268.82812 348.0594Q268.76562 347.7625 268.76562 347.075L268.76562 343.23126L269.82812 343.23126L269.82812 346.6844Q269.82812 347.4969 269.89062 347.79376Q269.98438 348.2 270.29688 348.45Q270.625 348.6844 271.10938 348.6844Q271.57812 348.6844 271.98438 348.45Q272.40625 348.2 272.57812 347.77814Q272.76562 347.35626 272.76562 346.5594L272.76562 343.23126L273.8125 343.23126L273.8125 349.45L272.875 349.45ZM275.79688 349.45L275.79688 343.23126L276.73438 343.23126L276.73438 344.10626Q277.03125 343.6375 277.51562 343.3719Q278.0 343.09064 278.625 343.09064Q279.3125 343.09064 279.75 343.3719Q280.20312 343.65314 280.375 344.16876Q281.125 343.09064 282.29688 343.09064Q283.23438 343.09064 283.71875 343.60626Q284.21875 344.10626 284.21875 345.1844L284.21875 349.45L283.17188 349.45L283.17188 345.52814Q283.17188 344.90314 283.0625 344.6219Q282.96875 344.34064 282.70312 344.16876Q282.4375 343.9969 282.0625 343.9969Q281.40625 343.9969 280.96875 344.4344Q280.54688 344.8719 280.54688 345.84064L280.54688 349.45L279.48438 349.45L279.48438 345.40314Q279.48438 344.7 279.21875 344.35626Q278.96875 343.9969 278.39062 343.9969Q277.9375 343.9969 277.5625 344.23126Q277.1875 344.46564 277.01562 344.91876Q276.84375 345.3719 276.84375 346.21564L276.84375 349.45L275.79688 349.45ZM287.76562 349.45L286.78125 349.45L286.78125 340.85626L287.84375 340.85626L287.84375 343.91876Q288.51562 343.09064 289.54688 343.09064Q290.125 343.09064 290.625 343.325Q291.14062 343.54376 291.46875 343.96564Q291.8125 344.3875 292.0 344.98126Q292.1875 345.575 292.1875 346.2469Q292.1875 347.84064 291.39062 348.71564Q290.59375 349.59064 289.5 349.59064Q288.39062 349.59064 287.76562 348.66876L287.76562 349.45ZM287.75 346.29376Q287.75 347.40314 288.0625 347.90314Q288.5625 348.71564 289.40625 348.71564Q290.09375 348.71564 290.59375 348.1219Q291.10938 347.52814 291.10938 346.325Q291.10938 345.10626 290.625 344.52814Q290.14062 343.95 289.45312 343.95Q288.76562 343.95 288.25 344.5594Q287.75 345.15314 287.75 346.29376ZM298.04688 347.45L299.14062 347.575Q298.89062 348.52814 298.1875 349.0594Q297.48438 349.59064 296.40625 349.59064Q295.04688 349.59064 294.23438 348.7469Q293.4375 347.90314 293.4375 346.3875Q293.4375 344.825 294.25 343.96564Q295.0625 343.09064 296.34375 343.09064Q297.59375 343.09064 298.375 343.9344Q299.17188 344.77814 299.17188 346.325Q299.17188 346.41876 299.17188 346.60626L294.53125 346.60626Q294.59375 347.6375 295.10938 348.1844Q295.625 348.71564 296.40625 348.71564Q296.98438 348.71564 297.39062 348.41876Q297.8125 348.10626 298.04688 347.45ZM294.59375 345.7469L298.0625 345.7469Q298.0 344.95 297.67188 344.5594Q297.15625 343.95 296.35938 343.95Q295.625 343.95 295.125 344.4344Q294.64062 344.91876 294.59375 345.7469ZM300.78125 349.45L300.78125 343.23126L301.73438 343.23126L301.73438 344.16876Q302.09375 343.5125 302.39062 343.3094Q302.70312 343.09064 303.07812 343.09064Q303.60938 343.09064 304.15625 343.41876L303.79688 344.40314Q303.40625 344.16876 303.03125 344.16876Q302.67188 344.16876 302.39062 344.3875Q302.125 344.59064 302.01562 344.96564Q301.82812 345.52814 301.82812 346.1844L301.82812 349.45L300.78125 349.45ZM307.40625 346.34064Q307.40625 344.60626 308.35938 343.77814Q309.15625 343.09064 310.3125 343.09064Q311.59375 343.09064 312.40625 343.9344Q313.23438 344.7625 313.23438 346.2469Q313.23438 347.45 312.875 348.1375Q312.51562 348.825 311.8125 349.21564Q311.125 349.59064 310.3125 349.59064Q309.01562 349.59064 308.20312 348.7625Q307.40625 347.91876 307.40625 346.34064ZM308.48438 346.34064Q308.48438 347.52814 309.0 348.1219Q309.53125 348.71564 310.3125 348.71564Q311.10938 348.71564 311.625 348.1219Q312.14062 347.52814 312.14062 346.3094Q312.14062 345.15314 311.60938 344.5594Q311.09375 343.96564 310.3125 343.96564Q309.53125 343.96564 309.0 344.5594Q308.48438 345.1375 308.48438 346.34064ZM315.04688 349.45L315.04688 344.04376L314.10938 344.04376L314.10938 343.23126L315.04688 343.23126L315.04688 342.5594Q315.04688 341.9344 315.15625 341.6375Q315.3125 341.21564 315.6875 340.96564Q316.07812 340.71564 316.76562 340.71564Q317.21875 340.71564 317.75 340.825L317.59375 341.73126Q317.26562 341.6844 316.96875 341.6844Q316.48438 341.6844 316.28125 341.8875Q316.09375 342.09064 316.09375 342.65314L316.09375 343.23126L317.3125 343.23126L317.3125 344.04376L316.09375 344.04376L316.09375 349.45L315.04688 349.45ZM320.54688 346.6844L321.60938 346.59064Q321.6875 347.2469 321.96875 347.65314Q322.25 348.0594 322.82812 348.325Q323.42188 348.575 324.15625 348.575Q324.79688 348.575 325.29688 348.3875Q325.79688 348.1844 326.03125 347.85626Q326.28125 347.5125 326.28125 347.1219Q326.28125 346.71564 326.04688 346.41876Q325.8125 346.10626 325.28125 345.90314Q324.92188 345.7625 323.73438 345.48126Q322.5625 345.2 322.09375 344.95Q321.46875 344.6219 321.17188 344.15314Q320.875 343.66876 320.875 343.075Q320.875 342.4344 321.23438 341.8719Q321.60938 341.29376 322.3125 341.0125Q323.03125 340.71564 323.89062 340.71564Q324.84375 340.71564 325.57812 341.02814Q326.3125 341.325 326.70312 341.9344Q327.09375 342.52814 327.125 343.27814L326.03125 343.35626Q325.9375 342.54376 325.42188 342.1375Q324.92188 341.71564 323.9375 341.71564Q322.90625 341.71564 322.4375 342.09064Q321.96875 342.46564 321.96875 342.9969Q321.96875 343.46564 322.29688 343.7625Q322.625 344.0594 324.0 344.3719Q325.39062 344.6844 325.90625 344.91876Q326.65625 345.27814 327.01562 345.8094Q327.375 346.325 327.375 347.02814Q327.375 347.71564 326.98438 348.325Q326.59375 348.91876 325.85938 349.2625Q325.125 349.59064 324.20312 349.59064Q323.03125 349.59064 322.23438 349.2625Q321.45312 348.91876 321.0 348.23126Q320.5625 347.54376 320.54688 346.6844ZM328.79688 342.075L328.79688 340.85626L329.85938 340.85626L329.85938 342.075L328.79688 342.075ZM328.79688 349.45L328.79688 343.23126L329.85938 343.23126L329.85938 349.45L328.79688 349.45ZM331.59375 349.96564L332.625 350.1219Q332.6875 350.59064 332.98438 350.8094Q333.375 351.10626 334.04688 351.10626Q334.78125 351.10626 335.17188 350.8094Q335.57812 350.5125 335.71875 349.9969Q335.8125 349.66876 335.79688 348.6375Q335.10938 349.45 334.07812 349.45Q332.79688 349.45 332.09375 348.52814Q331.39062 347.59064 331.39062 346.3094Q331.39062 345.41876 331.70312 344.66876Q332.03125 343.90314 332.64062 343.4969Q333.25 343.09064 334.07812 343.09064Q335.1875 343.09064 335.90625 343.98126L335.90625 343.23126L336.875 343.23126L336.875 348.60626Q336.875 350.0594 336.57812 350.66876Q336.28125 351.27814 335.64062 351.6219Q335.0 351.98126 334.0625 351.98126Q332.95312 351.98126 332.26562 351.48126Q331.57812 350.98126 331.59375 349.96564ZM332.46875 346.23126Q332.46875 347.45 332.95312 348.0125Q333.4375 348.575 334.17188 348.575Q334.90625 348.575 335.39062 348.0125Q335.89062 347.45 335.89062 346.2625Q335.89062 345.1219 335.375 344.54376Q334.875 343.96564 334.15625 343.96564Q333.45312 343.96564 332.95312 344.54376Q332.46875 345.10626 332.46875 346.23126ZM338.79688 349.45L338.79688 343.23126L339.73438 343.23126L339.73438 344.10626Q340.42188 343.09064 341.71875 343.09064Q342.28125 343.09064 342.75 343.29376Q343.23438 343.4969 343.46875 343.825Q343.70312 344.15314 343.79688 344.59064Q343.84375 344.8875 343.84375 345.6219L343.84375 349.45L342.79688 349.45L342.79688 345.66876Q342.79688 345.0125 342.67188 344.7Q342.54688 344.3875 342.23438 344.2Q341.92188 343.9969 341.5 343.9969Q340.82812 343.9969 340.32812 344.4344Q339.84375 344.85626 339.84375 346.04376L339.84375 349.45L338.79688 349.45ZM349.85938 348.6844Q349.26562 349.1844 348.71875 349.3875Q348.1875 349.59064 347.5625 349.59064Q346.53125 349.59064 345.98438 349.09064Q345.4375 348.59064 345.4375 347.8094Q345.4375 347.35626 345.64062 346.98126Q345.84375 346.59064 346.1875 346.3719Q346.53125 346.1375 346.95312 346.02814Q347.25 345.9344 347.89062 345.85626Q349.15625 345.71564 349.76562 345.4969Q349.76562 345.27814 349.76562 345.23126Q349.76562 344.575 349.46875 344.3094Q349.0625 343.96564 348.26562 343.96564Q347.53125 343.96564 347.17188 344.23126Q346.8125 344.48126 346.64062 345.1375L345.60938 344.9969Q345.75 344.34064 346.07812 343.9344Q346.40625 343.52814 347.01562 343.3094Q347.625 343.09064 348.42188 343.09064Q349.21875 343.09064 349.71875 343.27814Q350.21875 343.46564 350.45312 343.7469Q350.6875 344.02814 350.78125 344.46564Q350.82812 344.73126 350.82812 345.4344L350.82812 346.84064Q350.82812 348.3094 350.89062 348.7Q350.96875 349.09064 351.17188 349.45L350.0625 349.45Q349.90625 349.1219 349.85938 348.6844ZM349.76562 346.325Q349.1875 346.5594 348.04688 346.73126Q347.39062 346.825 347.125 346.95Q346.85938 347.0594 346.70312 347.27814Q346.5625 347.4969 346.5625 347.77814Q346.5625 348.2 346.875 348.48126Q347.20312 348.7625 347.8125 348.7625Q348.42188 348.7625 348.89062 348.4969Q349.375 348.23126 349.59375 347.7625Q349.76562 347.40314 349.76562 346.71564L349.76562 346.325ZM352.76562 349.45L352.76562 340.85626L353.82812 340.85626L353.82812 349.45L352.76562 349.45ZM355.375 347.59064L356.40625 347.4344Q356.5 348.0594 356.89062 348.3875Q357.29688 348.71564 358.03125 348.71564Q358.75 348.71564 359.09375 348.4344Q359.45312 348.1375 359.45312 347.73126Q359.45312 347.3719 359.14062 347.16876Q358.92188 347.02814 358.0625 346.8094Q356.90625 346.5125 356.45312 346.3094Q356.01562 346.09064 355.78125 345.71564Q355.54688 345.34064 355.54688 344.8719Q355.54688 344.46564 355.73438 344.10626Q355.92188 343.7469 356.25 343.5125Q356.5 343.34064 356.92188 343.21564Q357.34375 343.09064 357.84375 343.09064Q358.5625 343.09064 359.10938 343.3094Q359.67188 343.5125 359.9375 343.8719Q360.20312 344.23126 360.29688 344.825L359.26562 344.96564Q359.20312 344.4969 358.85938 344.23126Q358.53125 343.95 357.90625 343.95Q357.1875 343.95 356.875 344.2Q356.5625 344.4344 356.5625 344.7625Q356.5625 344.96564 356.6875 345.1219Q356.82812 345.29376 357.09375 345.40314Q357.25 345.46564 358.03125 345.66876Q359.15625 345.98126 359.59375 346.16876Q360.03125 346.35626 360.28125 346.71564Q360.53125 347.075 360.53125 347.6219Q360.53125 348.15314 360.21875 348.6219Q359.92188 349.075 359.34375 349.34064Q358.76562 349.59064 358.03125 349.59064Q356.8125 349.59064 356.17188 349.09064Q355.54688 348.575 355.375 347.59064ZM364.98438 349.45L368.28125 340.85626L369.5 340.85626L373.01562 349.45L371.73438 349.45L370.71875 346.84064L367.14062 346.84064L366.1875 349.45L364.98438 349.45ZM367.46875 345.91876L370.375 345.91876L369.48438 343.54376Q369.0625 342.46564 368.875 341.7625Q368.70312 342.59064 368.40625 343.40314L367.46875 345.91876ZM376.82812 349.45L376.82812 348.66876Q376.23438 349.59064 375.09375 349.59064Q374.34375 349.59064 373.71875 349.1844Q373.09375 348.7625 372.75 348.02814Q372.40625 347.29376 372.40625 346.34064Q372.40625 345.41876 372.71875 344.65314Q373.03125 343.8875 373.65625 343.4969Q374.28125 343.09064 375.04688 343.09064Q375.60938 343.09064 376.04688 343.325Q376.48438 343.5594 376.76562 343.9344L376.76562 340.85626L377.8125 340.85626L377.8125 349.45L376.82812 349.45ZM373.5 346.34064Q373.5 347.54376 374.0 348.1375Q374.5 348.71564 375.1875 348.71564Q375.875 348.71564 376.35938 348.15314Q376.84375 347.59064 376.84375 346.4344Q376.84375 345.15314 376.34375 344.5594Q375.85938 343.96564 375.14062 343.96564Q374.4375 343.96564 373.96875 344.54376Q373.5 345.10626 373.5 346.34064ZM383.82812 349.45L383.82812 348.66876Q383.23438 349.59064 382.09375 349.59064Q381.34375 349.59064 380.71875 349.1844Q380.09375 348.7625 379.75 348.02814Q379.40625 347.29376 379.40625 346.34064Q379.40625 345.41876 379.71875 344.65314Q380.03125 343.8875 380.65625 343.4969Q381.28125 343.09064 382.04688 343.09064Q382.60938 343.09064 383.04688 343.325Q383.48438 343.5594 383.76562 343.9344L383.76562 340.85626L384.8125 340.85626L384.8125 349.45L383.82812 349.45ZM380.5 346.34064Q380.5 347.54376 381.0 348.1375Q381.5 348.71564 382.1875 348.71564Q382.875 348.71564 383.35938 348.15314Q383.84375 347.59064 383.84375 346.4344Q383.84375 345.15314 383.34375 344.5594Q382.85938 343.96564 382.14062 343.96564Q381.4375 343.96564 380.96875 344.54376Q380.5 345.10626 380.5 346.34064ZM391.04688 347.45L392.14062 347.575Q391.89062 348.52814 391.1875 349.0594Q390.48438 349.59064 389.40625 349.59064Q388.04688 349.59064 387.23438 348.7469Q386.4375 347.90314 386.4375 346.3875Q386.4375 344.825 387.25 343.96564Q388.0625 343.09064 389.34375 343.09064Q390.59375 343.09064 391.375 343.9344Q392.17188 344.77814 392.17188 346.325Q392.17188 346.41876 392.17188 346.60626L387.53125 346.60626Q387.59375 347.6375 388.10938 348.1844Q388.625 348.71564 389.40625 348.71564Q389.98438 348.71564 390.39062 348.41876Q390.8125 348.10626 391.04688 347.45ZM387.59375 345.7469L391.0625 345.7469Q391.0 344.95 390.67188 344.5594Q390.15625 343.95 389.35938 343.95Q388.625 343.95 388.125 344.4344Q387.64062 344.91876 387.59375 345.7469ZM397.82812 349.45L397.82812 348.66876Q397.23438 349.59064 396.09375 349.59064Q395.34375 349.59064 394.71875 349.1844Q394.09375 348.7625 393.75 348.02814Q393.40625 347.29376 393.40625 346.34064Q393.40625 345.41876 393.71875 344.65314Q394.03125 343.8875 394.65625 343.4969Q395.28125 343.09064 396.04688 343.09064Q396.60938 343.09064 397.04688 343.325Q397.48438 343.5594 397.76562 343.9344L397.76562 340.85626L398.8125 340.85626L398.8125 349.45L397.82812 349.45ZM394.5 346.34064Q394.5 347.54376 395.0 348.1375Q395.5 348.71564 396.1875 348.71564Q396.875 348.71564 397.35938 348.15314Q397.84375 347.59064 397.84375 346.4344Q397.84375 345.15314 397.34375 344.5594Q396.85938 343.96564 396.14062 343.96564Q395.4375 343.96564 394.96875 344.54376Q394.5 345.10626 394.5 346.34064Z" fill-rule="nonzero"/><path fill="#000000" d="M26.784388 291.63647L26.690638 290.57397Q27.346888 290.49585 27.753138 290.2146Q28.159388 289.93335 28.425013 289.35522Q28.675013 288.76147 28.675013 288.0271Q28.675013 287.38647 28.487513 286.88647Q28.284388 286.38647 27.956263 286.1521Q27.612513 285.9021 27.221888 285.9021Q26.815638 285.9021 26.518763 286.13647Q26.206263 286.37085 26.003138 286.9021Q25.862513 287.26147 25.581263 288.44897Q25.300013 289.62085 25.050013 290.0896Q24.721888 290.7146 24.253138 291.01147Q23.768763 291.30835 23.175013 291.30835Q22.534388 291.30835 21.971888 290.94897Q21.393763 290.57397 21.112513 289.87085Q20.815638 289.1521 20.815638 288.29272Q20.815638 287.3396 21.128138 286.60522Q21.425013 285.87085 22.034388 285.48022Q22.628138 285.0896 23.378138 285.05835L23.456263 286.1521Q22.643763 286.24585 22.237513 286.76147Q21.815638 287.26147 21.815638 288.24585Q21.815638 289.2771 22.190638 289.74585Q22.565638 290.2146 23.096888 290.2146Q23.565638 290.2146 23.862513 289.88647Q24.159388 289.55835 24.471888 288.18335Q24.784388 286.79272 25.018763 286.2771Q25.378138 285.5271 25.909388 285.16772Q26.425013 284.80835 27.128138 284.80835Q27.815638 284.80835 28.425013 285.19897Q29.018763 285.5896 29.362513 286.32397Q29.690638 287.05835 29.690638 287.98022Q29.690638 289.1521 29.362513 289.94897Q29.018763 290.73022 28.331263 291.18335Q27.643763 291.62085 26.784388 291.63647ZM28.612513 281.0896L29.534388 280.93335Q29.628138 281.38647 29.628138 281.73022Q29.628138 282.30835 29.456263 282.62085Q29.268763 282.93335 28.971888 283.07397Q28.675013 283.19897 27.721888 283.19897L24.143763 283.19897L24.143763 283.9646L23.331263 283.9646L23.331263 283.19897L21.784388 283.19897L21.159388 282.1521L23.331263 282.1521L23.331263 281.0896L24.143763 281.0896L24.143763 282.1521L27.784388 282.1521Q28.237513 282.1521 28.362513 282.10522Q28.487513 282.04272 28.565638 281.91772Q28.643763 281.79272 28.643763 281.55835Q28.643763 281.37085 28.612513 281.0896ZM28.784388 276.32397Q29.284388 276.91772 29.487513 277.4646Q29.690638 277.99585 29.690638 278.62085Q29.690638 279.6521 29.190638 280.19897Q28.690638 280.74585 27.909388 280.74585Q27.456263 280.74585 27.081263 280.54272Q26.690638 280.3396 26.471888 279.99585Q26.237513 279.6521 26.128138 279.23022Q26.034388 278.93335 25.956263 278.29272Q25.815638 277.0271 25.596888 276.41772Q25.378138 276.41772 25.331263 276.41772Q24.675013 276.41772 24.409388 276.7146Q24.065638 277.12085 24.065638 277.91772Q24.065638 278.6521 24.331263 279.01147Q24.581263 279.37085 25.237513 279.54272L25.096888 280.57397Q24.440638 280.43335 24.034388 280.10522Q23.628138 279.7771 23.409388 279.16772Q23.190638 278.55835 23.190638 277.76147Q23.190638 276.9646 23.378138 276.4646Q23.565638 275.9646 23.846888 275.73022Q24.128138 275.49585 24.565638 275.4021Q24.831263 275.35522 25.534388 275.35522L26.940638 275.35522Q28.409388 275.35522 28.800013 275.29272Q29.190638 275.2146 29.550013 275.01147L29.550013 276.12085Q29.221888 276.2771 28.784388 276.32397ZM26.425013 276.41772Q26.659388 276.99585 26.831263 278.13647Q26.925013 278.79272 27.050013 279.05835Q27.159388 279.32397 27.378138 279.48022Q27.596888 279.62085 27.878138 279.62085Q28.300013 279.62085 28.581263 279.30835Q28.862513 278.98022 28.862513 278.37085Q28.862513 277.76147 28.596888 277.29272Q28.331263 276.80835 27.862513 276.5896Q27.503138 276.41772 26.815638 276.41772L26.425013 276.41772ZM29.550013 273.38647L23.331263 273.38647L23.331263 272.44897L24.206263 272.44897Q23.190638 271.76147 23.190638 270.4646Q23.190638 269.9021 23.393763 269.43335Q23.596888 268.94897 23.925013 268.7146Q24.253138 268.48022 24.690638 268.38647Q24.987513 268.3396 25.721888 268.3396L29.550013 268.3396L29.550013 269.38647L25.768763 269.38647Q25.112513 269.38647 24.800013 269.51147Q24.487513 269.63647 24.300013 269.94897Q24.096888 270.26147 24.096888 270.68335Q24.096888 271.35522 24.534388 271.85522Q24.956263 272.3396 26.143763 272.3396L29.550013 272.3396L29.550013 273.38647ZM29.550013 262.35522L28.768763 262.35522Q29.690638 262.94897 29.690638 264.0896Q29.690638 264.8396 29.284388 265.4646Q28.862513 266.0896 28.128138 266.43335Q27.393763 266.7771 26.440638 266.7771Q25.518763 266.7771 24.753138 266.4646Q23.987513 266.1521 23.596888 265.5271Q23.190638 264.9021 23.190638 264.13647Q23.190638 263.57397 23.425013 263.13647Q23.659388 262.69897 24.034388 262.41772L20.956263 262.41772L20.956263 261.37085L29.550013 261.37085L29.550013 262.35522ZM26.440638 265.68335Q27.643763 265.68335 28.237513 265.18335Q28.815638 264.68335 28.815638 263.99585Q28.815638 263.30835 28.253138 262.82397Q27.690638 262.3396 26.534388 262.3396Q25.253138 262.3396 24.659388 262.8396Q24.065638 263.32397 24.065638 264.04272Q24.065638 264.74585 24.643763 265.2146Q25.206263 265.68335 26.440638 265.68335ZM28.784388 255.32396Q29.284388 255.91771 29.487513 256.4646Q29.690638 256.99585 29.690638 257.62085Q29.690638 258.6521 29.190638 259.19897Q28.690638 259.74585 27.909388 259.74585Q27.456263 259.74585 27.081263 259.54272Q26.690638 259.3396 26.471888 258.99585Q26.237513 258.6521 26.128138 258.23022Q26.034388 257.93335 25.956263 257.29272Q25.815638 256.0271 25.596888 255.41771Q25.378138 255.41771 25.331263 255.41771Q24.675013 255.41771 24.409388 255.71458Q24.065638 256.12085 24.065638 256.91772Q24.065638 257.6521 24.331263 258.01147Q24.581263 258.37085 25.237513 258.54272L25.096888 259.57397Q24.440638 259.43335 24.034388 259.10522Q23.628138 258.7771 23.409388 258.16772Q23.190638 257.55835 23.190638 256.76147Q23.190638 255.96458 23.378138 255.46458Q23.565638 254.96458 23.846888 254.73021Q24.128138 254.49583 24.565638 254.40208Q24.831263 254.35521 25.534388 254.35521L26.940638 254.35521Q28.409388 254.35521 28.800013 254.29271Q29.190638 254.21458 29.550013 254.01146L29.550013 255.12083Q29.221888 255.27708 28.784388 255.32396ZM26.425013 255.41771Q26.659388 255.99583 26.831263 257.13647Q26.925013 257.79272 27.050013 258.05835Q27.159388 258.32397 27.378138 258.48022Q27.596888 258.62085 27.878138 258.62085Q28.300013 258.62085 28.581263 258.30835Q28.862513 257.98022 28.862513 257.37085Q28.862513 256.76147 28.596888 256.29272Q28.331263 255.80833 27.862513 255.58958Q27.503138 255.41771 26.815638 255.41771L26.425013 255.41771ZM29.550013 252.40208L23.331263 252.40208L23.331263 251.44896L24.268763 251.44896Q23.612513 251.08958 23.409388 250.79271Q23.190638 250.48021 23.190638 250.10521Q23.190638 249.57396 23.518763 249.02708L24.503138 249.38646Q24.268763 249.77708 24.268763 250.15208Q24.268763 250.51146 24.487513 250.79271Q24.690638 251.05833 25.065638 251.16771Q25.628138 251.35521 26.284388 251.35521L29.550013 251.35521L29.550013 252.40208ZM29.550013 244.35521L28.768763 244.35521Q29.690638 244.94896 29.690638 246.08958Q29.690638 246.83958 29.284388 247.46458Q28.862513 248.08958 28.128138 248.43333Q27.393763 248.77708 26.440638 248.77708Q25.518763 248.77708 24.753138 248.46458Q23.987513 248.15208 23.596888 247.52708Q23.190638 246.90208 23.190638 246.13646Q23.190638 245.57396 23.425013 245.13646Q23.659388 244.69896 24.034388 244.41771L20.956263 244.41771L20.956263 243.37083L29.550013 243.37083L29.550013 244.35521ZM26.440638 247.68333Q27.643763 247.68333 28.237513 247.18333Q28.815638 246.68333 28.815638 245.99583Q28.815638 245.30833 28.253138 244.82396Q27.690638 244.33958 26.534388 244.33958Q25.253138 244.33958 24.659388 244.83958Q24.065638 245.32396 24.065638 246.04271Q24.065638 246.74583 24.643763 247.21458Q25.206263 247.68333 26.440638 247.68333ZM29.550013 238.26146L20.956263 238.26146L20.956263 235.29271Q20.956263 234.29271 21.081263 233.76146Q21.253138 233.02708 21.690638 232.51146Q22.268763 231.82396 23.175013 231.49583Q24.065638 231.15208 25.206263 231.15208Q26.190638 231.15208 26.940638 231.38646Q27.690638 231.60521 28.190638 231.96458Q28.690638 232.32396 28.971888 232.76146Q29.253138 233.18333 29.409388 233.77708Q29.550013 234.37083 29.550013 235.15208L29.550013 238.26146ZM28.534388 237.12083L28.534388 235.29271Q28.534388 234.43333 28.378138 233.94896Q28.221888 233.46458 27.925013 233.18333Q27.534388 232.77708 26.846888 232.55833Q26.159388 232.32396 25.190638 232.32396Q23.846888 232.32396 23.128138 232.77708Q22.393763 233.21458 22.143763 233.83958Q21.971888 234.30833 21.971888 235.30833L21.971888 237.12083L28.534388 237.12083ZM27.550013 225.13646L27.675013 224.04271Q28.628138 224.29271 29.159388 224.99583Q29.690638 225.69896 29.690638 226.77708Q29.690638 228.13646 28.846888 228.94896Q28.003138 229.74583 26.487513 229.74583Q24.925013 229.74583 24.065638 228.93333Q23.190638 228.12083 23.190638 226.83958Q23.190638 225.58958 24.034388 224.80833Q24.878138 224.01146 26.425013 224.01146Q26.518763 224.01146 26.706263 224.01146L26.706263 228.65208Q27.737513 228.58958 28.284388 228.07396Q28.815638 227.55833 28.815638 226.77708Q28.815638 226.19896 28.518763 225.79271Q28.206263 225.37083 27.550013 225.13646ZM25.846888 228.58958L25.846888 225.12083Q25.050013 225.18333 24.659388 225.51146Q24.050013 226.02708 24.050013 226.82396Q24.050013 227.55833 24.534388 228.05833Q25.018763 228.54271 25.846888 228.58958ZM29.550013 220.66771L23.331263 223.02708L23.331263 221.91771L27.050013 220.57396Q27.659388 220.37083 28.300013 220.18333Q27.815638 220.04271 27.128138 219.79271L23.331263 218.40208L23.331263 217.32396L29.550013 219.68333L29.550013 220.66771ZM22.175013 217.38646L20.956263 217.38646L20.956263 216.32396L22.175013 216.32396L22.175013 217.38646ZM29.550013 217.38646L23.331263 217.38646L23.331263 216.32396L29.550013 216.32396L29.550013 217.38646ZM28.784388 210.32396Q29.284388 210.91771 29.487513 211.46458Q29.690638 211.99583 29.690638 212.62083Q29.690638 213.65208 29.190638 214.19896Q28.690638 214.74583 27.909388 214.74583Q27.456263 214.74583 27.081263 214.54271Q26.690638 214.33958 26.471888 213.99583Q26.237513 213.65208 26.128138 213.23021Q26.034388 212.93333 25.956263 212.29271Q25.815638 211.02708 25.596888 210.41771Q25.378138 210.41771 25.331263 210.41771Q24.675013 210.41771 24.409388 210.71458Q24.065638 211.12083 24.065638 211.91771Q24.065638 212.65208 24.331263 213.01146Q24.581263 213.37083 25.237513 213.54271L25.096888 214.57396Q24.440638 214.43333 24.034388 214.10521Q23.628138 213.77708 23.409388 213.16771Q23.190638 212.55833 23.190638 211.76146Q23.190638 210.96458 23.378138 210.46458Q23.565638 209.96458 23.846888 209.73021Q24.128138 209.49583 24.565638 209.40208Q24.831263 209.35521 25.534388 209.35521L26.940638 209.35521Q28.409388 209.35521 28.800013 209.29271Q29.190638 209.21458 29.550013 209.01146L29.550013 210.12083Q29.221888 210.27708 28.784388 210.32396ZM26.425013 210.41771Q26.659388 210.99583 26.831263 212.13646Q26.925013 212.79271 27.050013 213.05833Q27.159388 213.32396 27.378138 213.48021Q27.596888 213.62083 27.878138 213.62083Q28.300013 213.62083 28.581263 213.30833Q28.862513 212.98021 28.862513 212.37083Q28.862513 211.76146 28.596888 211.29271Q28.331263 210.80833 27.862513 210.58958Q27.503138 210.41771 26.815638 210.41771L26.425013 210.41771ZM28.612513 205.08958L29.534388 204.93333Q29.628138 205.38646 29.628138 205.73021Q29.628138 206.30833 29.456263 206.62083Q29.268763 206.93333 28.971888 207.07396Q28.675013 207.19896 27.721888 207.19896L24.143763 207.19896L24.143763 207.96458L23.331263 207.96458L23.331263 207.19896L21.784388 207.19896L21.159388 206.15208L23.331263 206.15208L23.331263 205.08958L24.143763 205.08958L24.143763 206.15208L27.784388 206.15208Q28.237513 206.15208 28.362513 206.10521Q28.487513 206.04271 28.565638 205.91771Q28.643763 205.79271 28.643763 205.55833Q28.643763 205.37083 28.612513 205.08958ZM22.175013 204.38646L20.956263 204.38646L20.956263 203.32396L22.175013 203.32396L22.175013 204.38646ZM29.550013 204.38646L23.331263 204.38646L23.331263 203.32396L29.550013 203.32396L29.550013 204.38646ZM26.440638 201.77708Q24.706263 201.77708 23.878138 200.82396Q23.190638 200.02708 23.190638 198.87083Q23.190638 197.58958 24.034388 196.77708Q24.862513 195.94896 26.346888 195.94896Q27.550013 195.94896 28.237513 196.30833Q28.925013 196.66771 29.315638 197.37083Q29.690638 198.05833 29.690638 198.87083Q29.690638 200.16771 28.862513 200.98021Q28.018763 201.77708 26.440638 201.77708ZM26.440638 200.69896Q27.628138 200.69896 28.221888 200.18333Q28.815638 199.65208 28.815638 198.87083Q28.815638 198.07396 28.221888 197.55833Q27.628138 197.04271 26.409388 197.04271Q25.253138 197.04271 24.659388 197.57396Q24.065638 198.08958 24.065638 198.87083Q24.065638 199.65208 24.659388 200.18333Q25.237513 200.69896 26.440638 200.69896ZM29.550013 194.38646L23.331263 194.38646L23.331263 193.44896L24.206263 193.44896Q23.190638 192.76146 23.190638 191.46458Q23.190638 190.90208 23.393763 190.43333Q23.596888 189.94896 23.925013 189.71458Q24.253138 189.48021 24.690638 189.38646Q24.987513 189.33958 25.721888 189.33958L29.550013 189.33958L29.550013 190.38646L25.768763 190.38646Q25.112513 190.38646 24.800013 190.51146Q24.487513 190.63646 24.300013 190.94896Q24.096888 191.26146 24.096888 191.68333Q24.096888 192.35521 24.534388 192.85521Q24.956263 193.33958 26.143763 193.33958L29.550013 193.33958L29.550013 194.38646ZM26.440638 184.77708Q24.706263 184.77708 23.878138 183.82396Q23.190638 183.02708 23.190638 181.87083Q23.190638 180.58958 24.034388 179.77708Q24.862513 178.94896 26.346888 178.94896Q27.550013 178.94896 28.237513 179.30833Q28.925013 179.66771 29.315638 180.37083Q29.690638 181.05833 29.690638 181.87083Q29.690638 183.16771 28.862513 183.98021Q28.018763 184.77708 26.440638 184.77708ZM26.440638 183.69896Q27.628138 183.69896 28.221888 183.18333Q28.815638 182.65208 28.815638 181.87083Q28.815638 181.07396 28.221888 180.55833Q27.628138 180.04271 26.409388 180.04271Q25.253138 180.04271 24.659388 180.57396Q24.065638 181.08958 24.065638 181.87083Q24.065638 182.65208 24.659388 183.18333Q25.237513 183.69896 26.440638 183.69896ZM29.550013 177.13646L24.143763 177.13646L24.143763 178.07396L23.331263 178.07396L23.331263 177.13646L22.659388 177.13646Q22.034388 177.13646 21.737513 177.02708Q21.315638 176.87083 21.065638 176.49583Q20.815638 176.10521 20.815638 175.41771Q20.815638 174.96458 20.925013 174.43333L21.831263 174.58958Q21.784388 174.91771 21.784388 175.21458Q21.784388 175.69896 21.987513 175.90208Q22.190638 176.08958 22.753138 176.08958L23.331263 176.08958L23.331263 174.87083L24.143763 174.87083L24.143763 176.08958L29.550013 176.08958L29.550013 177.13646ZM26.784388 171.63646L26.690638 170.57396Q27.346888 170.49583 27.753138 170.21458Q28.159388 169.93333 28.425013 169.35521Q28.675013 168.76146 28.675013 168.02708Q28.675013 167.38646 28.487513 166.88646Q28.284388 166.38646 27.956263 166.15208Q27.612513 165.90208 27.221888 165.90208Q26.815638 165.90208 26.518763 166.13646Q26.206263 166.37083 26.003138 166.90208Q25.862513 167.26146 25.581263 168.44896Q25.300013 169.62083 25.050013 170.08958Q24.721888 170.71458 24.253138 171.01146Q23.768763 171.30833 23.175013 171.30833Q22.534388 171.30833 21.971888 170.94896Q21.393763 170.57396 21.112513 169.87083Q20.815638 169.15208 20.815638 168.29271Q20.815638 167.33958 21.128138 166.60521Q21.425013 165.87083 22.034388 165.48021Q22.628138 165.08958 23.378138 165.05833L23.456263 166.15208Q22.643763 166.24583 22.237513 166.76146Q21.815638 167.26146 21.815638 168.24583Q21.815638 169.27708 22.190638 169.74583Q22.565638 170.21458 23.096888 170.21458Q23.565638 170.21458 23.862513 169.88646Q24.159388 169.55833 24.471888 168.18333Q24.784388 166.79271 25.018763 166.27708Q25.378138 165.52708 25.909388 165.16771Q26.425013 164.80833 27.128138 164.80833Q27.815638 164.80833 28.425013 165.19896Q29.018763 165.58958 29.362513 166.32396Q29.690638 167.05833 29.690638 167.98021Q29.690638 169.15208 29.362513 169.94896Q29.018763 170.73021 28.331263 171.18333Q27.643763 171.62083 26.784388 171.63646ZM29.550013 159.30833L28.628138 159.30833Q29.690638 160.04271 29.690638 161.29271Q29.690638 161.83958 29.487513 162.32396Q29.268763 162.79271 28.956263 163.02708Q28.628138 163.26146 28.159388 163.35521Q27.862513 163.41771 27.175013 163.41771L23.331263 163.41771L23.331263 162.35521L26.784388 162.35521Q27.596888 162.35521 27.893763 162.29271Q28.300013 162.19896 28.550013 161.88646Q28.784388 161.55833 28.784388 161.07396Q28.784388 160.60521 28.550013 160.19896Q28.300013 159.77708 27.878138 159.60521Q27.456263 159.41771 26.659388 159.41771L23.331263 159.41771L23.331263 158.37083L29.550013 158.37083L29.550013 159.30833ZM29.550013 156.38646L23.331263 156.38646L23.331263 155.44896L24.206263 155.44896Q23.737513 155.15208 23.471888 154.66771Q23.190638 154.18333 23.190638 153.55833Q23.190638 152.87083 23.471888 152.43333Q23.753138 151.98021 24.268763 151.80833Q23.190638 151.05833 23.190638 149.88646Q23.190638 148.94896 23.706263 148.46458Q24.206263 147.96458 25.284388 147.96458L29.550013 147.96458L29.550013 149.01146L25.628138 149.01146Q25.003138 149.01146 24.721888 149.12083Q24.440638 149.21458 24.268763 149.48021Q24.096888 149.74583 24.096888 150.12083Q24.096888 150.77708 24.534388 151.21458Q24.971888 151.63646 25.940638 151.63646L29.550013 151.63646L29.550013 152.69896L25.503138 152.69896Q24.800013 152.69896 24.456263 152.96458Q24.096888 153.21458 24.096888 153.79271Q24.096888 154.24583 24.331263 154.62083Q24.565638 154.99583 25.018763 155.16771Q25.471888 155.33958 26.315638 155.33958L29.550013 155.33958L29.550013 156.38646ZM29.550013 145.38646L23.331263 145.38646L23.331263 144.44896L24.206263 144.44896Q23.737513 144.15208 23.471888 143.66771Q23.190638 143.18333 23.190638 142.55833Q23.190638 141.87083 23.471888 141.43333Q23.753138 140.98021 24.268763 140.80833Q23.190638 140.05833 23.190638 138.88646Q23.190638 137.94896 23.706263 137.46458Q24.206263 136.96458 25.284388 136.96458L29.550013 136.96458L29.550013 138.01146L25.628138 138.01146Q25.003138 138.01146 24.721888 138.12083Q24.440638 138.21458 24.268763 138.48021Q24.096888 138.74583 24.096888 139.12083Q24.096888 139.77708 24.534388 140.21458Q24.971888 140.63646 25.940638 140.63646L29.550013 140.63646L29.550013 141.69896L25.503138 141.69896Q24.800013 141.69896 24.456263 141.96458Q24.096888 142.21458 24.096888 142.79271Q24.096888 143.24583 24.331263 143.62083Q24.565638 143.99583 25.018763 144.16771Q25.471888 144.33958 26.315638 144.33958L29.550013 144.33958L29.550013 145.38646ZM27.550013 130.13646L27.675013 129.04271Q28.628138 129.29271 29.159388 129.99583Q29.690638 130.69896 29.690638 131.77708Q29.690638 133.13646 28.846888 133.94896Q28.003138 134.74583 26.487513 134.74583Q24.925013 134.74583 24.065638 133.93333Q23.190638 133.12083 23.190638 131.83958Q23.190638 130.58958 24.034388 129.80833Q24.878138 129.01146 26.425013 129.01146Q26.518763 129.01146 26.706263 129.01146L26.706263 133.65208Q27.737513 133.58958 28.284388 133.07396Q28.815638 132.55833 28.815638 131.77708Q28.815638 131.19896 28.518763 130.79271Q28.206263 130.37083 27.550013 130.13646ZM25.846888 133.58958L25.846888 130.12083Q25.050013 130.18333 24.659388 130.51146Q24.050013 131.02708 24.050013 131.82396Q24.050013 132.55833 24.534388 133.05833Q25.018763 133.54271 25.846888 133.58958ZM29.550013 123.35521L28.768763 123.35521Q29.690638 123.94896 29.690638 125.089584Q29.690638 125.839584 29.284388 126.464584Q28.862513 127.089584 28.128138 127.433334Q27.393763 127.777084 26.440638 127.777084Q25.518763 127.777084 24.753138 127.464584Q23.987513 127.152084 23.596888 126.527084Q23.190638 125.902084 23.190638 125.13646Q23.190638 124.57396 23.425013 124.13646Q23.659388 123.69896 24.034388 123.41771L20.956263 123.41771L20.956263 122.370834L29.550013 122.370834L29.550013 123.35521ZM26.440638 126.683334Q27.643763 126.683334 28.237513 126.183334Q28.815638 125.683334 28.815638 124.995834Q28.815638 124.308334 28.253138 123.82396Q27.690638 123.339584 26.534388 123.339584Q25.253138 123.339584 24.659388 123.839584Q24.065638 124.32396 24.065638 125.04271Q24.065638 125.745834 24.643763 126.214584Q25.206263 126.683334 26.440638 126.683334ZM26.784388 117.63646L26.690638 116.57396Q27.346888 116.495834 27.753138 116.214584Q28.159388 115.933334 28.425013 115.35521Q28.675013 114.76146 28.675013 114.027084Q28.675013 113.38646 28.487513 112.88646Q28.284388 112.38646 27.956263 112.152084Q27.612513 111.902084 27.221888 111.902084Q26.815638 111.902084 26.518763 112.13646Q26.206263 112.370834 26.003138 112.902084Q25.862513 113.26146 25.581263 114.44896Q25.300013 115.620834 25.050013 116.089584Q24.721888 116.714584 24.253138 117.01146Q23.768763 117.308334 23.175013 117.308334Q22.534388 117.308334 21.971888 116.94896Q21.393763 116.57396 21.112513 115.870834Q20.815638 115.152084 20.815638 114.29271Q20.815638 113.339584 21.128138 112.60521Q21.425013 111.870834 22.034388 111.48021Q22.628138 111.089584 23.378138 111.058334L23.456263 112.152084Q22.643763 112.245834 22.237513 112.76146Q21.815638 113.26146 21.815638 114.245834Q21.815638 115.277084 22.190638 115.745834Q22.565638 116.214584 23.096888 116.214584Q23.565638 116.214584 23.862513 115.88646Q24.159388 115.558334 24.471888 114.183334Q24.784388 112.79271 25.018763 112.277084Q25.378138 111.527084 25.909388 111.16771Q26.425013 110.808334 27.128138 110.808334Q27.815638 110.808334 28.425013 111.19896Q29.018763 111.589584 29.362513 112.32396Q29.690638 113.058334 29.690638 113.98021Q29.690638 115.152084 29.362513 115.94896Q29.018763 116.73021 28.331263 117.183334Q27.643763 117.620834 26.784388 117.63646ZM22.175013 109.38646L20.956263 109.38646L20.956263 108.32396L22.175013 108.32396L22.175013 109.38646ZM29.550013 109.38646L23.331263 109.38646L23.331263 108.32396L29.550013 108.32396L29.550013 109.38646ZM30.065638 106.589584L30.221888 105.558334Q30.690638 105.495834 30.909388 105.19896Q31.206263 104.808334 31.206263 104.13646Q31.206263 103.402084 30.909388 103.01146Q30.612513 102.60521 30.096888 102.464584Q29.768763 102.370834 28.737513 102.38646Q29.550013 103.07396 29.550013 104.10521Q29.550013 105.38646 28.628138 106.089584Q27.690638 106.79271 26.409388 106.79271Q25.518763 106.79271 24.768763 106.48021Q24.003138 106.152084 23.596888 105.54271Q23.190638 104.933334 23.190638 104.10521Q23.190638 102.995834 24.081263 102.277084L23.331263 102.277084L23.331263 101.308334L28.706263 101.308334Q30.159388 101.308334 30.768763 101.60521Q31.378138 101.902084 31.721888 102.54271Q32.08126 103.183334 32.08126 104.120834Q32.08126 105.23021 31.581263 105.91771Q31.081263 106.60521 30.065638 106.589584ZM26.331263 105.714584Q27.550013 105.714584 28.112513 105.23021Q28.675013 104.745834 28.675013 104.01146Q28.675013 103.277084 28.112513 102.79271Q27.550013 102.29271 26.362513 102.29271Q25.221888 102.29271 24.643763 102.808334Q24.065638 103.308334 24.065638 104.027084Q24.065638 104.73021 24.643763 105.23021Q25.206263 105.714584 26.331263 105.714584ZM29.550013 99.38646L23.331263 99.38646L23.331263 98.44896L24.206263 98.44896Q23.190638 97.76146 23.190638 96.464584Q23.190638 95.902084 23.393763 95.433334Q23.596888 94.94896 23.925013 94.714584Q24.253138 94.48021 24.690638 94.38646Q24.987513 94.339584 25.721888 94.339584L29.550013 94.339584L29.550013 95.38646L25.768763 95.38646Q25.112513 95.38646 24.800013 95.51146Q24.487513 95.63646 24.300013 95.94896Q24.096888 96.26146 24.096888 96.683334Q24.096888 97.35521 24.534388 97.85521Q24.956263 98.339584 26.143763 98.339584L29.550013 98.339584L29.550013 99.38646ZM28.784388 88.32396Q29.284388 88.91771 29.487513 89.464584Q29.690638 89.995834 29.690638 90.620834Q29.690638 91.652084 29.190638 92.19896Q28.690638 92.745834 27.909388 92.745834Q27.456263 92.745834 27.081263 92.54271Q26.690638 92.339584 26.471888 91.995834Q26.237513 91.652084 26.128138 91.23021Q26.034388 90.933334 25.956263 90.29271Q25.815638 89.027084 25.596888 88.41771Q25.378138 88.41771 25.331263 88.41771Q24.675013 88.41771 24.409388 88.714584Q24.065638 89.120834 24.065638 89.91771Q24.065638 90.652084 24.331263 91.01146Q24.581263 91.370834 25.237513 91.54271L25.096888 92.57396Q24.440638 92.433334 24.034388 92.10521Q23.628138 91.777084 23.409388 91.16771Q23.190638 90.558334 23.190638 89.76146Q23.190638 88.964584 23.378138 88.464584Q23.565638 87.964584 23.846888 87.73021Q24.128138 87.495834 24.565638 87.402084Q24.831263 87.35521 25.534388 87.35521L26.940638 87.35521Q28.409388 87.35521 28.800013 87.29271Q29.190638 87.214584 29.550013 87.01146L29.550013 88.120834Q29.221888 88.277084 28.784388 88.32396ZM26.425013 88.41771Q26.659388 88.995834 26.831263 90.13646Q26.925013 90.79271 27.050013 91.058334Q27.159388 91.32396 27.378138 91.48021Q27.596888 91.620834 27.878138 91.620834Q28.300013 91.620834 28.581263 91.308334Q28.862513 90.98021 28.862513 90.370834Q28.862513 89.76146 28.596888 89.29271Q28.331263 88.808334 27.862513 88.589584Q27.503138 88.41771 26.815638 88.41771L26.425013 88.41771ZM29.550013 85.41771L20.956263 85.41771L20.956263 84.35521L29.550013 84.35521L29.550013 85.41771Z" fill-rule="nonzero"/><path fill="#000000" d="M55.05 300.21564Q55.05 298.6844 55.3625 297.7625Q55.675 296.825 56.284374 296.325Q56.909374 295.825 57.846874 295.825Q58.534374 295.825 59.05 296.10626Q59.58125 296.3875 59.925 296.91876Q60.26875 297.4344 60.45625 298.1844Q60.64375 298.9344 60.64375 300.21564Q60.64375 301.73126 60.33125 302.65314Q60.034374 303.575 59.409374 304.09064Q58.8 304.59064 57.846874 304.59064Q56.6125 304.59064 55.89375 303.7Q55.05 302.6375 55.05 300.21564ZM56.128124 300.21564Q56.128124 302.325 56.628124 303.02814Q57.128124 303.73126 57.846874 303.73126Q58.58125 303.73126 59.065624 303.02814Q59.565624 302.325 59.565624 300.21564Q59.565624 298.09064 59.065624 297.40314Q58.58125 296.7 57.83125 296.7Q57.1125 296.7 56.675 297.3094Q56.128124 298.09064 56.128124 300.21564ZM62.64375 304.45L62.64375 303.2469L63.846874 303.2469L63.846874 304.45L62.64375 304.45ZM65.05 300.21564Q65.05 298.6844 65.3625 297.7625Q65.675 296.825 66.28438 296.325Q66.90938 295.825 67.84688 295.825Q68.53438 295.825 69.05 296.10626Q69.58125 296.3875 69.925 296.91876Q70.26875 297.4344 70.45625 298.1844Q70.64375 298.9344 70.64375 300.21564Q70.64375 301.73126 70.33125 302.65314Q70.03438 303.575 69.40938 304.09064Q68.8 304.59064 67.84688 304.59064Q66.6125 304.59064 65.89375 303.7Q65.05 302.6375 65.05 300.21564ZM66.12813 300.21564Q66.12813 302.325 66.62813 303.02814Q67.12813 303.73126 67.84688 303.73126Q68.58125 303.73126 69.06563 303.02814Q69.56563 302.325 69.56563 300.21564Q69.56563 298.09064 69.06563 297.40314Q68.58125 296.7 67.83125 296.7Q67.1125 296.7 66.675 297.3094Q66.12813 298.09064 66.12813 300.21564Z" fill-rule="nonzero"/><path fill="#000000" d="M55.05 252.50897Q55.05 250.97772 55.3625 250.05585Q55.675 249.11835 56.284374 248.61835Q56.909374 248.11835 57.846874 248.11835Q58.534374 248.11835 59.05 248.3996Q59.58125 248.68085 59.925 249.2121Q60.26875 249.72772 60.45625 250.47772Q60.64375 251.22772 60.64375 252.50897Q60.64375 254.0246 60.33125 254.94647Q60.034374 255.86835 59.409374 256.38397Q58.8 256.88397 57.846874 256.88397Q56.6125 256.88397 55.89375 255.99335Q55.05 254.93085 55.05 252.50897ZM56.128124 252.50897Q56.128124 254.61835 56.628124 255.32147Q57.128124 256.0246 57.846874 256.0246Q58.58125 256.0246 59.065624 255.32147Q59.565624 254.61835 59.565624 252.50897Q59.565624 250.38397 59.065624 249.69647Q58.58125 248.99335 57.83125 248.99335Q57.1125 248.99335 56.675 249.60272Q56.128124 250.38397 56.128124 252.50897ZM62.64375 256.74335L62.64375 255.54022L63.846874 255.54022L63.846874 256.74335L62.64375 256.74335ZM65.05 254.49335L66.15938 254.3996Q66.28438 255.2121 66.72188 255.61835Q67.175 256.0246 67.81563 256.0246Q68.56563 256.0246 69.09688 255.44647Q69.62813 254.86835 69.62813 253.93085Q69.62813 253.0246 69.1125 252.50897Q68.6125 251.97772 67.78438 251.97772Q67.28438 251.97772 66.8625 252.2121Q66.45625 252.44647 66.22188 252.80585L65.2375 252.68085L66.06563 248.2746L70.34688 248.2746L70.34688 249.2746L66.90938 249.2746L66.45625 251.5871Q67.22188 251.04022 68.06563 251.04022Q69.19063 251.04022 69.95625 251.82147Q70.7375 252.60272 70.7375 253.8371Q70.7375 254.99335 70.06563 255.85272Q69.2375 256.88397 67.81563 256.88397Q66.64375 256.88397 65.89375 256.22772Q65.15938 255.57147 65.05 254.49335Z" fill-rule="nonzero"/><path fill="#000000" d="M59.01875 209.03667L57.971874 209.03667L57.971874 202.31792Q57.58125 202.67729 56.95625 203.05229Q56.346874 203.41167 55.8625 203.58354L55.8625 202.56792Q56.7375 202.14604 57.39375 201.56792Q58.065624 200.97417 58.346874 200.41167L59.01875 200.41167L59.01875 209.03667ZM62.64375 209.03667L62.64375 207.83354L63.846874 207.83354L63.846874 209.03667L62.64375 209.03667ZM65.05 204.80229Q65.05 203.27104 65.3625 202.34917Q65.675 201.41167 66.28438 200.91167Q66.90938 200.41167 67.84688 200.41167Q68.53438 200.41167 69.05 200.69292Q69.58125 200.97417 69.925 201.50542Q70.26875 202.02104 70.45625 202.77104Q70.64375 203.52104 70.64375 204.80229Q70.64375 206.31792 70.33125 207.23979Q70.03438 208.16167 69.40938 208.67729Q68.8 209.17729 67.84688 209.17729Q66.6125 209.17729 65.89375 208.28667Q65.05 207.22417 65.05 204.80229ZM66.12813 204.80229Q66.12813 206.91167 66.62813 207.61479Q67.12813 208.31792 67.84688 208.31792Q68.58125 208.31792 69.06563 207.61479Q69.56563 206.91167 69.56563 204.80229Q69.56563 202.67729 69.06563 201.98979Q68.58125 201.28667 67.83125 201.28667Q67.1125 201.28667 66.675 201.89604Q66.12813 202.67729 66.12813 204.80229Z" fill-rule="nonzero"/><path fill="#000000" d="M59.01875 161.33L57.971874 161.33L57.971874 154.61125Q57.58125 154.97063 56.95625 155.34563Q56.346874 155.705 55.8625 155.87688L55.8625 154.86125Q56.7375 154.43938 57.39375 153.86125Q58.065624 153.2675 58.346874 152.705L59.01875 152.705L59.01875 161.33ZM62.64375 161.33L62.64375 160.12688L63.846874 160.12688L63.846874 161.33L62.64375 161.33ZM65.05 159.08L66.15938 158.98625Q66.28438 159.79875 66.72188 160.205Q67.175 160.61125 67.81563 160.61125Q68.56563 160.61125 69.09688 160.03313Q69.62813 159.455 69.62813 158.5175Q69.62813 157.61125 69.1125 157.09563Q68.6125 156.56438 67.78438 156.56438Q67.28438 156.56438 66.8625 156.79875Q66.45625 157.03313 66.22188 157.3925L65.2375 157.2675L66.06563 152.86125L70.34688 152.86125L70.34688 153.86125L66.90938 153.86125L66.45625 156.17375Q67.22188 155.62688 68.06563 155.62688Q69.19063 155.62688 69.95625 156.40813Q70.7375 157.18938 70.7375 158.42375Q70.7375 159.58 70.06563 160.43938Q69.2375 161.47063 67.81563 161.47063Q66.64375 161.47063 65.89375 160.81438Q65.15938 160.15813 65.05 159.08Z" fill-rule="nonzero"/><path fill="#000000" d="M60.596874 112.60771L60.596874 113.62334L54.909374 113.62334Q54.909374 113.24834 55.034374 112.88896Q55.253124 112.31084 55.721874 111.74834Q56.20625 111.18584 57.1125 110.45146Q58.51875 109.29521 59.003124 108.62334Q59.503124 107.95146 59.503124 107.35771Q59.503124 106.73271 59.05 106.31084Q58.596874 105.87334 57.878124 105.87334Q57.1125 105.87334 56.659374 106.32646Q56.20625 106.77959 56.190624 107.59209L55.1125 107.48271Q55.221874 106.26396 55.940624 105.63896Q56.675 104.99834 57.909374 104.99834Q59.14375 104.99834 59.8625 105.68584Q60.58125 106.37334 60.58125 107.38896Q60.58125 107.90459 60.3625 108.40459Q60.159374 108.88896 59.659374 109.45146Q59.175 109.99834 58.05 110.95146Q57.096874 111.74834 56.815624 112.04521Q56.55 112.32646 56.378124 112.60771L60.596874 112.60771ZM62.64375 113.62334L62.64375 112.42021L63.846874 112.42021L63.846874 113.62334L62.64375 113.62334ZM65.05 109.38896Q65.05 107.85771 65.3625 106.93584Q65.675 105.99834 66.28438 105.49834Q66.90938 104.99834 67.84688 104.99834Q68.53438 104.99834 69.05 105.27959Q69.58125 105.56084 69.925 106.09209Q70.26875 106.60771 70.45625 107.35771Q70.64375 108.10771 70.64375 109.38896Q70.64375 110.90459 70.33125 111.82646Q70.03438 112.74834 69.40938 113.26396Q68.8 113.76396 67.84688 113.76396Q66.6125 113.76396 65.89375 112.87334Q65.05 111.81084 65.05 109.38896ZM66.12813 109.38896Q66.12813 111.49834 66.62813 112.20146Q67.12813 112.90459 67.84688 112.90459Q68.58125 112.90459 69.06563 112.20146Q69.56563 111.49834 69.56563 109.38896Q69.56563 107.26396 69.06563 106.57646Q68.58125 105.87334 67.83125 105.87334Q67.1125 105.87334 66.675 106.48271Q66.12813 107.26396 66.12813 109.38896Z" fill-rule="nonzero"/><path fill="#000000" d="M60.596874 64.90104L60.596874 65.916664L54.909374 65.916664Q54.909374 65.541664 55.034374 65.18229Q55.253124 64.604164 55.721874 64.041664Q56.20625 63.479164 57.1125 62.74479Q58.51875 61.58854 59.003124 60.916664Q59.503124 60.24479 59.503124 59.65104Q59.503124 59.02604 59.05 58.604164Q58.596874 58.166664 57.878124 58.166664Q57.1125 58.166664 56.659374 58.61979Q56.20625 59.072914 56.190624 59.885414L55.1125 59.77604Q55.221874 58.55729 55.940624 57.93229Q56.675 57.291664 57.909374 57.291664Q59.14375 57.291664 59.8625 57.979164Q60.58125 58.666664 60.58125 59.68229Q60.58125 60.197914 60.3625 60.697914Q60.159374 61.18229 59.659374 61.74479Q59.175 62.291664 58.05 63.24479Q57.096874 64.041664 56.815624 64.33854Q56.55 64.61979 56.378124 64.90104L60.596874 64.90104ZM62.64375 65.916664L62.64375 64.71354L63.846874 64.71354L63.846874 65.916664L62.64375 65.916664ZM65.05 63.666664L66.15938 63.572914Q66.28438 64.385414 66.72188 64.791664Q67.175 65.197914 67.81563 65.197914Q68.56563 65.197914 69.09688 64.61979Q69.62813 64.041664 69.62813 63.104164Q69.62813 62.197914 69.1125 61.68229Q68.6125 61.15104 67.78438 61.15104Q67.28438 61.15104 66.8625 61.385414Q66.45625 61.61979 66.22188 61.979164L65.2375 61.854164L66.06563 57.447914L70.34688 57.447914L70.34688 58.447914L66.90938 58.447914L66.45625 60.760414Q67.22188 60.21354 68.06563 60.21354Q69.19063 60.21354 69.95625 60.99479Q70.7375 61.77604 70.7375 63.010414Q70.7375 64.166664 70.06563 65.02604Q69.2375 66.05729 67.81563 66.05729Q66.64375 66.05729 65.89375 65.40104Q65.15938 64.74479 65.05 63.666664Z" fill-rule="nonzero"/><path fill="#000000" d="M148.98538 315.2L150.09476 315.10626Q150.21976 315.91876 150.65726 316.325Q151.11038 316.73126 151.751 316.73126Q152.501 316.73126 153.03226 316.15314Q153.5635 315.575 153.5635 314.6375Q153.5635 313.73126 153.04788 313.21564Q152.54788 312.6844 151.71976 312.6844Q151.21976 312.6844 150.79788 312.91876Q150.39163 313.15314 150.15726 313.5125L149.17288 313.3875L150.001 308.98126L154.28226 308.98126L154.28226 309.98126L150.84476 309.98126L150.39163 312.29376Q151.15726 311.7469 152.001 311.7469Q153.126 311.7469 153.89163 312.52814Q154.67288 313.3094 154.67288 314.54376Q154.67288 315.7 154.001 316.5594Q153.17288 317.59064 151.751 317.59064Q150.57913 317.59064 149.82913 316.9344Q149.09476 316.27814 148.98538 315.2Z" fill-rule="nonzero"/><path fill="#000000" d="M233.98491 317.45L232.93803 317.45L232.93803 310.73126Q232.54741 311.09064 231.92241 311.46564Q231.31303 311.825 230.82866 311.9969L230.82866 310.98126Q231.70366 310.5594 232.35991 309.98126Q233.03178 309.3875 233.31303 308.825L233.98491 308.825L233.98491 317.45ZM237.01616 313.21564Q237.01616 311.6844 237.32866 310.7625Q237.64116 309.825 238.25053 309.325Q238.87553 308.825 239.81303 308.825Q240.50053 308.825 241.01616 309.10626Q241.54741 309.3875 241.89116 309.91876Q242.23491 310.4344 242.42241 311.1844Q242.60991 311.9344 242.60991 313.21564Q242.60991 314.73126 242.29741 315.65314Q242.00053 316.575 241.37553 317.09064Q240.76616 317.59064 239.81303 317.59064Q238.57866 317.59064 237.85991 316.7Q237.01616 315.6375 237.01616 313.21564ZM238.09428 313.21564Q238.09428 315.325 238.59428 316.02814Q239.09428 316.73126 239.81303 316.73126Q240.54741 316.73126 241.03178 316.02814Q241.53178 315.325 241.53178 313.21564Q241.53178 311.09064 241.03178 310.40314Q240.54741 309.7 239.79741 309.7Q239.07866 309.7 238.64116 310.3094Q238.09428 311.09064 238.09428 313.21564Z" fill-rule="nonzero"/><path fill="#000000" d="M318.5157 317.45L317.4688 317.45L317.4688 310.73126Q317.0782 311.09064 316.4532 311.46564Q315.8438 311.825 315.35944 311.9969L315.35944 310.98126Q316.23444 310.5594 316.8907 309.98126Q317.56256 309.3875 317.8438 308.825L318.5157 308.825L318.5157 317.45ZM321.54694 315.2L322.6563 315.10626Q322.7813 315.91876 323.2188 316.325Q323.67194 316.73126 324.31256 316.73126Q325.06256 316.73126 325.5938 316.15314Q326.12506 315.575 326.12506 314.6375Q326.12506 313.73126 325.60944 313.21564Q325.10944 312.6844 324.2813 312.6844Q323.7813 312.6844 323.35944 312.91876Q322.9532 313.15314 322.7188 313.5125L321.73444 313.3875L322.56256 308.98126L326.8438 308.98126L326.8438 309.98126L323.4063 309.98126L322.9532 312.29376Q323.7188 311.7469 324.56256 311.7469Q325.68756 311.7469 326.4532 312.52814Q327.23444 313.3094 327.23444 314.54376Q327.23444 315.7 326.56256 316.5594Q325.73444 317.59064 324.31256 317.59064Q323.1407 317.59064 322.3907 316.9344Q321.6563 316.27814 321.54694 315.2Z" fill-rule="nonzero"/><path fill="#000000" d="M404.62457 316.4344L404.62457 317.45L398.93707 317.45Q398.93707 317.075 399.06207 316.71564Q399.28082 316.1375 399.74957 315.575Q400.23395 315.0125 401.1402 314.27814Q402.54645 313.1219 403.03082 312.45Q403.53082 311.77814 403.53082 311.1844Q403.53082 310.5594 403.0777 310.1375Q402.62457 309.7 401.90582 309.7Q401.1402 309.7 400.68707 310.15314Q400.23395 310.60626 400.21832 311.41876L399.1402 311.3094Q399.24957 310.09064 399.96832 309.46564Q400.7027 308.825 401.93707 308.825Q403.17145 308.825 403.8902 309.5125Q404.60895 310.2 404.60895 311.21564Q404.60895 311.73126 404.3902 312.23126Q404.18707 312.71564 403.68707 313.27814Q403.2027 313.825 402.0777 314.77814Q401.12457 315.575 400.84332 315.8719Q400.5777 316.15314 400.40582 316.4344L404.62457 316.4344ZM406.0777 313.21564Q406.0777 311.6844 406.3902 310.7625Q406.7027 309.825 407.31207 309.325Q407.93707 308.825 408.87457 308.825Q409.56207 308.825 410.0777 309.10626Q410.60895 309.3875 410.9527 309.91876Q411.29645 310.4344 411.48395 311.1844Q411.67145 311.9344 411.67145 313.21564Q411.67145 314.73126 411.35895 315.65314Q411.06207 316.575 410.43707 317.09064Q409.8277 317.59064 408.87457 317.59064Q407.6402 317.59064 406.92145 316.7Q406.0777 315.6375 406.0777 313.21564ZM407.15582 313.21564Q407.15582 315.325 407.65582 316.02814Q408.15582 316.73126 408.87457 316.73126Q409.60895 316.73126 410.09332 316.02814Q410.59332 315.325 410.59332 313.21564Q410.59332 311.09064 410.09332 310.40314Q409.60895 309.7 408.85895 309.7Q408.1402 309.7 407.7027 310.3094Q407.15582 311.09064 407.15582 313.21564Z" fill-rule="nonzero"/><path fill="#000000" d="M489.15533 316.4344L489.15533 317.45L483.46783 317.45Q483.46783 317.075 483.59283 316.71564Q483.81158 316.1375 484.28033 315.575Q484.7647 315.0125 485.67096 314.27814Q487.0772 313.1219 487.56158 312.45Q488.06158 311.77814 488.06158 311.1844Q488.06158 310.5594 487.60846 310.1375Q487.15533 309.7 486.43658 309.7Q485.67096 309.7 485.21783 310.15314Q484.7647 310.60626 484.74908 311.41876L483.67096 311.3094Q483.78033 310.09064 484.49908 309.46564Q485.23346 308.825 486.46783 308.825Q487.7022 308.825 488.42096 309.5125Q489.1397 310.2 489.1397 311.21564Q489.1397 311.73126 488.92096 312.23126Q488.71783 312.71564 488.21783 313.27814Q487.73346 313.825 486.60846 314.77814Q485.65533 315.575 485.37408 315.8719Q485.10846 316.15314 484.93658 316.4344L489.15533 316.4344ZM490.60846 315.2L491.71783 315.10626Q491.84283 315.91876 492.28033 316.325Q492.73346 316.73126 493.37408 316.73126Q494.12408 316.73126 494.65533 316.15314Q495.18658 315.575 495.18658 314.6375Q495.18658 313.73126 494.67096 313.21564Q494.17096 312.6844 493.34283 312.6844Q492.84283 312.6844 492.42096 312.91876Q492.0147 313.15314 491.78033 313.5125L490.79596 313.3875L491.62408 308.98126L495.90533 308.98126L495.90533 309.98126L492.46783 309.98126L492.0147 312.29376Q492.78033 311.7469 493.62408 311.7469Q494.74908 311.7469 495.5147 312.52814Q496.29596 313.3094 496.29596 314.54376Q496.29596 315.7 495.62408 316.5594Q494.79596 317.59064 493.37408 317.59064Q492.2022 317.59064 491.4522 316.9344Q490.71783 316.27814 490.60846 315.2Z" fill-rule="nonzero"/><path fill="#000000" d="M568.1392 315.1844L569.2017 315.04376Q569.3736 315.9344 569.8111 316.34064Q570.2486 316.73126 570.8736 316.73126Q571.6236 316.73126 572.1392 316.21564Q572.65485 315.7 572.65485 314.9344Q572.65485 314.21564 572.1705 313.7469Q571.7017 313.2625 570.96735 313.2625Q570.6705 313.2625 570.21735 313.3875L570.34235 312.45Q570.4517 312.46564 570.5142 312.46564Q571.1861 312.46564 571.71735 312.1219Q572.2642 311.7625 572.2642 311.02814Q572.2642 310.45 571.8736 310.075Q571.483 309.6844 570.858 309.6844Q570.2486 309.6844 569.8267 310.075Q569.4205 310.46564 569.3111 311.23126L568.2486 311.04376Q568.4361 309.9969 569.1236 309.41876Q569.8111 308.825 570.8267 308.825Q571.52985 308.825 572.1236 309.1375Q572.71735 309.4344 573.02985 309.95Q573.34235 310.46564 573.34235 311.0594Q573.34235 311.60626 573.0455 312.075Q572.7486 312.52814 572.1705 312.79376Q572.9205 312.96564 573.34235 313.52814Q573.7642 314.075 573.7642 314.91876Q573.7642 316.04376 572.9361 316.825Q572.1236 317.60626 570.8736 317.60626Q569.7486 317.60626 568.9986 316.9344Q568.2486 316.2469 568.1392 315.1844ZM575.1392 313.21564Q575.1392 311.6844 575.4517 310.7625Q575.7642 309.825 576.3736 309.325Q576.9986 308.825 577.9361 308.825Q578.6236 308.825 579.1392 309.10626Q579.6705 309.3875 580.0142 309.91876Q580.358 310.4344 580.5455 311.1844Q580.733 311.9344 580.733 313.21564Q580.733 314.73126 580.4205 315.65314Q580.1236 316.575 579.4986 317.09064Q578.8892 317.59064 577.9361 317.59064Q576.7017 317.59064 575.983 316.7Q575.1392 315.6375 575.1392 313.21564ZM576.21735 313.21564Q576.21735 315.325 576.71735 316.02814Q577.21735 316.73126 577.9361 316.73126Q578.6705 316.73126 579.15485 316.02814Q579.65485 315.325 579.65485 313.21564Q579.65485 311.09064 579.15485 310.40314Q578.6705 309.7 577.9205 309.7Q577.2017 309.7 576.7642 310.3094Q576.21735 311.09064 576.21735 313.21564Z" fill-rule="nonzero"/><path fill="#757575" d="M19.45625 32.95625L21.2375 32.8Q21.3625 33.8625 21.815624 34.55Q22.284374 35.2375 23.253124 35.675Q24.2375 36.096874 25.471874 36.096874Q26.55 36.096874 27.378124 35.784374Q28.20625 35.45625 28.6125 34.89375Q29.01875 34.33125 29.01875 33.659374Q29.01875 32.9875 28.628124 32.4875Q28.2375 31.9875 27.346874 31.64375Q26.76875 31.409374 24.784374 30.940624Q22.815624 30.471874 22.034374 30.05Q21.003124 29.51875 20.503124 28.721874Q20.003124 27.925 20.003124 26.940624Q20.003124 25.846874 20.6125 24.909374Q21.221874 23.971874 22.409374 23.4875Q23.596874 22.9875 25.034374 22.9875Q26.628124 22.9875 27.846874 23.503124Q29.065624 24.01875 29.70625 25.01875Q30.3625 26.003124 30.409374 27.26875L28.596874 27.409374Q28.45625 26.05 27.6125 25.3625Q26.76875 24.659374 25.1125 24.659374Q23.39375 24.659374 22.596874 25.3Q21.815624 25.925 21.815624 26.8Q21.815624 27.58125 22.378124 28.08125Q22.925 28.58125 25.2375 29.096874Q27.55 29.6125 28.409374 30.003124Q29.659374 30.58125 30.253124 31.471874Q30.846874 32.346874 30.846874 33.503124Q30.846874 34.64375 30.190624 35.659374Q29.534374 36.675 28.3 37.2375Q27.08125 37.8 25.55 37.8Q23.6125 37.8 22.3 37.2375Q20.9875 36.659374 20.2375 35.51875Q19.4875 34.378124 19.45625 32.95625ZM36.70625 35.971874L36.95625 37.534374Q36.221874 37.690624 35.628124 37.690624Q34.675 37.690624 34.14375 37.39375Q33.628124 37.08125 33.409374 36.596874Q33.190624 36.096874 33.190624 34.51875L33.190624 28.55L31.909374 28.55L31.909374 27.175L33.190624 27.175L33.190624 24.6125L34.940624 23.55L34.940624 27.175L36.70625 27.175L36.70625 28.55L34.940624 28.55L34.940624 34.6125Q34.940624 35.3625 35.034374 35.58125Q35.128124 35.784374 35.33125 35.925Q35.55 36.05 35.940624 36.05Q36.221874 36.05 36.70625 35.971874ZM45.64375 36.26875Q44.659374 37.096874 43.753124 37.440624Q42.846874 37.784374 41.815624 37.784374Q40.1125 37.784374 39.190624 36.95625Q38.26875 36.1125 38.26875 34.815624Q38.26875 34.05 38.6125 33.425Q38.971874 32.8 39.534374 32.425Q40.096874 32.034374 40.8 31.83125Q41.315624 31.70625 42.3625 31.565624Q44.4875 31.315624 45.4875 30.971874Q45.503124 30.6125 45.503124 30.503124Q45.503124 29.440624 45.003124 28.9875Q44.33125 28.39375 43.003124 28.39375Q41.753124 28.39375 41.159374 28.83125Q40.58125 29.26875 40.3 30.378124L38.58125 30.14375Q38.815624 29.034374 39.346874 28.3625Q39.878124 27.675 40.89375 27.315624Q41.909374 26.940624 43.253124 26.940624Q44.58125 26.940624 45.409374 27.253124Q46.2375 27.565624 46.628124 28.05Q47.01875 28.51875 47.175 29.2375Q47.26875 29.690624 47.26875 30.8625L47.26875 33.20625Q47.26875 35.659374 47.378124 36.315624Q47.4875 36.95625 47.83125 37.55L45.9875 37.55Q45.721874 37.003124 45.64375 36.26875ZM45.4875 32.346874Q44.534374 32.7375 42.6125 33.003124Q41.534374 33.159374 41.08125 33.3625Q40.64375 33.55 40.39375 33.925Q40.14375 34.3 40.14375 34.76875Q40.14375 35.471874 40.675 35.940624Q41.20625 36.409374 42.2375 36.409374Q43.253124 36.409374 44.034374 35.971874Q44.83125 35.51875 45.20625 34.753124Q45.4875 34.14375 45.4875 32.9875L45.4875 32.346874ZM49.8625 37.55L49.8625 27.175L51.45625 27.175L51.45625 28.659374Q52.596874 26.940624 54.753124 26.940624Q55.690624 26.940624 56.471874 27.284374Q57.26875 27.6125 57.659374 28.159374Q58.05 28.70625 58.20625 29.45625Q58.3 29.95625 58.3 31.175L58.3 37.55L56.534374 37.55L56.534374 31.2375Q56.534374 30.159374 56.33125 29.628124Q56.128124 29.096874 55.596874 28.784374Q55.08125 28.471874 54.378124 28.471874Q53.253124 28.471874 52.440624 29.190624Q51.628124 29.89375 51.628124 31.878124L51.628124 37.55L49.8625 37.55ZM66.59688 37.55L66.59688 36.2375Q65.6125 37.784374 63.690624 37.784374Q62.45625 37.784374 61.409374 37.096874Q60.378124 36.409374 59.8 35.190624Q59.2375 33.971874 59.2375 32.378124Q59.2375 30.815624 59.753124 29.55Q60.26875 28.284374 61.3 27.6125Q62.346874 26.940624 63.6125 26.940624Q64.55 26.940624 65.28438 27.346874Q66.01875 27.7375 66.4875 28.3625L66.4875 23.2375L68.22188 23.2375L68.22188 37.55L66.59688 37.55ZM61.034374 32.378124Q61.034374 34.3625 61.878124 35.346874Q62.721874 36.33125 63.8625 36.33125Q65.01875 36.33125 65.81563 35.39375Q66.62813 34.45625 66.62813 32.51875Q66.62813 30.39375 65.8 29.39375Q64.9875 28.39375 63.784374 28.39375Q62.6125 28.39375 61.815624 29.3625Q61.034374 30.315624 61.034374 32.378124ZM77.64375 36.26875Q76.65938 37.096874 75.75313 37.440624Q74.84688 37.784374 73.81563 37.784374Q72.1125 37.784374 71.19063 36.95625Q70.26875 36.1125 70.26875 34.815624Q70.26875 34.05 70.6125 33.425Q70.97188 32.8 71.53438 32.425Q72.09688 32.034374 72.8 31.83125Q73.31563 31.70625 74.3625 31.565624Q76.4875 31.315624 77.4875 30.971874Q77.50313 30.6125 77.50313 30.503124Q77.50313 29.440624 77.00313 28.9875Q76.33125 28.39375 75.00313 28.39375Q73.75313 28.39375 73.15938 28.83125Q72.58125 29.26875 72.3 30.378124L70.58125 30.14375Q70.81563 29.034374 71.34688 28.3625Q71.87813 27.675 72.89375 27.315624Q73.90938 26.940624 75.25313 26.940624Q76.58125 26.940624 77.40938 27.253124Q78.2375 27.565624 78.62813 28.05Q79.01875 28.51875 79.175 29.2375Q79.26875 29.690624 79.26875 30.8625L79.26875 33.20625Q79.26875 35.659374 79.37813 36.315624Q79.4875 36.95625 79.83125 37.55L77.9875 37.55Q77.72188 37.003124 77.64375 36.26875ZM77.4875 32.346874Q76.53438 32.7375 74.6125 33.003124Q73.53438 33.159374 73.08125 33.3625Q72.64375 33.55 72.39375 33.925Q72.14375 34.3 72.14375 34.76875Q72.14375 35.471874 72.675 35.940624Q73.20625 36.409374 74.2375 36.409374Q75.25313 36.409374 76.03438 35.971874Q76.83125 35.51875 77.20625 34.753124Q77.4875 34.14375 77.4875 32.9875L77.4875 32.346874ZM81.84688 37.55L81.84688 27.175L83.425 27.175L83.425 28.753124Q84.03438 27.64375 84.55 27.3Q85.06563 26.940624 85.675 26.940624Q86.56563 26.940624 87.4875 27.503124L86.87813 29.14375Q86.2375 28.753124 85.59688 28.753124Q85.01875 28.753124 84.55 29.1125Q84.09688 29.45625 83.89375 30.065624Q83.6125 31.003124 83.6125 32.1125L83.6125 37.55L81.84688 37.55ZM95.59688 37.55L95.59688 36.2375Q94.6125 37.784374 92.69063 37.784374Q91.45625 37.784374 90.40938 37.096874Q89.37813 36.409374 88.8 35.190624Q88.2375 33.971874 88.2375 32.378124Q88.2375 30.815624 88.75313 29.55Q89.26875 28.284374 90.3 27.6125Q91.34688 26.940624 92.6125 26.940624Q93.55 26.940624 94.28438 27.346874Q95.01875 27.7375 95.4875 28.3625L95.4875 23.2375L97.22188 23.2375L97.22188 37.55L95.59688 37.55ZM90.03438 32.378124Q90.03438 34.3625 90.87813 35.346874Q91.72188 36.33125 92.8625 36.33125Q94.01875 36.33125 94.81563 35.39375Q95.62813 34.45625 95.62813 32.51875Q95.62813 30.39375 94.8 29.39375Q93.9875 28.39375 92.78438 28.39375Q91.6125 28.39375 90.81563 29.3625Q90.03438 30.315624 90.03438 32.378124ZM106.09688 37.55L106.09688 23.2375L111.01875 23.2375Q112.69063 23.2375 113.58125 23.440624Q114.8 23.721874 115.675 24.45625Q116.8 25.425 117.3625 26.909374Q117.925 28.39375 117.925 30.315624Q117.925 31.940624 117.55 33.20625Q117.175 34.45625 116.56563 35.284374Q115.97188 36.1125 115.26875 36.596874Q114.56563 37.065624 113.56563 37.315624Q112.56563 37.55 111.25313 37.55L106.09688 37.55ZM107.9875 35.8625L111.05 35.8625Q112.45625 35.8625 113.25313 35.596874Q114.06563 35.33125 114.55 34.846874Q115.22188 34.175 115.59688 33.05Q115.97188 31.909374 115.97188 30.284374Q115.97188 28.034374 115.2375 26.83125Q114.50313 25.628124 113.44063 25.221874Q112.69063 24.925 111.00313 24.925L107.9875 24.925L107.9875 35.8625ZM126.97188 34.20625L128.78438 34.440624Q128.3625 36.01875 127.19063 36.909374Q126.03438 37.784374 124.22188 37.784374Q121.95625 37.784374 120.6125 36.39375Q119.28438 34.9875 119.28438 32.45625Q119.28438 29.83125 120.62813 28.39375Q121.97188 26.940624 124.12813 26.940624Q126.20625 26.940624 127.51875 28.3625Q128.84688 29.76875 128.84688 32.346874Q128.84688 32.503124 128.83125 32.815624L121.09688 32.815624Q121.19063 34.51875 122.06563 35.425Q122.94063 36.33125 124.2375 36.33125Q125.20625 36.33125 125.87813 35.83125Q126.56563 35.315624 126.97188 34.20625ZM121.19063 31.3625L126.9875 31.3625Q126.87813 30.065624 126.33125 29.409374Q125.4875 28.39375 124.14375 28.39375Q122.94063 28.39375 122.1125 29.20625Q121.28438 30.003124 121.19063 31.3625ZM133.75313 37.55L129.8 27.175L131.65938 27.175L133.89375 33.39375Q134.25313 34.39375 134.55 35.471874Q134.78438 34.659374 135.20625 33.503124L137.50313 27.175L139.31563 27.175L135.39375 37.55L133.75313 37.55ZM139.87813 25.253124L139.87813 23.2375L141.64375 23.2375L141.64375 25.253124L139.87813 25.253124ZM139.87813 37.55L139.87813 27.175L141.64375 27.175L141.64375 37.55L139.87813 37.55ZM150.64375 36.26875Q149.65938 37.096874 148.75313 37.440624Q147.84688 37.784374 146.81563 37.784374Q145.1125 37.784374 144.19063 36.95625Q143.26875 36.1125 143.26875 34.815624Q143.26875 34.05 143.6125 33.425Q143.97188 32.8 144.53438 32.425Q145.09688 32.034374 145.8 31.83125Q146.31563 31.70625 147.3625 31.565624Q149.4875 31.315624 150.4875 30.971874Q150.50313 30.6125 150.50313 30.503124Q150.50313 29.440624 150.00313 28.9875Q149.33125 28.39375 148.00313 28.39375Q146.75313 28.39375 146.15938 28.83125Q145.58125 29.26875 145.3 30.378124L143.58125 30.14375Q143.81563 29.034374 144.34688 28.3625Q144.87813 27.675 145.89375 27.315624Q146.90938 26.940624 148.25313 26.940624Q149.58125 26.940624 150.40938 27.253124Q151.2375 27.565624 151.62813 28.05Q152.01875 28.51875 152.175 29.2375Q152.26875 29.690624 152.26875 30.8625L152.26875 33.20625Q152.26875 35.659374 152.37813 36.315624Q152.4875 36.95625 152.83125 37.55L150.9875 37.55Q150.72188 37.003124 150.64375 36.26875ZM150.4875 32.346874Q149.53438 32.7375 147.6125 33.003124Q146.53438 33.159374 146.08125 33.3625Q145.64375 33.55 145.39375 33.925Q145.14375 34.3 145.14375 34.76875Q145.14375 35.471874 145.675 35.940624Q146.20625 36.409374 147.2375 36.409374Q148.25313 36.409374 149.03438 35.971874Q149.83125 35.51875 150.20625 34.753124Q150.4875 34.14375 150.4875 32.9875L150.4875 32.346874ZM158.70625 35.971874L158.95625 37.534374Q158.22188 37.690624 157.62813 37.690624Q156.675 37.690624 156.14375 37.39375Q155.62813 37.08125 155.40938 36.596874Q155.19063 36.096874 155.19063 34.51875L155.19063 28.55L153.90938 28.55L153.90938 27.175L155.19063 27.175L155.19063 24.6125L156.94063 23.55L156.94063 27.175L158.70625 27.175L158.70625 28.55L156.94063 28.55L156.94063 34.6125Q156.94063 35.3625 157.03438 35.58125Q157.12813 35.784374 157.33125 35.925Q157.55 36.05 157.94063 36.05Q158.22188 36.05 158.70625 35.971874ZM160.87813 25.253124L160.87813 23.2375L162.64375 23.2375L162.64375 25.253124L160.87813 25.253124ZM160.87813 37.55L160.87813 27.175L162.64375 27.175L162.64375 37.55L160.87813 37.55ZM164.22188 32.3625Q164.22188 29.4875 165.81563 28.096874Q167.15938 26.940624 169.08125 26.940624Q171.22188 26.940624 172.56563 28.346874Q173.925 29.753124 173.925 32.221874Q173.925 34.221874 173.33125 35.378124Q172.7375 36.51875 171.58125 37.159374Q170.44063 37.784374 169.08125 37.784374Q166.89375 37.784374 165.55 36.39375Q164.22188 34.9875 164.22188 32.3625ZM166.01875 32.3625Q166.01875 34.3625 166.87813 35.346874Q167.75313 36.33125 169.08125 36.33125Q170.39375 36.33125 171.25313 35.346874Q172.12813 34.346874 172.12813 32.3Q172.12813 30.378124 171.25313 29.39375Q170.37813 28.39375 169.08125 28.39375Q167.75313 28.39375 166.87813 29.39375Q166.01875 30.378124 166.01875 32.3625ZM175.8625 37.55L175.8625 27.175L177.45625 27.175L177.45625 28.659374Q178.59688 26.940624 180.75313 26.940624Q181.69063 26.940624 182.47188 27.284374Q183.26875 27.6125 183.65938 28.159374Q184.05 28.70625 184.20625 29.45625Q184.3 29.95625 184.3 31.175L184.3 37.55L182.53438 37.55L182.53438 31.2375Q182.53438 30.159374 182.33125 29.628124Q182.12813 29.096874 181.59688 28.784374Q181.08125 28.471874 180.37813 28.471874Q179.25313 28.471874 178.44063 29.190624Q177.62813 29.89375 177.62813 31.878124L177.62813 37.55L175.8625 37.55Z" fill-rule="nonzero"/></svg>